M48
;Layer_Color=9474304
;FILE_FORMAT=4:4
METRIC,LZ
;TYPE=PLATED
T1F00S00C0.7000
T2F00S00C2.0000
%
T01
X00223926Y-00000508
X00188874Y00000762
X00118516Y00000254
X00102624Y00059563
Y-00059055
X00059207Y-00102472
X-00000102Y-00118364
X00000406Y-00188722
X-00000356Y-00224282
X00111692Y-00194395
X00094826Y-0016315
X0016381Y-00093794
X00193785Y-00112488
X-00059411Y-00102472
X-00102828Y-00059055
X-0011872Y00000254
X-00102828Y00059563
X-00163506Y-00094674
X-0009415Y-00163658
X-00112336Y-00194141
X-00194243Y-00112048
X-00193989Y0011198
X-00164014Y00094302
X-00059411Y0010298
X-00000102Y00118872
X00059207Y0010298
X00093946Y00164166
X00112132Y00193633
X00163302Y00095182
X00194039Y0011154
X-0009503Y00163658
X-00111896Y00193887
T02
X00264295Y-00105087
X00112894Y-00260781
X-00104255Y-00263816
X-00259949Y-00112414
X-00262984Y00104735
X-00111583Y00260428
X00105566Y00263463
X0026126Y00112062
M30
