%FSLAX44Y44*%
%MOMM*%
G71*
G01*
G75*
G04 Layer_Color=16711935*
%ADD10C,0.1270*%
%ADD11C,1.5240*%
%ADD12C,1.2700*%
%ADD13C,1.7272*%
%ADD14C,1.4732*%
D10*
X-83871Y54473D02*
X-77798Y62787D01*
X-89057Y45579D02*
X-83871Y54473D01*
X-93301Y36198D02*
X-89057Y45579D01*
X-96558Y26432D02*
X-93301Y36198D01*
X-98794Y16381D02*
X-96558Y26432D01*
X-99984Y6155D02*
X-98794Y16381D01*
X-100117Y-4140D02*
X-99984Y6155D01*
X-100117Y-4140D02*
X-99190Y-14394D01*
X-97214Y-24499D01*
X-94209Y-34346D01*
X-90208Y-43833D01*
X-85253Y-52857D01*
X-79396Y-61325D01*
X-72699Y-69145D01*
X-65234Y-76235D01*
X-57079Y-82521D01*
X-48321Y-87934D01*
X-39053Y-92418D01*
X-29374Y-95926D01*
X-19384Y-98419D01*
X-9192Y-99873D01*
X1096Y-100270D01*
X11371Y-99608D01*
X21523Y-97893D01*
X31444Y-95143D01*
X41031Y-91387D01*
X50180Y-86666D01*
X58795Y-81029D01*
X66786Y-74536D01*
X74066Y-67255D01*
X80559Y-59265D01*
X86196Y-50650D01*
X90917Y-41500D01*
X94673Y-31914D01*
X97423Y-21992D01*
X99138Y-11840D01*
X99801Y-1566D01*
X99403Y8722D02*
X99801Y-1566D01*
X97950Y18915D02*
X99403Y8722D01*
X95456Y28904D02*
X97950Y18915D01*
X91949Y38584D02*
X95456Y28904D01*
X87464Y47852D02*
X91949Y38584D01*
X82051Y56609D02*
X87464Y47852D01*
X75766Y64764D02*
X82051Y56609D01*
X68675Y72229D02*
X75766Y64764D01*
X60855Y78926D02*
X68675Y72229D01*
X52388Y84783D02*
X60855Y78926D01*
X43363Y89738D02*
X52388Y84783D01*
X33876Y93740D02*
X43363Y89738D01*
X24029Y96744D02*
X33876Y93740D01*
X13924Y98720D02*
X24029Y96744D01*
X3670Y99647D02*
X13924Y98720D01*
X-6624Y99514D02*
X3670Y99647D01*
X-16851Y98324D02*
X-6624Y99514D01*
X-26901Y96088D02*
X-16851Y98324D01*
X-36668Y92831D02*
X-26901Y96088D01*
X-46048Y88587D02*
X-36668Y92831D01*
X-54943Y83401D02*
X-46048Y88587D01*
X-63257Y77328D02*
X-54943Y83401D01*
X-70902Y70432D02*
X-63257Y77328D01*
X-77798Y62787D02*
X-70902Y70432D01*
X207206Y-78526D02*
X209149Y-74491D01*
X206209Y-82892D02*
X207206Y-78526D01*
X206209Y-87371D02*
Y-82892D01*
Y-87371D02*
X207206Y-91737D01*
X209149Y-95772D01*
X211941Y-99274D01*
X215443Y-102066D01*
X219478Y-104009D01*
X223844Y-105006D01*
X228322Y-105006D01*
X232689Y-104009D01*
X236724Y-102066D01*
X240225Y-99274D01*
X243018Y-95772D01*
X244961Y-91737D01*
X245957Y-87371D01*
X245957Y-82892D01*
X244961Y-78526D02*
X245957Y-82892D01*
X243018Y-74491D02*
X244961Y-78526D01*
X240225Y-70989D02*
X243018Y-74491D01*
X236724Y-68197D02*
X240225Y-70989D01*
X232689Y-66254D02*
X236724Y-68197D01*
X228322Y-65257D02*
X232689Y-66254D01*
X223844Y-65257D02*
X228322D01*
X219478Y-66254D02*
X223844Y-65257D01*
X215443Y-68197D02*
X219478Y-66254D01*
X211941Y-70989D02*
X215443Y-68197D01*
X-172734Y245137D02*
X-158335Y254654D01*
X-143413Y263326D01*
X-128017Y271127D01*
X-112197Y278028D01*
X-96007Y284009D01*
X-79500Y289049D01*
X-62730Y293131D01*
X-38896Y201758D01*
X-36877Y195912D01*
X-33981Y190446D01*
X-30277Y185493D01*
X-25853Y181170D01*
X-20816Y177581D01*
X-15286Y174811D01*
X-9395Y172927D01*
X-3284Y171973D01*
X2901D01*
X9013Y172927D01*
X14904Y174811D01*
X20434Y177581D01*
X25471Y181170D01*
X29894Y185493D01*
X33598Y190446D01*
X36495Y195912D01*
X38514Y201758D01*
X62347Y293131D01*
X79117Y289049D01*
X95625Y284009D01*
X111815Y278028D01*
X127634Y271127D01*
X143031Y263326D01*
X157953Y254654D01*
X172352Y245137D01*
X186180Y234809D01*
X199391Y223702D01*
X211941Y211854D01*
X223789Y199303D01*
X234896Y186092D01*
X245225Y172265D01*
X254741Y157866D01*
X263414Y142943D01*
X271214Y127547D01*
X278116Y111728D01*
X284096Y95537D01*
X289136Y79030D01*
X293218Y62260D01*
X285661Y59606D02*
X293218Y62260D01*
X278487Y56043D02*
X285661Y59606D01*
X271806Y51624D02*
X278487Y56043D01*
X265720Y46417D02*
X271806Y51624D01*
X260320Y40501D02*
X265720Y46417D01*
X255688Y33966D02*
X260320Y40501D01*
X251896Y26911D02*
X255688Y33966D01*
X249000Y19443D02*
X251896Y26911D01*
X247045Y11675D02*
X249000Y19443D01*
X246059Y3726D02*
X247045Y11675D01*
X246059Y-4284D02*
Y3726D01*
Y-4284D02*
X247045Y-12233D01*
X249000Y-20000D01*
X251896Y-27468D01*
X255688Y-34523D01*
X260320Y-41058D01*
X265720Y-46974D01*
X271806Y-52181D01*
X278487Y-56600D01*
X285661Y-60163D01*
X293218Y-62817D01*
X289136Y-79587D02*
X293218Y-62817D01*
X284096Y-96094D02*
X289136Y-79587D01*
X278116Y-112285D02*
X284096Y-96094D01*
X271214Y-128104D02*
X278116Y-112285D01*
X263414Y-143500D02*
X271214Y-128104D01*
X254741Y-158423D02*
X263414Y-143500D01*
X245225Y-172822D02*
X254741Y-158423D01*
X234896Y-186649D02*
X245225Y-172822D01*
X223789Y-199860D02*
X234896Y-186649D01*
X211941Y-212411D02*
X223789Y-199860D01*
X199391Y-224259D02*
X211941Y-212411D01*
X186180Y-235366D02*
X199391Y-224259D01*
X172352Y-245695D02*
X186180Y-235366D01*
X157953Y-255211D02*
X172352Y-245695D01*
X143031Y-263883D02*
X157953Y-255211D01*
X127634Y-271684D02*
X143031Y-263883D01*
X111815Y-278585D02*
X127634Y-271684D01*
X95625Y-284566D02*
X111815Y-278585D01*
X79117Y-289606D02*
X95625Y-284566D01*
X62347Y-293688D02*
X79117Y-289606D01*
X59693Y-286130D02*
X62347Y-293688D01*
X56130Y-278957D02*
X59693Y-286130D01*
X51711Y-272276D02*
X56130Y-278957D01*
X46505Y-266189D02*
X51711Y-272276D01*
X40589Y-260789D02*
X46505Y-266189D01*
X34054Y-256158D02*
X40589Y-260789D01*
X26998Y-252366D02*
X34054Y-256158D01*
X19530Y-249470D02*
X26998Y-252366D01*
X11763Y-247514D02*
X19530Y-249470D01*
X3814Y-246529D02*
X11763Y-247514D01*
X-4196Y-246529D02*
X3814D01*
X-12145Y-247514D02*
X-4196Y-246529D01*
X-19913Y-249470D02*
X-12145Y-247514D01*
X-27381Y-252366D02*
X-19913Y-249470D01*
X-34436Y-256158D02*
X-27381Y-252366D01*
X-40971Y-260789D02*
X-34436Y-256158D01*
X-46887Y-266189D02*
X-40971Y-260789D01*
X-52094Y-272276D02*
X-46887Y-266189D01*
X-56512Y-278957D02*
X-52094Y-272276D01*
X-60076Y-286130D02*
X-56512Y-278957D01*
X-62730Y-293688D02*
X-60076Y-286130D01*
X-79500Y-289606D02*
X-62730Y-293688D01*
X-96007Y-284566D02*
X-79500Y-289606D01*
X-112197Y-278585D02*
X-96007Y-284566D01*
X-128017Y-271684D02*
X-112197Y-278585D01*
X-143413Y-263883D02*
X-128017Y-271684D01*
X-158335Y-255211D02*
X-143413Y-263883D01*
X-172734Y-245695D02*
X-158335Y-255211D01*
X-186562Y-235366D02*
X-172734Y-245695D01*
X-199773Y-224259D02*
X-186562Y-235366D01*
X-212323Y-212411D02*
X-199773Y-224259D01*
X-224172Y-199860D02*
X-212323Y-212411D01*
X-235278Y-186649D02*
X-224172Y-199860D01*
X-245607Y-172822D02*
X-235278Y-186649D01*
X-255124Y-158423D02*
X-245607Y-172822D01*
X-263796Y-143500D02*
X-255124Y-158423D01*
X-271596Y-128104D02*
X-263796Y-143500D01*
X-278498Y-112285D02*
X-271596Y-128104D01*
X-284479Y-96094D02*
X-278498Y-112285D01*
X-289518Y-79587D02*
X-284479Y-96094D01*
X-293601Y-62817D02*
X-289518Y-79587D01*
X-293601Y-62817D02*
X-202227Y-38984D01*
X-196381Y-36964D01*
X-190916Y-34068D01*
X-185963Y-30364D01*
X-181640Y-25940D01*
X-178051Y-20903D01*
X-175281Y-15373D01*
X-173396Y-9482D01*
X-172443Y-3371D01*
Y2814D01*
X-173396Y8925D02*
X-172443Y2814D01*
X-175281Y14816D02*
X-173396Y8925D01*
X-178051Y20346D02*
X-175281Y14816D01*
X-181640Y25384D02*
X-178051Y20346D01*
X-185963Y29807D02*
X-181640Y25384D01*
X-190916Y33511D02*
X-185963Y29807D01*
X-196381Y36407D02*
X-190916Y33511D01*
X-202227Y38426D02*
X-196381Y36407D01*
X-293601Y62260D02*
X-202227Y38426D01*
X-293601Y62260D02*
X-289518Y79030D01*
X-284479Y95537D01*
X-278498Y111728D01*
X-271596Y127547D01*
X-263796Y142943D01*
X-255124Y157866D01*
X-245607Y172265D01*
X-235278Y186092D01*
X-224172Y199303D01*
X-212323Y211854D01*
X-199773Y223702D01*
X-186562Y234809D01*
X-172734Y245137D01*
X209149Y-74491D02*
X211941Y-70989D01*
M02*
