%FSLAX44Y44*%
%MOMM*%
G71*
G01*
G75*
G04 Layer_Color=8388736*
%ADD10C,0.1270*%
%ADD11C,1.5240*%
%ADD12C,1.2700*%
%ADD13C,1.7272*%
%ADD14C,1.4732*%
D13*
X-111583Y260428D02*
D03*
X105566Y263463D02*
D03*
X261260Y112062D02*
D03*
X264295Y-105087D02*
D03*
X112894Y-260781D02*
D03*
X-104255Y-263816D02*
D03*
X-259949Y-112414D02*
D03*
X-262984Y104735D02*
D03*
D14*
X-102828Y59563D02*
D03*
X-59411Y102980D02*
D03*
X-102Y118872D02*
D03*
X59207Y102980D02*
D03*
X102624Y59563D02*
D03*
X118516Y254D02*
D03*
X102624Y-59055D02*
D03*
X59207Y-102472D02*
D03*
X-102Y-118364D02*
D03*
X-59411Y-102472D02*
D03*
X-102828Y-59055D02*
D03*
X-118720Y254D02*
D03*
X-193989Y111980D02*
D03*
X-111896Y193887D02*
D03*
X112132Y193633D02*
D03*
X194039Y111540D02*
D03*
X193785Y-112488D02*
D03*
X111692Y-194395D02*
D03*
X-356Y-224282D02*
D03*
X-112336Y-194141D02*
D03*
X-194243Y-112048D02*
D03*
X-164014Y94302D02*
D03*
X-95030Y163658D02*
D03*
X93946Y164166D02*
D03*
X163302Y95182D02*
D03*
X163810Y-93794D02*
D03*
X94826Y-163150D02*
D03*
X406Y-188722D02*
D03*
X-94150Y-163658D02*
D03*
X-163506Y-94674D02*
D03*
X223926Y-508D02*
D03*
X188874Y762D02*
D03*
M02*
