%FSLAX44Y44*%
%MOMM*%
G71*
G01*
G75*
G04 Layer_Physical_Order=2*
G04 Layer_Color=36540*
%ADD10C,0.2540*%
%ADD11R,1.1000X1.7000*%
%ADD12R,1.7000X1.1000*%
%ADD13R,2.0000X0.9000*%
%ADD14R,0.9000X2.0000*%
%ADD15R,1.3300X1.3300*%
%ADD16R,0.4000X1.0500*%
%ADD17R,0.8000X1.9000*%
%ADD18R,1.0000X1.7000*%
%ADD19R,1.9000X0.8000*%
%ADD20R,1.7000X1.0000*%
%ADD21R,2.6000X1.1000*%
%ADD22R,1.1000X2.6000*%
%ADD23R,1.1500X0.6000*%
%ADD24R,0.6000X1.1500*%
G04:AMPARAMS|DCode=25|XSize=1.97mm|YSize=0.89mm|CornerRadius=0.1113mm|HoleSize=0mm|Usage=FLASHONLY|Rotation=270.000|XOffset=0mm|YOffset=0mm|HoleType=Round|Shape=RoundedRectangle|*
%AMROUNDEDRECTD25*
21,1,1.9700,0.6675,0,0,270.0*
21,1,1.7475,0.8900,0,0,270.0*
1,1,0.2225,-0.3337,-0.8738*
1,1,0.2225,-0.3337,0.8738*
1,1,0.2225,0.3337,0.8738*
1,1,0.2225,0.3337,-0.8738*
%
%ADD25ROUNDEDRECTD25*%
G04:AMPARAMS|DCode=26|XSize=1.97mm|YSize=3.19mm|CornerRadius=0.2463mm|HoleSize=0mm|Usage=FLASHONLY|Rotation=270.000|XOffset=0mm|YOffset=0mm|HoleType=Round|Shape=RoundedRectangle|*
%AMROUNDEDRECTD26*
21,1,1.9700,2.6975,0,0,270.0*
21,1,1.4775,3.1900,0,0,270.0*
1,1,0.4925,-1.3487,-0.7388*
1,1,0.4925,-1.3487,0.7388*
1,1,0.4925,1.3487,0.7388*
1,1,0.4925,1.3487,-0.7388*
%
%ADD26ROUNDEDRECTD26*%
%ADD27R,0.6000X1.1500*%
%ADD28R,2.0000X4.2000*%
%ADD29R,1.2700X0.5080*%
%ADD30R,0.3810X0.3810*%
%ADD31O,0.6000X2.2000*%
%ADD32R,0.9144X0.9144*%
%ADD33R,0.9144X1.2700*%
%ADD34C,0.5080*%
%ADD35C,0.7620*%
%ADD36C,0.3810*%
%ADD37C,0.3048*%
%ADD38R,2.0320X8.2804*%
%ADD39R,3.9833X12.6746*%
%ADD40P,1.6496X8X112.5*%
%ADD41C,1.5000*%
%ADD42R,1.5000X1.5000*%
%ADD43C,1.2700*%
%ADD44O,1.7000X1.1000*%
%ADD45O,2.0000X4.0000*%
%ADD46R,1.5000X1.5000*%
%ADD47P,2.1648X8X112.5*%
%ADD48C,4.0000*%
G36*
X596123Y145040D02*
Y3299D01*
X540811D01*
X538867Y7992D01*
X544416Y13542D01*
Y26082D01*
X538146Y32352D01*
X525606D01*
X519336Y26082D01*
Y13542D01*
X524885Y7992D01*
X523597Y4883D01*
X522014Y3299D01*
X436372D01*
X434039Y2333D01*
X433918Y2040D01*
X390652D01*
Y8569D01*
X509965Y8950D01*
Y59950D01*
X390652Y60587D01*
Y137160D01*
X385672D01*
Y144880D01*
X390652Y149860D01*
Y160020D01*
X385572Y165100D01*
X375412D01*
X370332Y160020D01*
Y149860D01*
X375312Y144880D01*
Y137160D01*
X370332D01*
Y69792D01*
X365471Y68317D01*
X365409Y68409D01*
X362469Y70374D01*
X359000Y71064D01*
X355531Y70374D01*
X352591Y68409D01*
X350626Y65469D01*
X349936Y62000D01*
X350626Y58531D01*
X352591Y55591D01*
X355531Y53626D01*
X359000Y52936D01*
X362469Y53626D01*
X365409Y55591D01*
X365471Y55683D01*
X370332Y54208D01*
Y2040D01*
X292224D01*
Y6096D01*
X291732Y8574D01*
X290328Y10674D01*
X284424Y16578D01*
X282324Y17982D01*
X279846Y18474D01*
X270312D01*
X267469Y20374D01*
X264000Y21064D01*
X260531Y20374D01*
X257591Y18409D01*
X255626Y15469D01*
X254936Y12000D01*
X255626Y8531D01*
X256969Y6521D01*
X254575Y2040D01*
X240235D01*
X191632Y50642D01*
X189952Y51765D01*
X187970Y52160D01*
X187654D01*
X186278Y54218D01*
X182957Y56437D01*
X179040Y57217D01*
X175123Y56437D01*
X171802Y54218D01*
X169583Y50897D01*
X168803Y46980D01*
X169583Y43063D01*
X171802Y39742D01*
X175123Y37522D01*
X179040Y36743D01*
X182957Y37522D01*
X186278Y39741D01*
X187740Y39885D01*
X220891Y6734D01*
X219492Y3356D01*
X214510Y2365D01*
X191632Y25242D01*
X189952Y26365D01*
X189080Y26539D01*
Y31620D01*
X169000D01*
Y11540D01*
D01*
Y11540D01*
X168850Y11390D01*
X153707D01*
X153676Y11436D01*
X151576Y12840D01*
X149098Y13332D01*
X32654D01*
X13332Y32654D01*
Y166207D01*
X18194Y167681D01*
X19591Y165591D01*
X22531Y163626D01*
X26000Y162936D01*
X29469Y163626D01*
X32409Y165591D01*
X34374Y168531D01*
X35064Y172000D01*
X34374Y175469D01*
X32409Y178409D01*
X29469Y180374D01*
X29037Y180460D01*
Y185540D01*
X29469Y185626D01*
X32409Y187591D01*
X34374Y190531D01*
X34685Y192095D01*
X25998D01*
Y193997D01*
X24095D01*
Y202685D01*
X22531Y202374D01*
X19591Y200409D01*
X18194Y198319D01*
X13332Y199793D01*
Y227854D01*
X51162Y265684D01*
X52064Y265505D01*
X55981Y266284D01*
X59302Y268503D01*
X61521Y271824D01*
X62300Y275742D01*
X61521Y279659D01*
X59302Y282980D01*
X55981Y285199D01*
X52064Y285978D01*
X48146Y285199D01*
X44825Y282980D01*
X42606Y279659D01*
X41827Y275742D01*
X42006Y274841D01*
X7992Y240827D01*
X3299Y242771D01*
Y376701D01*
X64403D01*
X66100Y373526D01*
X64389Y368743D01*
X60793Y367253D01*
X59253Y368282D01*
X54360Y369256D01*
X49467Y368282D01*
X45319Y365511D01*
X42548Y361363D01*
X41574Y356470D01*
Y336470D01*
X42548Y331577D01*
X45319Y327429D01*
X49467Y324658D01*
X54360Y323684D01*
X59253Y324658D01*
X63401Y327429D01*
X66172Y331577D01*
X67146Y336470D01*
Y356470D01*
X70223Y359996D01*
Y359996D01*
X70223Y359996D01*
X70223Y359996D01*
X73360Y359372D01*
X79360D01*
X82497Y359996D01*
X85156Y361773D01*
X87563D01*
X90223Y359996D01*
X93360Y359372D01*
X99360D01*
X102497Y359996D01*
D01*
Y359996D01*
X102497D01*
D01*
X105574Y356470D01*
Y336470D01*
X106548Y331577D01*
X109319Y327429D01*
X113467Y324658D01*
X118360Y323684D01*
X123253Y324658D01*
X127401Y327429D01*
X130172Y331577D01*
X131146Y336470D01*
Y356470D01*
X130172Y361363D01*
X127401Y365511D01*
X123253Y368282D01*
X118360Y369256D01*
X113467Y368282D01*
X111927Y367253D01*
X107234Y369197D01*
X106933Y370707D01*
X105922Y372221D01*
X108317Y376701D01*
X135773D01*
X138996Y372774D01*
X138889Y372237D01*
X156259D01*
X155948Y373801D01*
X157498Y376701D01*
X213110D01*
X214800Y376001D01*
X232644D01*
X235039Y371521D01*
X234196Y370259D01*
X233506Y366790D01*
X234196Y363321D01*
X236161Y360381D01*
X239101Y358416D01*
X242570Y357726D01*
X243610Y357933D01*
X245435Y356108D01*
X245435Y351028D01*
X243422Y349015D01*
X242570Y349184D01*
X239101Y348494D01*
X236161Y346529D01*
X234196Y343589D01*
X233506Y340120D01*
X233968Y337796D01*
X230745Y333870D01*
X204230D01*
X202248Y333475D01*
X200567Y332352D01*
X159338Y291122D01*
X158215Y289442D01*
X157821Y287460D01*
Y287102D01*
X152959Y285628D01*
X151989Y287079D01*
X149049Y289044D01*
X145580Y289734D01*
X142111Y289044D01*
X139171Y287079D01*
X137206Y284139D01*
X136516Y280670D01*
X137206Y277201D01*
X139171Y274261D01*
X142111Y272296D01*
X145580Y271606D01*
X149049Y272296D01*
X151989Y274261D01*
X152959Y275712D01*
X157821Y274238D01*
Y226231D01*
X156591Y225409D01*
X154626Y222469D01*
X153936Y219000D01*
X154626Y215531D01*
X156591Y212591D01*
X159531Y210626D01*
X163000Y209936D01*
X166469Y210626D01*
X169409Y212591D01*
X171374Y215531D01*
X172064Y219000D01*
X171374Y222469D01*
X169409Y225409D01*
X168179Y226231D01*
Y285315D01*
X176127Y293262D01*
X180821Y291318D01*
Y194423D01*
X134325Y147928D01*
X113030D01*
X113030Y147928D01*
X111048Y147533D01*
X109765Y146676D01*
X108204Y146986D01*
X104735Y146296D01*
X101795Y144331D01*
X99830Y141391D01*
X99140Y137922D01*
X99830Y134453D01*
X101795Y131513D01*
X104735Y129548D01*
X108204Y128858D01*
X111673Y129548D01*
X114613Y131513D01*
X116578Y134453D01*
X117198Y137569D01*
X131480D01*
X133424Y132875D01*
X117495Y116946D01*
X116373Y115266D01*
X115978Y113284D01*
Y102227D01*
X114749Y101405D01*
X114511Y101049D01*
X109431Y101049D01*
X108966Y101746D01*
X105857Y103823D01*
X102190Y104552D01*
X98523Y103823D01*
X95414Y101746D01*
X93337Y98637D01*
X92608Y94970D01*
X93337Y91303D01*
X95414Y88194D01*
X98523Y86117D01*
X100755Y85673D01*
X102950Y81566D01*
X103065Y80989D01*
X102600Y79865D01*
X80518D01*
X78338Y79432D01*
X76489Y78197D01*
X60835Y62543D01*
X58928Y62922D01*
X55261Y62193D01*
X52152Y60116D01*
X50075Y57007D01*
X49346Y53340D01*
X50075Y49673D01*
X52152Y46564D01*
X55261Y44487D01*
X58793Y43785D01*
Y38755D01*
X58793D01*
Y38705D01*
X55713Y38092D01*
X52773Y36127D01*
X50808Y33187D01*
X50118Y29718D01*
X50808Y26249D01*
X52773Y23309D01*
X55713Y21344D01*
X59182Y20654D01*
X62651Y21344D01*
X65591Y23309D01*
X67556Y26249D01*
X68246Y29718D01*
X67556Y33187D01*
X65591Y36127D01*
X62651Y38092D01*
X59317Y38755D01*
Y43785D01*
X59317D01*
Y43835D01*
X62595Y44487D01*
X65704Y46564D01*
X67781Y49673D01*
X68510Y53340D01*
X68384Y53976D01*
X82878Y68471D01*
X117078D01*
X117576Y63415D01*
X117602Y63421D01*
X117628Y63415D01*
X117958Y66769D01*
X118126Y68471D01*
X226472D01*
X247671Y47272D01*
X247418Y46000D01*
X248147Y42333D01*
X250224Y39224D01*
X253333Y37147D01*
X257000Y36418D01*
X260667Y37147D01*
X263776Y39224D01*
X265853Y42333D01*
X266582Y46000D01*
X266329Y47272D01*
X279316Y60259D01*
X284178Y58784D01*
X284626Y56531D01*
X286591Y53591D01*
X289531Y51626D01*
X293000Y50936D01*
X296469Y51626D01*
X299409Y53591D01*
X301374Y56531D01*
X301374D01*
D01*
X304591Y54591D01*
X304591Y54591D01*
Y54591D01*
X307531Y52626D01*
X311000Y51936D01*
X314469Y52626D01*
X317409Y54591D01*
X319374Y57531D01*
X320064Y61000D01*
X319374Y64469D01*
X317409Y67409D01*
X315532Y68664D01*
Y71633D01*
X327817Y83917D01*
X327817Y83917D01*
X328799Y85388D01*
X328799Y85388D01*
X328799Y85388D01*
X329144Y87122D01*
X329144Y87122D01*
Y134836D01*
X333624Y137231D01*
X334859Y136406D01*
X336423Y136095D01*
Y142875D01*
X329642D01*
X329263Y144780D01*
X329637Y146658D01*
X324776Y145183D01*
X307554Y162405D01*
Y205641D01*
X309725Y207812D01*
X352591D01*
X354525Y204919D01*
X357465Y202954D01*
X360934Y202264D01*
X364403Y202954D01*
X365852Y203922D01*
X370332Y201527D01*
Y172212D01*
X390652D01*
Y204033D01*
X395345Y205977D01*
X410217Y191105D01*
X411687Y190123D01*
X413422Y189778D01*
X413422Y189778D01*
X446996D01*
X448251Y187901D01*
X451191Y185936D01*
X454660Y185246D01*
X458129Y185936D01*
X461069Y187901D01*
X462585Y190170D01*
X465144Y190422D01*
X468568Y189741D01*
X473045Y185263D01*
X473045Y185263D01*
X474516Y184281D01*
X476250Y183936D01*
X500027D01*
X520232Y163731D01*
Y147618D01*
X518355Y146363D01*
X516390Y143423D01*
X515700Y139954D01*
X516390Y136485D01*
X518355Y133545D01*
X521295Y131580D01*
X524764Y130890D01*
X528233Y131580D01*
X531173Y133545D01*
X533138Y136485D01*
X533828Y139954D01*
X533138Y143423D01*
X531173Y146363D01*
X529296Y147618D01*
Y165608D01*
X528951Y167342D01*
X527969Y168813D01*
X505109Y191673D01*
X503638Y192655D01*
X501904Y193000D01*
X478127D01*
X462056Y209072D01*
X460585Y210054D01*
X458851Y210399D01*
X412722D01*
X368838Y254284D01*
X367367Y255266D01*
X365633Y255611D01*
X328939D01*
X327205Y255266D01*
X325734Y254284D01*
X325734Y254284D01*
X324493Y253042D01*
X308306D01*
X304298Y255721D01*
X303273Y256969D01*
X303864Y259940D01*
X303174Y263409D01*
X301209Y266349D01*
X298269Y268314D01*
Y268314D01*
X298269D01*
X299516Y269736D01*
X300684Y269890D01*
X306167Y272161D01*
X310876Y275774D01*
X314489Y280483D01*
X315104Y281968D01*
X319274Y284755D01*
X320686Y285183D01*
X323241Y283476D01*
X326710Y282786D01*
X330179Y283476D01*
X333119Y285441D01*
X335084Y288381D01*
X335774Y291850D01*
X335084Y295319D01*
X333119Y298259D01*
X330179Y300224D01*
X326710Y300914D01*
X323241Y300224D01*
X320686Y298517D01*
X319274Y298945D01*
X315104Y301732D01*
X314489Y303217D01*
X310876Y307926D01*
X306167Y311539D01*
X304682Y312154D01*
X301895Y316324D01*
X301467Y317736D01*
X303174Y320291D01*
X303864Y323760D01*
X303174Y327229D01*
X301209Y330169D01*
X298269Y332134D01*
X294800Y332824D01*
X291331Y332134D01*
X288391Y330169D01*
X286426Y327229D01*
X285736Y323760D01*
X286426Y320291D01*
X288133Y317736D01*
X287705Y316324D01*
X284918Y312154D01*
X283433Y311539D01*
X278724Y307926D01*
X275111Y303217D01*
X274496Y301732D01*
X270326Y298945D01*
X268914Y298517D01*
X266359Y300224D01*
X262890Y300914D01*
X261834Y306224D01*
X270635Y315025D01*
X270635Y315025D01*
X271224Y315907D01*
X271617Y316496D01*
X271962Y318230D01*
X271962Y318230D01*
X271962Y318230D01*
Y318230D01*
Y333788D01*
X271962Y333788D01*
X271617Y335522D01*
X271126Y336258D01*
X270635Y336993D01*
X270635Y336993D01*
X264303Y343325D01*
X262832Y344307D01*
X261098Y344652D01*
X260830Y345535D01*
X262409Y346591D01*
X264374Y349531D01*
X264685Y351095D01*
X255998D01*
Y352998D01*
X254095D01*
Y361686D01*
X254959Y361858D01*
X251367Y365449D01*
X251634Y366790D01*
X250944Y370259D01*
X250101Y371521D01*
X252496Y376001D01*
X357934D01*
X360329Y371521D01*
X359626Y370469D01*
X358936Y367000D01*
X359626Y363531D01*
X361591Y360591D01*
X363220Y359502D01*
X361238Y358099D01*
X361238D01*
D01*
D01*
D01*
X361238Y358099D01*
X359557Y356977D01*
X350337Y347757D01*
X349215Y346076D01*
X348820Y344094D01*
Y336231D01*
X347591Y335409D01*
X345626Y332469D01*
X344936Y329000D01*
X344987Y328744D01*
X343299Y326218D01*
X341534Y324453D01*
X338582Y325040D01*
X335113Y324350D01*
X332173Y322385D01*
X330208Y319445D01*
X329518Y315976D01*
X330208Y312507D01*
X332173Y309567D01*
X335113Y307602D01*
X338582Y306912D01*
X341736Y304079D01*
X341710Y303784D01*
X341710Y303784D01*
X341710D01*
X342400Y300315D01*
X344365Y297375D01*
X347305Y295410D01*
X347305Y295410D01*
X347305D01*
X347858Y295111D01*
X349004Y290489D01*
X348314Y287020D01*
X349004Y283551D01*
X350969Y280611D01*
X353909Y278646D01*
X356042Y278222D01*
X358864Y273998D01*
X358474Y272034D01*
X359164Y268565D01*
X361129Y265625D01*
X364069Y263660D01*
X367538Y262970D01*
X371007Y263660D01*
X373947Y265625D01*
X375912Y268565D01*
X376602Y272034D01*
X376113Y274496D01*
X409751Y308135D01*
X444186D01*
X446130Y303442D01*
X441041Y298353D01*
X440059Y296882D01*
X439714Y295148D01*
Y249244D01*
X438912Y248586D01*
X435443Y247896D01*
X432503Y245931D01*
X430538Y242991D01*
X429848Y239522D01*
X430538Y236053D01*
X432503Y233113D01*
X435443Y231148D01*
X438912Y230458D01*
X442381Y231148D01*
X445321Y233113D01*
X447286Y236053D01*
X447976Y239522D01*
X447529Y241769D01*
X448433Y243122D01*
X448778Y244856D01*
X448778Y244856D01*
Y287010D01*
X453639Y288484D01*
X455042Y286386D01*
X458363Y284167D01*
X462280Y283387D01*
X466197Y284167D01*
X469518Y286386D01*
X471738Y289707D01*
X472440Y293239D01*
X477520D01*
X478223Y289707D01*
X480442Y286386D01*
X483763Y284167D01*
X487680Y283387D01*
X491597Y284167D01*
X494918Y286386D01*
X497137Y289707D01*
X497840Y293239D01*
X502920D01*
X503623Y289707D01*
X505842Y286386D01*
X509163Y284167D01*
X513080Y283387D01*
X516997Y284167D01*
X520318Y286386D01*
X522537Y289707D01*
X523317Y293624D01*
X522537Y297541D01*
X520318Y300862D01*
X518391Y302150D01*
X518668Y303062D01*
X520402Y303407D01*
X521873Y304389D01*
X541165Y323682D01*
X541612Y323771D01*
X543293Y324893D01*
X544415Y326574D01*
X544554Y327272D01*
X562490D01*
Y347352D01*
X543727D01*
X542148Y351165D01*
Y352410D01*
X542410Y352672D01*
D01*
X542410Y352672D01*
X562490D01*
Y372752D01*
X562490D01*
Y373109D01*
X566082Y376701D01*
X567810D01*
Y372752D01*
X567810D01*
Y352672D01*
X587890D01*
Y372752D01*
X587890D01*
Y373109D01*
X591482Y376701D01*
X596123D01*
Y145040D01*
D02*
G37*
%LPC*%
G36*
X530733Y88949D02*
Y82169D01*
X537513D01*
X537202Y83733D01*
X535237Y86673D01*
X532297Y88638D01*
X530733Y88949D01*
D02*
G37*
G36*
X526923D02*
X525359Y88638D01*
X522419Y86673D01*
X520454Y83733D01*
X520143Y82169D01*
X526923D01*
Y88949D01*
D02*
G37*
G36*
Y78359D02*
X520143D01*
X520454Y76795D01*
X522419Y73855D01*
X525359Y71890D01*
X526923Y71579D01*
Y78359D01*
D02*
G37*
G36*
X537513D02*
X530733D01*
Y71579D01*
X532297Y71890D01*
X535237Y73855D01*
X537202Y76795D01*
X537513Y78359D01*
D02*
G37*
G36*
X347013Y142875D02*
X340233D01*
Y136095D01*
X341797Y136406D01*
X344737Y138371D01*
X346702Y141311D01*
X347013Y142875D01*
D02*
G37*
G36*
X551180Y165782D02*
X547711Y165092D01*
X544771Y163127D01*
X542806Y160187D01*
X542116Y156718D01*
X542806Y153249D01*
X544771Y150309D01*
X547711Y148344D01*
X551180Y147654D01*
X554649Y148344D01*
X557589Y150309D01*
X559554Y153249D01*
X560244Y156718D01*
X559554Y160187D01*
X557589Y163127D01*
X554649Y165092D01*
X551180Y165782D01*
D02*
G37*
G36*
X578739Y155829D02*
X571959D01*
X572270Y154265D01*
X574235Y151325D01*
X577175Y149360D01*
X578739Y149049D01*
Y155829D01*
D02*
G37*
G36*
X336423Y153465D02*
X334859Y153154D01*
X331919Y151189D01*
X329954Y148249D01*
X329643Y146685D01*
X336423D01*
Y153465D01*
D02*
G37*
G36*
X340233D02*
Y146685D01*
X347013D01*
X346702Y148249D01*
X344737Y151189D01*
X341797Y153154D01*
X340233Y153465D01*
D02*
G37*
G36*
X333595Y60095D02*
X326815D01*
X327126Y58531D01*
X329091Y55591D01*
X332031Y53626D01*
X333595Y53315D01*
Y60095D01*
D02*
G37*
G36*
X344185D02*
X337405D01*
Y53315D01*
X338969Y53626D01*
X341909Y55591D01*
X343874Y58531D01*
X344185Y60095D01*
D02*
G37*
G36*
X115697Y52451D02*
X108917D01*
X109228Y50887D01*
X111193Y47947D01*
X114133Y45982D01*
X115697Y45671D01*
Y52451D01*
D02*
G37*
G36*
X126287D02*
X119507D01*
Y45671D01*
X121071Y45982D01*
X124011Y47947D01*
X125976Y50887D01*
X126287Y52451D01*
D02*
G37*
G36*
X115697Y63041D02*
X114133Y62730D01*
X111193Y60765D01*
X109228Y57825D01*
X108917Y56261D01*
X115697D01*
Y63041D01*
D02*
G37*
G36*
X337405Y70685D02*
Y63905D01*
X344185D01*
X343874Y65469D01*
X341909Y68409D01*
X338969Y70374D01*
X337405Y70685D01*
D02*
G37*
G36*
X499364Y88312D02*
X495895Y87622D01*
X492955Y85657D01*
X490990Y82717D01*
X490300Y79248D01*
X490990Y75779D01*
X492955Y72839D01*
X495895Y70874D01*
X499364Y70184D01*
X502833Y70874D01*
X505773Y72839D01*
X507738Y75779D01*
X508428Y79248D01*
X507738Y82717D01*
X505773Y85657D01*
X502833Y87622D01*
X499364Y88312D01*
D02*
G37*
G36*
X119507Y63041D02*
Y56261D01*
X126287D01*
X125976Y57825D01*
X124011Y60765D01*
X121071Y62730D01*
X119507Y63041D01*
D02*
G37*
G36*
X333595Y70685D02*
X332031Y70374D01*
X329091Y68409D01*
X327126Y65469D01*
X326815Y63905D01*
X333595D01*
Y70685D01*
D02*
G37*
G36*
X575945Y335407D02*
X567992D01*
X568392Y333395D01*
X570612Y330074D01*
X573933Y327854D01*
X575945Y327454D01*
Y335407D01*
D02*
G37*
G36*
X587708D02*
X579755D01*
Y327454D01*
X581767Y327854D01*
X585088Y330074D01*
X587308Y333395D01*
X587708Y335407D01*
D02*
G37*
G36*
X548520Y303664D02*
X528440D01*
Y283584D01*
X548520D01*
Y303664D01*
D02*
G37*
G36*
X62104Y311182D02*
X42024D01*
Y291102D01*
X62104D01*
Y311182D01*
D02*
G37*
G36*
X575945Y347170D02*
X573933Y346769D01*
X570612Y344550D01*
X568392Y341229D01*
X567992Y339217D01*
X575945D01*
Y347170D01*
D02*
G37*
G36*
X145669Y368427D02*
X138889D01*
X139200Y366863D01*
X141165Y363923D01*
X144105Y361958D01*
X145669Y361647D01*
Y368427D01*
D02*
G37*
G36*
X156259D02*
X149479D01*
Y361647D01*
X151043Y361958D01*
X153983Y363923D01*
X155948Y366863D01*
X156259Y368427D01*
D02*
G37*
G36*
X579755Y347170D02*
Y339217D01*
X587708D01*
X587308Y341229D01*
X585088Y344550D01*
X581767Y346769D01*
X579755Y347170D01*
D02*
G37*
G36*
X257905Y361685D02*
Y354905D01*
X264685D01*
X264374Y356469D01*
X262409Y359409D01*
X259469Y361374D01*
X257905Y361685D01*
D02*
G37*
G36*
X582549Y166419D02*
Y159639D01*
X589329D01*
X589018Y161203D01*
X587053Y164143D01*
X584113Y166108D01*
X582549Y166419D01*
D02*
G37*
G36*
X114095Y182095D02*
X107315D01*
X107626Y180531D01*
X109591Y177591D01*
X112531Y175626D01*
X114095Y175315D01*
Y182095D01*
D02*
G37*
G36*
X589329Y155829D02*
X582549D01*
Y149049D01*
X584113Y149360D01*
X587053Y151325D01*
X589018Y154265D01*
X589329Y155829D01*
D02*
G37*
G36*
X578739Y166419D02*
X577175Y166108D01*
X574235Y164143D01*
X572270Y161203D01*
X571959Y159639D01*
X578739D01*
Y166419D01*
D02*
G37*
G36*
X138430Y191944D02*
X134961Y191254D01*
X132021Y189289D01*
X130056Y186349D01*
X129866Y185396D01*
X129644D01*
Y185396D01*
X124787D01*
X125065Y184000D01*
X124686Y182095D01*
X117905D01*
Y175315D01*
X119469Y175626D01*
X122409Y177591D01*
X124374Y180531D01*
X124564Y181483D01*
X124786D01*
Y181483D01*
X129644D01*
X130056Y179411D01*
X132021Y176471D01*
X134961Y174506D01*
X138430Y173816D01*
X141899Y174506D01*
X144839Y176471D01*
X146804Y179411D01*
X147494Y182880D01*
X146804Y186349D01*
X144839Y189289D01*
X141899Y191254D01*
X138430Y191944D01*
D02*
G37*
G36*
X114095Y209685D02*
X112531Y209374D01*
X109591Y207409D01*
X107626Y204469D01*
X107315Y202905D01*
X114095D01*
Y209685D01*
D02*
G37*
G36*
X117905D02*
Y202905D01*
X124685D01*
X124374Y204469D01*
X122409Y207409D01*
X119469Y209374D01*
X117905Y209685D01*
D02*
G37*
G36*
X124685Y199095D02*
X107315D01*
X107626Y197531D01*
X109591Y194591D01*
X109591Y194591D01*
X112531Y192626D01*
X109591Y190409D01*
Y190409D01*
X109591Y190409D01*
X109591D01*
X107626Y187469D01*
X107315Y185905D01*
X124685D01*
X124374Y187469D01*
X122409Y190409D01*
X119469Y192374D01*
X122409Y194591D01*
X122409Y194591D01*
Y194591D01*
X122409Y194591D01*
X122409Y194591D01*
X122409Y194591D01*
X122409Y194591D01*
D01*
X124374Y197531D01*
X124685Y199095D01*
D02*
G37*
G36*
X27905Y202685D02*
Y195905D01*
X34685D01*
X34374Y197469D01*
X32409Y200409D01*
X29469Y202374D01*
X27905Y202685D01*
D02*
G37*
%LPD*%
D34*
X380492Y-18542D02*
X387350Y-25400D01*
X380492Y-18542D02*
Y154940D01*
X201422Y222758D02*
X243840Y265176D01*
X208990Y315990D02*
X242570D01*
X163000Y287460D02*
X204230Y328690D01*
X163000Y219000D02*
Y287460D01*
X354000Y329000D02*
X354430Y328570D01*
X186000Y293000D02*
X208990Y315990D01*
X275458Y145542D02*
X297000Y124000D01*
X201422Y193548D02*
Y222758D01*
X186000Y192278D02*
Y293000D01*
X121158Y113284D02*
X201422Y193548D01*
X136470Y142748D02*
X186000Y192278D01*
X113030Y142748D02*
X136470D01*
X108204Y137922D02*
X113030Y142748D01*
X179040Y21580D02*
X184150Y16470D01*
X308430Y97430D02*
Y131853D01*
X288036Y152247D02*
X308430Y131853D01*
X354000Y329000D02*
Y344094D01*
X240030Y299974D02*
X243000Y297004D01*
Y284799D02*
Y297004D01*
Y284799D02*
X258572Y269227D01*
X204230Y328690D02*
X254000D01*
X258572Y239688D02*
Y269227D01*
Y239688D02*
X275458Y222802D01*
Y145542D02*
Y222802D01*
X288036Y152247D02*
Y216408D01*
X354000Y344094D02*
X363220Y353314D01*
X402892Y349892D02*
X463430D01*
X476250Y362712D01*
X393446D02*
X450850D01*
X363220Y353314D02*
X384048D01*
X393446Y362712D01*
X501650D02*
X514470Y349892D01*
X532261D01*
X539630Y342523D01*
Y328556D02*
Y342523D01*
X257000Y46000D02*
X308430Y97430D01*
X121158Y94996D02*
Y113284D01*
X102190Y94970D02*
X114160Y83000D01*
X58928Y52578D02*
Y53340D01*
X244856Y178816D02*
Y232410D01*
X114160Y83000D02*
X149040D01*
X244856Y178816D01*
X228832Y74168D02*
X257000Y46000D01*
X80518Y74168D02*
X228832D01*
X187970Y46980D02*
X260350Y-25400D01*
X179040Y46980D02*
X187970D01*
Y21580D02*
X234950Y-25400D01*
X179040Y21580D02*
X187970D01*
X369062Y316062D02*
Y316230D01*
Y316062D02*
X402892Y349892D01*
X58928Y52578D02*
X80518Y74168D01*
D35*
X215138Y354076D02*
X254924D01*
X256000Y353000D01*
X6858Y29972D02*
Y230536D01*
Y29972D02*
X29972Y6858D01*
X149098D01*
X6858Y230536D02*
X52064Y275742D01*
X285750Y-25400D02*
Y6096D01*
X279846Y12000D02*
X285750Y6096D01*
X264000Y12000D02*
X279846D01*
X285750Y-25400D02*
X311150D01*
X256000Y353000D02*
X283521D01*
X344678Y291842D01*
X377187Y259334D02*
X387854Y248666D01*
X362277Y259334D02*
X377187D01*
X344678Y276933D02*
Y291842D01*
Y276933D02*
X362277Y259334D01*
X387854Y248666D02*
X422398Y214122D01*
X524256D01*
X580644Y157734D01*
D36*
X184150Y-25400D02*
Y254D01*
X149098Y6858D02*
X177546D01*
X184150Y254D01*
X348488Y301498D02*
X359255D01*
X293000Y60000D02*
Y64490D01*
X311000Y73510D02*
X324612Y87122D01*
X293000Y64490D02*
X318262Y89752D01*
Y135382D01*
X296291Y157353D02*
X318262Y135382D01*
X324612Y87122D02*
Y138938D01*
X303022Y160528D02*
X324612Y138938D01*
X242570Y340120D02*
X261098D01*
X272796Y248666D02*
X279937Y241525D01*
X251460Y287115D02*
Y302260D01*
X267430Y318230D01*
X261098Y340120D02*
X267430Y333788D01*
Y318230D02*
Y333788D01*
X303022Y160528D02*
Y207518D01*
X296291Y157353D02*
Y210058D01*
X359255Y301498D02*
X361898Y298855D01*
X367538Y272034D02*
Y272331D01*
X364529Y305205D02*
X373471D01*
X361898Y298855D02*
X376102D01*
X467743Y337312D02*
X476250D01*
X494284D02*
X501650D01*
X462214Y322803D02*
X479775D01*
X494284Y337312D01*
X518668Y307594D02*
X539630Y328556D01*
X503682Y313944D02*
X527050Y337312D01*
X467868Y307594D02*
X518668D01*
X446532Y332994D02*
X450850Y337312D01*
X461058Y312667D02*
X462335Y313944D01*
X455798Y325367D02*
X467743Y337312D01*
X458428Y319017D02*
X462214Y322803D01*
X466591Y306317D02*
X467868Y307594D01*
X455415Y306317D02*
X466591D01*
X401260Y332994D02*
X446532D01*
X402614Y325367D02*
X455798D01*
X405244Y319017D02*
X458428D01*
X407874Y312667D02*
X461058D01*
X373471Y305205D02*
X401260Y332994D01*
X376102Y298855D02*
X402614Y325367D01*
X373247Y287020D02*
X405244Y319017D01*
X367538Y272331D02*
X407874Y312667D01*
X462335Y313944D02*
X503682D01*
X444246Y295148D02*
X455415Y306317D01*
X444246Y244856D02*
Y295148D01*
X438912Y239522D02*
X444246Y244856D01*
X524764Y139954D02*
Y165608D01*
X311000Y61000D02*
Y73510D01*
X184150Y-25400D02*
X209550D01*
X296291Y210058D02*
X304927Y218694D01*
X303022Y207518D02*
X307848Y212344D01*
X360934D01*
X288036Y216408D02*
X299466Y227838D01*
X304927Y218694D02*
X338582D01*
X343408Y223520D01*
X357378Y287020D02*
X373247D01*
X348488Y301498D02*
X350774Y303784D01*
X355245Y314579D02*
X361569Y308255D01*
Y308165D02*
Y308255D01*
Y308165D02*
X364529Y305205D01*
X338582Y315976D02*
X339979Y314579D01*
X355245D01*
X328939Y251079D02*
X365633D01*
X360934Y211328D02*
Y212344D01*
X363003Y244729D02*
X413422Y194310D01*
X501904Y188468D02*
X524764Y165608D01*
X413422Y194310D02*
X454660D01*
X476250Y188468D02*
X501904D01*
X458851Y205867D02*
X476250Y188468D01*
X410845Y205867D02*
X458851D01*
X365633Y251079D02*
X410845Y205867D01*
X251460Y287115D02*
X290066Y248510D01*
X326370D01*
X299466Y227838D02*
X328676D01*
X279937Y241525D02*
X328365D01*
X331569Y244729D01*
X363003D01*
X326370Y248510D02*
X328939Y251079D01*
X354457Y234823D02*
X355854Y233426D01*
X328676Y227838D02*
X335661Y234823D01*
X354457D01*
D40*
X380492Y154940D02*
D03*
D41*
X450850Y337312D02*
D03*
X476250D02*
D03*
X501650D02*
D03*
X527050D02*
D03*
X179040Y46980D02*
D03*
X450850Y362712D02*
D03*
X476250D02*
D03*
X501650D02*
D03*
X52064Y275742D02*
D03*
X577850Y337312D02*
D03*
D43*
X387350Y-25400D02*
D03*
X311150D02*
D03*
X285750D02*
D03*
X260350D02*
D03*
X234950D02*
D03*
X209550D02*
D03*
X294640Y124206D02*
D03*
X338328Y144780D02*
D03*
X272796Y248666D02*
D03*
X244856Y232410D02*
D03*
X26000Y194000D02*
D03*
X242570Y340120D02*
D03*
X108204Y137922D02*
D03*
X257000Y46000D02*
D03*
X335500Y62000D02*
D03*
X102190Y94970D02*
D03*
X243840Y265176D02*
D03*
X163000Y219000D02*
D03*
X147574Y370332D02*
D03*
X116000Y184000D02*
D03*
Y201000D02*
D03*
X240030Y299974D02*
D03*
X256000Y328000D02*
D03*
Y353000D02*
D03*
X242570Y315990D02*
D03*
X354000Y329000D02*
D03*
X524764Y139954D02*
D03*
X343408Y223520D02*
D03*
X438912Y239522D02*
D03*
X454660Y194310D02*
D03*
X580644Y157734D02*
D03*
X528828Y80264D02*
D03*
X264000Y12000D02*
D03*
X311000Y61000D02*
D03*
X293000Y60000D02*
D03*
X121158Y94996D02*
D03*
X117602Y54356D02*
D03*
X58928Y53340D02*
D03*
X357378Y287020D02*
D03*
X350774Y303784D02*
D03*
X369062Y316230D02*
D03*
X338582Y315976D02*
D03*
X367538Y272034D02*
D03*
X355854Y233426D02*
D03*
X360934Y211328D02*
D03*
X184150Y-25400D02*
D03*
D46*
X179040Y21580D02*
D03*
M02*
