%FSLAX44Y44*%
%MOMM*%
G71*
G01*
G75*
%ADD10C,0.2540*%
%ADD11R,1.1000X1.7000*%
%ADD12R,1.7000X1.1000*%
%ADD13R,2.0000X0.9000*%
%ADD14R,0.9000X2.0000*%
%ADD15R,1.3300X1.3300*%
%ADD16R,0.4000X1.0500*%
%ADD17R,0.8000X1.9000*%
%ADD18R,1.0000X1.7000*%
%ADD19R,1.9000X0.8000*%
%ADD20R,1.7000X1.0000*%
%ADD21R,2.6000X1.1000*%
%ADD22R,1.1000X2.6000*%
%ADD23R,1.1500X0.6000*%
%ADD24R,0.6000X1.1500*%
G04:AMPARAMS|DCode=25|XSize=1.97mm|YSize=0.89mm|CornerRadius=0.1113mm|HoleSize=0mm|Usage=FLASHONLY|Rotation=270.000|XOffset=0mm|YOffset=0mm|HoleType=Round|Shape=RoundedRectangle|*
%AMROUNDEDRECTD25*
21,1,1.9700,0.6675,0,0,270.0*
21,1,1.7475,0.8900,0,0,270.0*
1,1,0.2225,-0.3337,-0.8738*
1,1,0.2225,-0.3337,0.8738*
1,1,0.2225,0.3337,0.8738*
1,1,0.2225,0.3337,-0.8738*
%
%ADD25ROUNDEDRECTD25*%
G04:AMPARAMS|DCode=26|XSize=1.97mm|YSize=3.19mm|CornerRadius=0.2463mm|HoleSize=0mm|Usage=FLASHONLY|Rotation=270.000|XOffset=0mm|YOffset=0mm|HoleType=Round|Shape=RoundedRectangle|*
%AMROUNDEDRECTD26*
21,1,1.9700,2.6975,0,0,270.0*
21,1,1.4775,3.1900,0,0,270.0*
1,1,0.4925,-1.3487,-0.7388*
1,1,0.4925,-1.3487,0.7388*
1,1,0.4925,1.3487,0.7388*
1,1,0.4925,1.3487,-0.7388*
%
%ADD26ROUNDEDRECTD26*%
%ADD27R,0.6000X1.1500*%
%ADD28R,2.0000X4.2000*%
%ADD29R,1.2700X0.5080*%
%ADD30R,0.3810X0.3810*%
%ADD31O,0.6000X2.2000*%
%ADD32R,0.9144X0.9144*%
%ADD33R,0.9144X1.2700*%
%ADD34C,0.5080*%
%ADD35C,0.7620*%
%ADD36C,0.3810*%
%ADD37C,0.3048*%
%ADD38R,2.0320X8.2804*%
%ADD39R,3.9833X12.6746*%
%ADD40P,1.6496X8X112.5*%
%ADD41C,1.5000*%
%ADD42R,1.5000X1.5000*%
%ADD43C,1.2700*%
%ADD44O,1.7000X1.1000*%
%ADD45O,2.0000X4.0000*%
%ADD46R,1.5000X1.5000*%
%ADD47P,2.1648X8X112.5*%
%ADD48C,4.0000*%
%ADD49R,1.7780X1.0160*%
%ADD50R,1.2016X1.8016*%
%ADD51R,1.8016X1.2016*%
%ADD52R,2.1016X1.0016*%
%ADD53R,1.0016X2.1016*%
%ADD54R,1.4316X1.4316*%
%ADD55R,0.9016X2.0016*%
%ADD56R,1.1016X1.8016*%
%ADD57R,2.0016X0.9016*%
%ADD58R,1.8016X1.1016*%
%ADD59R,2.7016X1.2016*%
%ADD60R,1.2016X2.7016*%
%ADD61R,1.2516X0.7016*%
%ADD62R,0.7016X1.2516*%
G04:AMPARAMS|DCode=63|XSize=2.0716mm|YSize=0.9916mm|CornerRadius=0.1621mm|HoleSize=0mm|Usage=FLASHONLY|Rotation=270.000|XOffset=0mm|YOffset=0mm|HoleType=Round|Shape=RoundedRectangle|*
%AMROUNDEDRECTD63*
21,1,2.0716,0.6675,0,0,270.0*
21,1,1.7475,0.9916,0,0,270.0*
1,1,0.3241,-0.3337,-0.8738*
1,1,0.3241,-0.3337,0.8738*
1,1,0.3241,0.3337,0.8738*
1,1,0.3241,0.3337,-0.8738*
%
%ADD63ROUNDEDRECTD63*%
G04:AMPARAMS|DCode=64|XSize=2.0716mm|YSize=3.2916mm|CornerRadius=0.297mm|HoleSize=0mm|Usage=FLASHONLY|Rotation=270.000|XOffset=0mm|YOffset=0mm|HoleType=Round|Shape=RoundedRectangle|*
%AMROUNDEDRECTD64*
21,1,2.0716,2.6975,0,0,270.0*
21,1,1.4775,3.2916,0,0,270.0*
1,1,0.5941,-1.3487,-0.7388*
1,1,0.5941,-1.3487,0.7388*
1,1,0.5941,1.3487,0.7388*
1,1,0.5941,1.3487,-0.7388*
%
%ADD64ROUNDEDRECTD64*%
%ADD65R,0.7016X1.2516*%
%ADD66R,2.1016X4.3016*%
%ADD67R,1.3716X0.6096*%
%ADD68O,0.7016X2.3016*%
%ADD69R,1.0160X1.0160*%
%ADD70R,1.0160X1.3716*%
%ADD71P,1.7595X8X112.5*%
%ADD72C,1.6016*%
%ADD73R,1.6016X1.6016*%
%ADD74C,1.3716*%
%ADD75O,1.8016X1.2016*%
%ADD76O,2.1016X4.1016*%
%ADD77R,1.6016X1.6016*%
%ADD78P,2.2748X8X112.5*%
%ADD79C,4.1016*%
%ADD80C,0.1016*%
%ADD81C,0.1270*%
%ADD82C,0.1693*%
D81*
X375412Y154940D02*
X385572D01*
X380492Y149860D02*
Y160020D01*
X446350Y337312D02*
X455350D01*
X450850Y332812D02*
Y341812D01*
X471750Y337312D02*
X480750D01*
X476250Y332812D02*
Y341812D01*
X497150Y337312D02*
X506150D01*
X501650Y332812D02*
Y341812D01*
X522550Y337312D02*
X531550D01*
X527050Y332812D02*
Y341812D01*
X547950Y337312D02*
X556950D01*
X552450Y332812D02*
Y341812D01*
X291300Y323760D02*
X298300D01*
X294800Y320260D02*
Y327260D01*
X323210Y291850D02*
X330210D01*
X326710Y288350D02*
Y295350D01*
X291300Y259940D02*
X298300D01*
X294800Y256440D02*
Y263440D01*
X259390Y291850D02*
X266390D01*
X262890Y288350D02*
Y295350D01*
X92860Y367570D02*
X99860D01*
X96360Y364070D02*
Y371070D01*
X72860Y367570D02*
X79860D01*
X76360Y364070D02*
Y371070D01*
X111860Y346470D02*
X124860D01*
X118360Y339970D02*
Y352970D01*
X47860Y346470D02*
X60860D01*
X54360Y339970D02*
Y352970D01*
X174540Y21580D02*
X183540D01*
X179040Y17080D02*
Y26080D01*
X174540Y46980D02*
X183540D01*
X179040Y42480D02*
Y51480D01*
X446350Y362712D02*
X455350D01*
X450850Y358212D02*
Y367212D01*
X471750Y362712D02*
X480750D01*
X476250Y358212D02*
Y367212D01*
X497150Y362712D02*
X506150D01*
X501650Y358212D02*
Y367212D01*
X522550Y362712D02*
X531550D01*
X527050Y358212D02*
Y367212D01*
X547950Y362712D02*
X556950D01*
X552450Y358212D02*
Y367212D01*
X47564Y301142D02*
X56564D01*
X52064Y296642D02*
Y305642D01*
X47564Y275742D02*
X56564D01*
X52064Y271242D02*
Y280242D01*
X457780Y293624D02*
X466780D01*
X462280Y289124D02*
Y298124D01*
X483180Y293624D02*
X492180D01*
X487680Y289124D02*
Y298124D01*
X508580Y293624D02*
X517580D01*
X513080Y289124D02*
Y298124D01*
X533980Y293624D02*
X542980D01*
X538480Y289124D02*
Y298124D01*
X527376Y19812D02*
X536376D01*
X531876Y15312D02*
Y24312D01*
X286800Y291850D02*
X302800D01*
X294800Y283850D02*
Y299850D01*
X573350Y362712D02*
X582350D01*
X577850Y358212D02*
Y367212D01*
X573350Y337312D02*
X582350D01*
X577850Y332812D02*
Y341812D01*
X383850Y-25400D02*
X390850D01*
X387350Y-28900D02*
Y-21900D01*
X358450Y-25400D02*
X365450D01*
X361950Y-28900D02*
Y-21900D01*
X333050Y-25400D02*
X340050D01*
X336550Y-28900D02*
Y-21900D01*
X307650Y-25400D02*
X314650D01*
X311150Y-28900D02*
Y-21900D01*
X282250Y-25400D02*
X289250D01*
X285750Y-28900D02*
Y-21900D01*
X256850Y-25400D02*
X263850D01*
X260350Y-28900D02*
Y-21900D01*
X231450Y-25400D02*
X238450D01*
X234950Y-28900D02*
Y-21900D01*
X206050Y-25400D02*
X213050D01*
X209550Y-28900D02*
Y-21900D01*
X409250Y-25400D02*
X416250D01*
X412750Y-28900D02*
Y-21900D01*
X291140Y124206D02*
X298140D01*
X294640Y120706D02*
Y127706D01*
X334828Y144780D02*
X341828D01*
X338328Y141280D02*
Y148280D01*
X269296Y248666D02*
X276296D01*
X272796Y245166D02*
Y252166D01*
X241356Y232410D02*
X248356D01*
X244856Y228910D02*
Y235910D01*
X22500Y194000D02*
X29500D01*
X26000Y190500D02*
Y197500D01*
X22500Y172000D02*
X29500D01*
X26000Y168500D02*
Y175500D01*
X239070Y340120D02*
X246070D01*
X242570Y336620D02*
Y343620D01*
X104704Y137922D02*
X111704D01*
X108204Y134422D02*
Y141422D01*
X253500Y46000D02*
X260500D01*
X257000Y42500D02*
Y49500D01*
X332000Y62000D02*
X339000D01*
X335500Y58500D02*
Y65500D01*
X229250Y187500D02*
X236250D01*
X232750Y184000D02*
Y191000D01*
X355500Y62000D02*
X362500D01*
X359000Y58500D02*
Y65500D01*
X134930Y182880D02*
X141930D01*
X138430Y179380D02*
Y186380D01*
X98690Y94970D02*
X105690D01*
X102190Y91470D02*
Y98470D01*
X240340Y265176D02*
X247340D01*
X243840Y261676D02*
Y268676D01*
X142080Y280670D02*
X149080D01*
X145580Y277170D02*
Y284170D01*
X159500Y219000D02*
X166500D01*
X163000Y215500D02*
Y222500D01*
X144074Y370332D02*
X151074D01*
X147574Y366832D02*
Y373832D01*
X112500Y184000D02*
X119500D01*
X116000Y180500D02*
Y187500D01*
X112500Y201000D02*
X119500D01*
X116000Y197500D02*
Y204500D01*
X236530Y299974D02*
X243530D01*
X240030Y296474D02*
Y303474D01*
X252500Y328000D02*
X259500D01*
X256000Y324500D02*
Y331500D01*
X239070Y366790D02*
X246070D01*
X242570Y363290D02*
Y370290D01*
X252500Y353000D02*
X259500D01*
X256000Y349500D02*
Y356500D01*
X239070Y315990D02*
X246070D01*
X242570Y312490D02*
Y319490D01*
X364500Y367000D02*
X371500D01*
X368000Y363500D02*
Y370500D01*
X365500Y340000D02*
X372500D01*
X369000Y336500D02*
Y343500D01*
X350500Y329000D02*
X357500D01*
X354000Y325500D02*
Y332500D01*
X521264Y139954D02*
X528264D01*
X524764Y136454D02*
Y143454D01*
X339908Y223520D02*
X346908D01*
X343408Y220020D02*
Y227020D01*
X435412Y239522D02*
X442412D01*
X438912Y236022D02*
Y243022D01*
X451160Y194310D02*
X458160D01*
X454660Y190810D02*
Y197810D01*
X547680Y156718D02*
X554680D01*
X551180Y153218D02*
Y160218D01*
X577144Y157734D02*
X584144D01*
X580644Y154234D02*
Y161234D01*
X525328Y80264D02*
X532328D01*
X528828Y76764D02*
Y83764D01*
X495864Y79248D02*
X502864D01*
X499364Y75748D02*
Y82748D01*
X260500Y12000D02*
X267500D01*
X264000Y8500D02*
Y15500D01*
X307500Y61000D02*
X314500D01*
X311000Y57500D02*
Y64500D01*
X289500Y60000D02*
X296500D01*
X293000Y56500D02*
Y63500D01*
X117658Y94996D02*
X124658D01*
X121158Y91496D02*
Y98496D01*
X114102Y54356D02*
X121102D01*
X117602Y50856D02*
Y57856D01*
X55682Y29718D02*
X62682D01*
X59182Y26218D02*
Y33218D01*
X55428Y53340D02*
X62428D01*
X58928Y49840D02*
Y56840D01*
X353878Y287020D02*
X360878D01*
X357378Y283520D02*
Y290520D01*
X347274Y303784D02*
X354274D01*
X350774Y300284D02*
Y307284D01*
X365562Y316230D02*
X372562D01*
X369062Y312730D02*
Y319730D01*
X335082Y315976D02*
X342082D01*
X338582Y312476D02*
Y319476D01*
X364038Y272034D02*
X371038D01*
X367538Y268534D02*
Y275534D01*
X352354Y233426D02*
X359354D01*
X355854Y229926D02*
Y236926D01*
X357434Y211328D02*
X364434D01*
X360934Y207828D02*
Y214828D01*
X180650Y-25400D02*
X187650D01*
X184150Y-28900D02*
Y-21900D01*
M02*
