%FSLAX44Y44*%
%MOMM*%
G71*
G01*
G75*
G04 Layer_Physical_Order=2*
G04 Layer_Color=36540*
%ADD10C,0.1270*%
%ADD11C,1.5240*%
%ADD12C,1.2700*%
G36*
X-42029Y200941D02*
X-41973Y200827D01*
X-41956Y200701D01*
X-39937Y194855D01*
X-39810Y194637D01*
X-39737Y194396D01*
X-36841Y188931D01*
X-36682Y188735D01*
X-36573Y188508D01*
X-32869Y183555D01*
X-32682Y183386D01*
X-32539Y183178D01*
X-28116Y178855D01*
X-27905Y178717D01*
X-27732Y178534D01*
X-22695Y174945D01*
X-22465Y174841D01*
X-22266Y174687D01*
X-16736Y171917D01*
X-16493Y171850D01*
X-16272Y171728D01*
X-10381Y169844D01*
X-10131Y169815D01*
X-9894Y169728D01*
X-3783Y168775D01*
X-3531Y168785D01*
X-3284Y168736D01*
X2901D01*
X3149Y168785D01*
X3401Y168775D01*
X9512Y169728D01*
X9748Y169815D01*
X9999Y169844D01*
X15890Y171728D01*
X16110Y171850D01*
X16353Y171917D01*
X21883Y174687D01*
X22083Y174841D01*
X22312Y174945D01*
X27349Y178534D01*
X27522Y178717D01*
X27733Y178855D01*
X32157Y183178D01*
X32299Y183386D01*
X32487Y183555D01*
X36191Y188508D01*
X36300Y188735D01*
X36459Y188931D01*
X39355Y194396D01*
X39427Y194637D01*
X39555Y194855D01*
X41574Y200701D01*
X41591Y200827D01*
X41646Y200941D01*
X64676Y289232D01*
X78261Y285925D01*
X94590Y280940D01*
X98768Y279397D01*
X99309Y274346D01*
X97436Y273153D01*
X95206Y270718D01*
X93681Y267789D01*
X93244Y265816D01*
X105680Y264728D01*
D01*
X118111Y263641D01*
X118022Y265660D01*
X117626Y266916D01*
X121404Y270313D01*
X126255Y268197D01*
X141484Y260481D01*
X156246Y251902D01*
X170490Y242488D01*
X184168Y232271D01*
X197236Y221284D01*
X209651Y209563D01*
X221371Y197149D01*
X232358Y184080D01*
X242575Y170402D01*
X251989Y156159D01*
X260568Y141397D01*
X267208Y128292D01*
X264093Y124278D01*
X262362Y124662D01*
X259064Y124518D01*
X255915Y123525D01*
X254210Y122439D01*
X262235Y112876D01*
D01*
X270256Y103317D01*
X271621Y104807D01*
X272000Y105536D01*
X277070Y105216D01*
X281028Y94503D01*
X286013Y78174D01*
X289379Y64343D01*
X284588Y62660D01*
X284415Y62558D01*
X284221Y62505D01*
X277047Y58942D01*
X276888Y58819D01*
X276701Y58743D01*
X270021Y54324D01*
X269877Y54182D01*
X269702Y54084D01*
X263615Y48877D01*
X263491Y48719D01*
X263329Y48600D01*
X257929Y42684D01*
X257825Y42511D01*
X257679Y42373D01*
X253047Y35838D01*
X252965Y35654D01*
X252837Y35499D01*
X249044Y28444D01*
X248986Y28251D01*
X248878Y28081D01*
X245982Y20613D01*
X245947Y20415D01*
X245861Y20233D01*
X243905Y12466D01*
X243895Y12265D01*
X243832Y12074D01*
X242847Y4125D01*
X242861Y3924D01*
X242822Y3726D01*
Y-4284D01*
X242861Y-4481D01*
X242847Y-4682D01*
X243832Y-12631D01*
X243895Y-12822D01*
X243905Y-13023D01*
X245861Y-20790D01*
X245947Y-20972D01*
X245982Y-21170D01*
X248878Y-28638D01*
X248986Y-28808D01*
X249044Y-29001D01*
X252837Y-36056D01*
X252965Y-36211D01*
X253047Y-36395D01*
X257679Y-42930D01*
X257825Y-43068D01*
X257929Y-43241D01*
X263329Y-49157D01*
X263491Y-49276D01*
X263615Y-49434D01*
X269702Y-54641D01*
X269877Y-54739D01*
X270021Y-54881D01*
X276701Y-59300D01*
X276888Y-59376D01*
X277047Y-59499D01*
X284221Y-63062D01*
X284415Y-63115D01*
X284588Y-63218D01*
X289379Y-64900D01*
X286013Y-78731D01*
X281028Y-95060D01*
X279979Y-97898D01*
X274928Y-98439D01*
X273984Y-96957D01*
X271550Y-94726D01*
X268621Y-93202D01*
X266648Y-92764D01*
X265560Y-105200D01*
D01*
X264473Y-117631D01*
X266492Y-117543D01*
X267365Y-117268D01*
X270762Y-121045D01*
X268284Y-126724D01*
X260568Y-141954D01*
X251989Y-156716D01*
X242575Y-170959D01*
X232358Y-184638D01*
X221371Y-197706D01*
X209651Y-210121D01*
X197236Y-221841D01*
X184168Y-232828D01*
X170490Y-243045D01*
X156246Y-252459D01*
X141484Y-261038D01*
X129057Y-267334D01*
X128671Y-267133D01*
X124967Y-264258D01*
X125494Y-261883D01*
X125350Y-258584D01*
X124357Y-255435D01*
X123271Y-253731D01*
X113708Y-261755D01*
D01*
X104149Y-269776D01*
X105639Y-271142D01*
X107125Y-271915D01*
X106805Y-276985D01*
X94590Y-281497D01*
X78261Y-286483D01*
X64430Y-289849D01*
X62748Y-285058D01*
X62645Y-284885D01*
X62593Y-284690D01*
X59029Y-277517D01*
X58906Y-277357D01*
X58830Y-277171D01*
X54412Y-270490D01*
X54270Y-270347D01*
X54171Y-270172D01*
X48965Y-264085D01*
X48806Y-263961D01*
X48687Y-263799D01*
X42771Y-258398D01*
X42599Y-258294D01*
X42460Y-258148D01*
X35925Y-253517D01*
X35742Y-253435D01*
X35586Y-253307D01*
X28531Y-249514D01*
X28339Y-249455D01*
X28169Y-249347D01*
X20701Y-246451D01*
X20502Y-246417D01*
X20321Y-246330D01*
X12553Y-244375D01*
X12352Y-244365D01*
X12161Y-244302D01*
X4212Y-243316D01*
X4011Y-243331D01*
X3814Y-243292D01*
X-4196D01*
X-4394Y-243331D01*
X-4594Y-243316D01*
X-12543Y-244302D01*
X-12734Y-244365D01*
X-12935Y-244375D01*
X-20703Y-246330D01*
X-20885Y-246417D01*
X-21083Y-246451D01*
X-28551Y-249347D01*
X-28721Y-249455D01*
X-28913Y-249514D01*
X-35969Y-253307D01*
X-36124Y-253435D01*
X-36308Y-253517D01*
X-42843Y-258148D01*
X-42981Y-258294D01*
X-43153Y-258398D01*
X-49069Y-263799D01*
X-49189Y-263961D01*
X-49347Y-264085D01*
X-54554Y-270172D01*
X-54652Y-270347D01*
X-54794Y-270490D01*
X-59212Y-277171D01*
X-59289Y-277357D01*
X-59412Y-277517D01*
X-62975Y-284690D01*
X-63028Y-284885D01*
X-63130Y-285058D01*
X-64813Y-289849D01*
X-78643Y-286483D01*
X-94973Y-281497D01*
X-105613Y-277567D01*
X-105358Y-276416D01*
X-106608Y-276139D01*
X-105631Y-264970D01*
X-116800Y-263993D01*
X-116712Y-266012D01*
X-115970Y-268363D01*
X-119628Y-271652D01*
X-119777Y-271747D01*
X-126637Y-268754D01*
X-141867Y-261038D01*
X-156628Y-252459D01*
X-170872Y-243045D01*
X-184550Y-232828D01*
X-197619Y-221841D01*
X-210033Y-210121D01*
X-221754Y-197706D01*
X-232741Y-184638D01*
X-242958Y-170959D01*
X-252372Y-156715D01*
X-260951Y-141954D01*
X-268156Y-127732D01*
X-264544Y-124160D01*
X-264275Y-124300D01*
X-261051Y-125014D01*
X-257753Y-124870D01*
X-254604Y-123877D01*
X-252899Y-122792D01*
X-260924Y-113229D01*
D01*
X-268945Y-103670D01*
X-270310Y-105160D01*
X-271724Y-107876D01*
X-273218Y-107782D01*
X-277022Y-106938D01*
X-281410Y-95060D01*
X-286395Y-78731D01*
X-289702Y-65146D01*
X-201411Y-42116D01*
X-201296Y-42061D01*
X-201171Y-42043D01*
X-195324Y-40024D01*
X-195107Y-39897D01*
X-194865Y-39825D01*
X-189400Y-36929D01*
X-189205Y-36769D01*
X-188978Y-36661D01*
X-184024Y-32957D01*
X-183856Y-32769D01*
X-183648Y-32627D01*
X-179325Y-28203D01*
X-179187Y-27992D01*
X-179004Y-27819D01*
X-175414Y-22782D01*
X-175311Y-22552D01*
X-175156Y-22353D01*
X-172386Y-16823D01*
X-172320Y-16580D01*
X-172197Y-16359D01*
X-170313Y-10468D01*
X-170285Y-10218D01*
X-170198Y-9981D01*
X-169244Y-3870D01*
X-169255Y-3618D01*
X-169206Y-3371D01*
Y2814D01*
X-169255Y3061D01*
X-169244Y3313D01*
X-170198Y9424D01*
X-170285Y9661D01*
X-170313Y9911D01*
X-172197Y15802D01*
X-172320Y16023D01*
X-172386Y16266D01*
X-175156Y21796D01*
X-175311Y21995D01*
X-175414Y22225D01*
X-179004Y27262D01*
X-179187Y27435D01*
X-179325Y27646D01*
X-183648Y32069D01*
X-183856Y32212D01*
X-184024Y32399D01*
X-188978Y36104D01*
X-189205Y36212D01*
X-189400Y36371D01*
X-194865Y39268D01*
X-195107Y39340D01*
X-195324Y39467D01*
X-201171Y41486D01*
X-201296Y41504D01*
X-201411Y41559D01*
X-289702Y64589D01*
X-286395Y78174D01*
X-281410Y94503D01*
X-279541Y99561D01*
X-274463Y99438D01*
X-274447Y99389D01*
X-272673Y96605D01*
X-270239Y94374D01*
X-267310Y92849D01*
X-265337Y92412D01*
X-264249Y104848D01*
D01*
X-263162Y117279D01*
X-265180Y117191D01*
X-267914Y116329D01*
X-269626Y118233D01*
X-271111Y120564D01*
X-268666Y126167D01*
X-260951Y141397D01*
X-252372Y156158D01*
X-242958Y170402D01*
X-232741Y184080D01*
X-221754Y197149D01*
X-210033Y209564D01*
X-197619Y221284D01*
X-184550Y232271D01*
X-170872Y242488D01*
X-156628Y251902D01*
X-141867Y260481D01*
X-128382Y267313D01*
X-123986Y265024D01*
X-123493Y264641D01*
X-124183Y261531D01*
X-124039Y258232D01*
X-123046Y255083D01*
X-121960Y253379D01*
X-112397Y261403D01*
D01*
X-102838Y269424D01*
X-104328Y270789D01*
X-106287Y271809D01*
X-105967Y276879D01*
X-94973Y280940D01*
X-78643Y285925D01*
X-65058Y289232D01*
X-42029Y200941D01*
D02*
G37*
%LPC*%
G36*
X228322Y-62020D02*
X223844D01*
X223487Y-62091D01*
X223123Y-62101D01*
X218757Y-63098D01*
X218425Y-63246D01*
X218073Y-63337D01*
X214038Y-65280D01*
X213747Y-65499D01*
X213424Y-65666D01*
X209923Y-68458D01*
X209688Y-68736D01*
X209410Y-68971D01*
X206618Y-72472D01*
X206451Y-72796D01*
X206232Y-73086D01*
X204289Y-77121D01*
X204198Y-77473D01*
X204049Y-77806D01*
X203053Y-82172D01*
X203043Y-82535D01*
X202972Y-82892D01*
Y-87371D01*
X203043Y-87727D01*
X203053Y-88091D01*
X204049Y-92457D01*
X204198Y-92789D01*
X204289Y-93141D01*
X206232Y-97177D01*
X206451Y-97467D01*
X206618Y-97790D01*
X209410Y-101292D01*
X209688Y-101527D01*
X209923Y-101805D01*
X213424Y-104597D01*
X213747Y-104764D01*
X214038Y-104983D01*
X218073Y-106926D01*
X218425Y-107017D01*
X218757Y-107165D01*
X223123Y-108162D01*
X223487Y-108172D01*
X223844Y-108243D01*
X228323Y-108243D01*
X228679Y-108172D01*
X229043Y-108162D01*
X233409Y-107165D01*
X233741Y-107016D01*
X234093Y-106926D01*
X238128Y-104983D01*
X238419Y-104764D01*
X238742Y-104597D01*
X242244Y-101805D01*
X242478Y-101527D01*
X242756Y-101292D01*
X245549Y-97790D01*
X245716Y-97467D01*
X245934Y-97177D01*
X247878Y-93141D01*
X247968Y-92789D01*
X248117Y-92457D01*
X249113Y-88091D01*
X249124Y-87727D01*
X249195Y-87371D01*
X249195Y-82892D01*
X249124Y-82535D01*
X249114Y-82172D01*
X248117Y-77806D01*
X247968Y-77473D01*
X247878Y-77121D01*
X245934Y-73086D01*
X245716Y-72796D01*
X245549Y-72472D01*
X242756Y-68971D01*
X242478Y-68736D01*
X242244Y-68458D01*
X238742Y-65666D01*
X238419Y-65499D01*
X238128Y-65280D01*
X234093Y-63337D01*
X233741Y-63246D01*
X233409Y-63098D01*
X229043Y-62101D01*
X228679Y-62091D01*
X228322Y-62020D01*
D02*
G37*
G36*
X264118Y-92543D02*
X262099Y-92631D01*
X258950Y-93624D01*
X256165Y-95398D01*
X253934Y-97832D01*
X252410Y-100761D01*
X251972Y-102734D01*
X263141Y-103711D01*
X264118Y-92543D01*
D02*
G37*
G36*
X-192973Y-103249D02*
Y-110778D01*
X-185443D01*
X-185582Y-109727D01*
X-186478Y-107565D01*
X-187903Y-105708D01*
X-189760Y-104283D01*
X-191922Y-103387D01*
X-192973Y-103249D01*
D02*
G37*
G36*
X-258847Y-99814D02*
X-262145Y-99958D01*
X-265294Y-100951D01*
X-266999Y-102037D01*
X-259792Y-110625D01*
X-251204Y-103419D01*
X-252694Y-102053D01*
X-255623Y-100529D01*
X-258847Y-99814D01*
D02*
G37*
G36*
X-164776Y-95944D02*
X-172306D01*
X-172167Y-96995D01*
X-171271Y-99157D01*
X-169846Y-101014D01*
X-167989Y-102439D01*
X-165827Y-103335D01*
X-164776Y-103474D01*
Y-95944D01*
D02*
G37*
G36*
X172610Y-95064D02*
X165080D01*
Y-102593D01*
X166131Y-102455D01*
X168293Y-101559D01*
X170150Y-100134D01*
X171575Y-98277D01*
X172471Y-96115D01*
X172610Y-95064D01*
D02*
G37*
G36*
X-60681Y-93673D02*
X-61732Y-93811D01*
X-63894Y-94707D01*
X-65751Y-96132D01*
X-67176Y-97989D01*
X-68072Y-100152D01*
X-68211Y-101202D01*
X-60681D01*
Y-93673D01*
D02*
G37*
G36*
X-154706Y-95944D02*
X-162236D01*
Y-103474D01*
X-161185Y-103335D01*
X-159023Y-102439D01*
X-157166Y-101014D01*
X-155741Y-99157D01*
X-154845Y-96995D01*
X-154706Y-95944D01*
D02*
G37*
G36*
X162540Y-95064D02*
X155010D01*
X155149Y-96115D01*
X156045Y-98277D01*
X157470Y-100134D01*
X159327Y-101559D01*
X161489Y-102455D01*
X162540Y-102593D01*
Y-95064D01*
D02*
G37*
G36*
X-60681Y-103742D02*
X-68211D01*
X-68072Y-104793D01*
X-67176Y-106956D01*
X-65751Y-108813D01*
X-63894Y-110238D01*
X-61732Y-111133D01*
X-60681Y-111272D01*
Y-103742D01*
D02*
G37*
G36*
X-50612D02*
X-58141D01*
Y-111272D01*
X-57090Y-111133D01*
X-54928Y-110238D01*
X-53071Y-108813D01*
X-51646Y-106956D01*
X-50750Y-104793D01*
X-50612Y-103742D01*
D02*
G37*
G36*
X-1372Y-109565D02*
X-2423Y-109703D01*
X-4585Y-110599D01*
X-6442Y-112024D01*
X-7867Y-113881D01*
X-8763Y-116043D01*
X-8902Y-117094D01*
X-1372D01*
Y-109565D01*
D02*
G37*
G36*
X1168D02*
Y-117094D01*
X8698D01*
X8559Y-116043D01*
X7663Y-113881D01*
X6238Y-112024D01*
X4381Y-110599D01*
X2219Y-109703D01*
X1168Y-109565D01*
D02*
G37*
G36*
X57937Y-103742D02*
X50408D01*
X50546Y-104793D01*
X51442Y-106956D01*
X52867Y-108813D01*
X54724Y-110238D01*
X56886Y-111133D01*
X57937Y-111272D01*
Y-103742D01*
D02*
G37*
G36*
X195055Y-103688D02*
Y-111218D01*
X202584D01*
X202446Y-110167D01*
X201550Y-108005D01*
X200125Y-106147D01*
X198268Y-104723D01*
X196106Y-103827D01*
X195055Y-103688D01*
D02*
G37*
G36*
X-195513Y-103249D02*
X-196564Y-103387D01*
X-198726Y-104283D01*
X-200583Y-105708D01*
X-202008Y-107565D01*
X-202904Y-109727D01*
X-203042Y-110778D01*
X-195513D01*
Y-103249D01*
D02*
G37*
G36*
X68007Y-103742D02*
X60477D01*
Y-111272D01*
X61528Y-111133D01*
X63690Y-110238D01*
X65547Y-108813D01*
X66972Y-106956D01*
X67868Y-104793D01*
X68007Y-103742D01*
D02*
G37*
G36*
X192515Y-103688D02*
X191464Y-103827D01*
X189302Y-104723D01*
X187444Y-106147D01*
X186019Y-108005D01*
X185124Y-110167D01*
X184985Y-111218D01*
X192515D01*
Y-103688D01*
D02*
G37*
G36*
X-104098Y-50255D02*
X-105149Y-50394D01*
X-107312Y-51290D01*
X-109169Y-52715D01*
X-110594Y-54572D01*
X-111489Y-56734D01*
X-111628Y-57785D01*
X-104098D01*
Y-50255D01*
D02*
G37*
G36*
X-101558D02*
Y-57785D01*
X-94029D01*
X-94167Y-56734D01*
X-95063Y-54572D01*
X-96488Y-52715D01*
X-98345Y-51290D01*
X-100507Y-50394D01*
X-101558Y-50255D01*
D02*
G37*
G36*
X101354Y-60325D02*
X93825D01*
X93963Y-61376D01*
X94859Y-63538D01*
X96284Y-65395D01*
X98141Y-66820D01*
X100303Y-67716D01*
X101354Y-67854D01*
Y-60325D01*
D02*
G37*
G36*
X111424D02*
X103894D01*
Y-67854D01*
X104945Y-67716D01*
X107108Y-66820D01*
X108965Y-65395D01*
X110390Y-63538D01*
X111285Y-61376D01*
X111424Y-60325D01*
D02*
G37*
G36*
X101354Y-50255D02*
X100303Y-50394D01*
X98141Y-51290D01*
X96284Y-52715D01*
X94859Y-54572D01*
X93963Y-56734D01*
X93825Y-57785D01*
X101354D01*
Y-50255D01*
D02*
G37*
G36*
X232726Y-1778D02*
X225196D01*
Y-9308D01*
X226247Y-9169D01*
X228409Y-8273D01*
X230266Y-6848D01*
X231691Y-4991D01*
X232587Y-2829D01*
X232726Y-1778D01*
D02*
G37*
G36*
X-119990Y-1016D02*
X-127520D01*
X-127381Y-2067D01*
X-126485Y-4229D01*
X-125060Y-6086D01*
X-123203Y-7511D01*
X-121041Y-8407D01*
X-119990Y-8546D01*
Y-1016D01*
D02*
G37*
G36*
X103894Y-50255D02*
Y-57785D01*
X111424D01*
X111285Y-56734D01*
X110390Y-54572D01*
X108965Y-52715D01*
X107108Y-51290D01*
X104945Y-50394D01*
X103894Y-50255D01*
D02*
G37*
G36*
X222656Y-1778D02*
X215126D01*
X215265Y-2829D01*
X216161Y-4991D01*
X217586Y-6848D01*
X219443Y-8273D01*
X221605Y-9169D01*
X222656Y-9308D01*
Y-1778D01*
D02*
G37*
G36*
X60477Y-93673D02*
Y-101202D01*
X68007D01*
X67868Y-100152D01*
X66972Y-97989D01*
X65547Y-96132D01*
X63690Y-94707D01*
X61528Y-93811D01*
X60477Y-93673D01*
D02*
G37*
G36*
X-164776Y-85875D02*
X-165827Y-86013D01*
X-167989Y-86909D01*
X-169846Y-88334D01*
X-171271Y-90191D01*
X-172167Y-92353D01*
X-172306Y-93404D01*
X-164776D01*
Y-85875D01*
D02*
G37*
G36*
X-58141Y-93673D02*
Y-101202D01*
X-50612D01*
X-50750Y-100152D01*
X-51646Y-97989D01*
X-53071Y-96132D01*
X-54928Y-94707D01*
X-57090Y-93811D01*
X-58141Y-93673D01*
D02*
G37*
G36*
X57937D02*
X56886Y-93811D01*
X54724Y-94707D01*
X52867Y-96132D01*
X51442Y-97989D01*
X50546Y-100152D01*
X50408Y-101202D01*
X57937D01*
Y-93673D01*
D02*
G37*
G36*
X-162236Y-85875D02*
Y-93404D01*
X-154706D01*
X-154845Y-92353D01*
X-155741Y-90191D01*
X-157166Y-88334D01*
X-159023Y-86909D01*
X-161185Y-86013D01*
X-162236Y-85875D01*
D02*
G37*
G36*
X-104098Y-60325D02*
X-111628D01*
X-111489Y-61376D01*
X-110594Y-63538D01*
X-109169Y-65395D01*
X-107312Y-66820D01*
X-105149Y-67716D01*
X-104098Y-67854D01*
Y-60325D01*
D02*
G37*
G36*
X-94029D02*
X-101558D01*
Y-67854D01*
X-100507Y-67716D01*
X-98345Y-66820D01*
X-96488Y-65395D01*
X-95063Y-63538D01*
X-94167Y-61376D01*
X-94029Y-60325D01*
D02*
G37*
G36*
X162540Y-84994D02*
X161489Y-85133D01*
X159327Y-86029D01*
X157470Y-87454D01*
X156045Y-89311D01*
X155149Y-91473D01*
X155010Y-92524D01*
X162540D01*
Y-84994D01*
D02*
G37*
G36*
X165080D02*
Y-92524D01*
X172610D01*
X172471Y-91473D01*
X171575Y-89311D01*
X170150Y-87454D01*
X168293Y-86029D01*
X166131Y-85133D01*
X165080Y-84994D01*
D02*
G37*
G36*
X251751Y-105265D02*
X251839Y-107283D01*
X252832Y-110433D01*
X254606Y-113217D01*
X257040Y-115448D01*
X259969Y-116973D01*
X261942Y-117410D01*
X262919Y-106242D01*
X251751Y-105265D01*
D02*
G37*
G36*
X-113606Y-195411D02*
X-121136D01*
X-120997Y-196462D01*
X-120101Y-198624D01*
X-118676Y-200481D01*
X-116819Y-201906D01*
X-114657Y-202802D01*
X-113606Y-202940D01*
Y-195411D01*
D02*
G37*
G36*
X-103537D02*
X-111066D01*
Y-202940D01*
X-110015Y-202802D01*
X-107853Y-201906D01*
X-105996Y-200481D01*
X-104571Y-198624D01*
X-103675Y-196462D01*
X-103537Y-195411D01*
D02*
G37*
G36*
X110422Y-195665D02*
X102893D01*
X103031Y-196716D01*
X103927Y-198878D01*
X105352Y-200735D01*
X107209Y-202160D01*
X109371Y-203056D01*
X110422Y-203194D01*
Y-195665D01*
D02*
G37*
G36*
X120492D02*
X112962D01*
Y-203194D01*
X114013Y-203056D01*
X116175Y-202160D01*
X118033Y-200735D01*
X119457Y-198878D01*
X120353Y-196716D01*
X120492Y-195665D01*
D02*
G37*
G36*
X-864Y-189992D02*
X-8393D01*
X-8255Y-191043D01*
X-7359Y-193205D01*
X-5934Y-195062D01*
X-4077Y-196487D01*
X-1915Y-197383D01*
X-864Y-197521D01*
Y-189992D01*
D02*
G37*
G36*
X112962Y-185595D02*
Y-193125D01*
X120492D01*
X120353Y-192074D01*
X119457Y-189912D01*
X118033Y-188055D01*
X116175Y-186630D01*
X114013Y-185734D01*
X112962Y-185595D01*
D02*
G37*
G36*
X-113606Y-185341D02*
X-114657Y-185480D01*
X-116819Y-186376D01*
X-118676Y-187801D01*
X-120101Y-189658D01*
X-120997Y-191820D01*
X-121136Y-192871D01*
X-113606D01*
Y-185341D01*
D02*
G37*
G36*
X9205Y-189992D02*
X1676D01*
Y-197521D01*
X2727Y-197383D01*
X4889Y-196487D01*
X6746Y-195062D01*
X8171Y-193205D01*
X9067Y-191043D01*
X9205Y-189992D01*
D02*
G37*
G36*
X110422Y-185595D02*
X109371Y-185734D01*
X107209Y-186630D01*
X105352Y-188055D01*
X103927Y-189912D01*
X103031Y-192074D01*
X102893Y-193125D01*
X110422D01*
Y-185595D01*
D02*
G37*
G36*
X-101903Y-251493D02*
X-102880Y-262661D01*
X-91711Y-263638D01*
X-91799Y-261619D01*
X-92792Y-258470D01*
X-94566Y-255686D01*
X-97001Y-253455D01*
X-99930Y-251930D01*
X-101903Y-251493D01*
D02*
G37*
G36*
X-104433Y-251272D02*
X-106452Y-251360D01*
X-109601Y-252353D01*
X-112386Y-254127D01*
X-114616Y-256561D01*
X-116141Y-259490D01*
X-116578Y-261463D01*
X-105410Y-262440D01*
X-104433Y-251272D01*
D02*
G37*
G36*
X-103101Y-265192D02*
X-104078Y-276360D01*
X-102059Y-276272D01*
X-98910Y-275279D01*
X-96125Y-273505D01*
X-93895Y-271070D01*
X-92370Y-268142D01*
X-91933Y-266169D01*
X-103101Y-265192D01*
D02*
G37*
G36*
X103898Y-252036D02*
X102533Y-253526D01*
X101008Y-256455D01*
X100294Y-259678D01*
X100438Y-262977D01*
X101431Y-266126D01*
X102516Y-267831D01*
X111104Y-260624D01*
X103898Y-252036D01*
D02*
G37*
G36*
X113996Y-248181D02*
X110697Y-248325D01*
X107548Y-249318D01*
X105844Y-250403D01*
X113050Y-258992D01*
X121638Y-251785D01*
X120148Y-250420D01*
X117220Y-248895D01*
X113996Y-248181D01*
D02*
G37*
G36*
X-1626Y-215483D02*
X-2677Y-215621D01*
X-4839Y-216517D01*
X-6696Y-217942D01*
X-8121Y-219799D01*
X-9017Y-221961D01*
X-9155Y-223012D01*
X-1626D01*
Y-215483D01*
D02*
G37*
G36*
X914D02*
Y-223012D01*
X8443D01*
X8305Y-221961D01*
X7409Y-219799D01*
X5984Y-217942D01*
X4127Y-216517D01*
X1965Y-215621D01*
X914Y-215483D01*
D02*
G37*
G36*
X-1626Y-225552D02*
X-9155D01*
X-9017Y-226603D01*
X-8121Y-228765D01*
X-6696Y-230622D01*
X-4839Y-232047D01*
X-2677Y-232943D01*
X-1626Y-233081D01*
Y-225552D01*
D02*
G37*
G36*
X8443D02*
X914D01*
Y-233081D01*
X1965Y-232943D01*
X4127Y-232047D01*
X5984Y-230622D01*
X7409Y-228765D01*
X8305Y-226603D01*
X8443Y-225552D01*
D02*
G37*
G36*
X-1372Y-119634D02*
X-8902D01*
X-8763Y-120685D01*
X-7867Y-122847D01*
X-6442Y-124704D01*
X-4585Y-126129D01*
X-2423Y-127025D01*
X-1372Y-127163D01*
Y-119634D01*
D02*
G37*
G36*
X8698D02*
X1168D01*
Y-127163D01*
X2219Y-127025D01*
X4381Y-126129D01*
X6238Y-124704D01*
X7663Y-122847D01*
X8559Y-120685D01*
X8698Y-119634D01*
D02*
G37*
G36*
X93556Y-154351D02*
X92505Y-154489D01*
X90343Y-155385D01*
X88485Y-156810D01*
X87061Y-158667D01*
X86165Y-160829D01*
X86026Y-161880D01*
X93556D01*
Y-154351D01*
D02*
G37*
G36*
X96096D02*
Y-161880D01*
X103625D01*
X103487Y-160829D01*
X102591Y-158667D01*
X101166Y-156810D01*
X99309Y-155385D01*
X97147Y-154489D01*
X96096Y-154351D01*
D02*
G37*
G36*
X192515Y-113758D02*
X184985D01*
X185124Y-114809D01*
X186019Y-116971D01*
X187444Y-118828D01*
X189302Y-120253D01*
X191464Y-121149D01*
X192515Y-121287D01*
Y-113758D01*
D02*
G37*
G36*
X-195513Y-113318D02*
X-203042D01*
X-202904Y-114369D01*
X-202008Y-116531D01*
X-200583Y-118389D01*
X-198726Y-119813D01*
X-196564Y-120709D01*
X-195513Y-120848D01*
Y-113318D01*
D02*
G37*
G36*
X-185443D02*
X-192973D01*
Y-120848D01*
X-191922Y-120709D01*
X-189760Y-119813D01*
X-187903Y-118389D01*
X-186478Y-116531D01*
X-185582Y-114369D01*
X-185443Y-113318D01*
D02*
G37*
G36*
X202584Y-113758D02*
X195055D01*
Y-121287D01*
X196106Y-121149D01*
X198268Y-120253D01*
X200125Y-118828D01*
X201550Y-116971D01*
X202446Y-114809D01*
X202584Y-113758D01*
D02*
G37*
G36*
X-249572Y-105365D02*
X-258160Y-112571D01*
X-250954Y-121159D01*
X-249588Y-119669D01*
X-248064Y-116740D01*
X-247349Y-113517D01*
X-247493Y-110218D01*
X-248486Y-107069D01*
X-249572Y-105365D01*
D02*
G37*
G36*
X1676Y-179923D02*
Y-187452D01*
X9205D01*
X9067Y-186401D01*
X8171Y-184239D01*
X6746Y-182382D01*
X4889Y-180957D01*
X2727Y-180061D01*
X1676Y-179923D01*
D02*
G37*
G36*
X-95420Y-164928D02*
X-102950D01*
X-102811Y-165979D01*
X-101915Y-168141D01*
X-100491Y-169998D01*
X-98633Y-171423D01*
X-96471Y-172319D01*
X-95420Y-172458D01*
Y-164928D01*
D02*
G37*
G36*
X-111066Y-185341D02*
Y-192871D01*
X-103537D01*
X-103675Y-191820D01*
X-104571Y-189658D01*
X-105996Y-187801D01*
X-107853Y-186376D01*
X-110015Y-185480D01*
X-111066Y-185341D01*
D02*
G37*
G36*
X-864Y-179923D02*
X-1915Y-180061D01*
X-4077Y-180957D01*
X-5934Y-182382D01*
X-7359Y-184239D01*
X-8255Y-186401D01*
X-8393Y-187452D01*
X-864D01*
Y-179923D01*
D02*
G37*
G36*
X-85351Y-164928D02*
X-92880D01*
Y-172458D01*
X-91829Y-172319D01*
X-89667Y-171423D01*
X-87810Y-169998D01*
X-86385Y-168141D01*
X-85489Y-165979D01*
X-85351Y-164928D01*
D02*
G37*
G36*
X-95420Y-154859D02*
X-96471Y-154997D01*
X-98633Y-155893D01*
X-100491Y-157318D01*
X-101915Y-159175D01*
X-102811Y-161337D01*
X-102950Y-162388D01*
X-95420D01*
Y-154859D01*
D02*
G37*
G36*
X-92880D02*
Y-162388D01*
X-85351D01*
X-85489Y-161337D01*
X-86385Y-159175D01*
X-87810Y-157318D01*
X-89667Y-155893D01*
X-91829Y-154997D01*
X-92880Y-154859D01*
D02*
G37*
G36*
X93556Y-164420D02*
X86026D01*
X86165Y-165471D01*
X87061Y-167633D01*
X88485Y-169490D01*
X90343Y-170915D01*
X92505Y-171811D01*
X93556Y-171950D01*
Y-164420D01*
D02*
G37*
G36*
X103625D02*
X96096D01*
Y-171950D01*
X97147Y-171811D01*
X99309Y-170915D01*
X101166Y-169490D01*
X102591Y-167633D01*
X103487Y-165471D01*
X103625Y-164420D01*
D02*
G37*
G36*
X-109921Y-1016D02*
X-117450D01*
Y-8546D01*
X-116399Y-8407D01*
X-114237Y-7511D01*
X-112380Y-6086D01*
X-110955Y-4229D01*
X-110059Y-2067D01*
X-109921Y-1016D01*
D02*
G37*
G36*
X195309Y120339D02*
Y112810D01*
X202838D01*
X202700Y113861D01*
X201804Y116023D01*
X200379Y117880D01*
X198522Y119305D01*
X196360Y120201D01*
X195309Y120339D01*
D02*
G37*
G36*
X-195259Y120779D02*
X-196310Y120641D01*
X-198472Y119745D01*
X-200329Y118320D01*
X-201754Y116463D01*
X-202650Y114301D01*
X-202788Y113250D01*
X-195259D01*
Y120779D01*
D02*
G37*
G36*
X8698Y117602D02*
X1168D01*
Y110072D01*
X2219Y110211D01*
X4381Y111107D01*
X6238Y112532D01*
X7663Y114389D01*
X8559Y116551D01*
X8698Y117602D01*
D02*
G37*
G36*
X192769Y120339D02*
X191718Y120201D01*
X189556Y119305D01*
X187698Y117880D01*
X186273Y116023D01*
X185378Y113861D01*
X185239Y112810D01*
X192769D01*
Y120339D01*
D02*
G37*
G36*
X-192719Y120779D02*
Y113250D01*
X-185189D01*
X-185328Y114301D01*
X-186224Y116463D01*
X-187649Y118320D01*
X-189506Y119745D01*
X-191668Y120641D01*
X-192719Y120779D01*
D02*
G37*
G36*
X-96300Y162388D02*
X-103829D01*
X-103691Y161337D01*
X-102795Y159175D01*
X-101370Y157318D01*
X-99513Y155893D01*
X-97351Y154997D01*
X-96300Y154859D01*
Y162388D01*
D02*
G37*
G36*
X-86230D02*
X-93760D01*
Y154859D01*
X-92709Y154997D01*
X-90547Y155893D01*
X-88689Y157318D01*
X-87265Y159175D01*
X-86369Y161337D01*
X-86230Y162388D01*
D02*
G37*
G36*
X-1372Y127671D02*
X-2423Y127533D01*
X-4585Y126637D01*
X-6442Y125212D01*
X-7867Y123355D01*
X-8763Y121193D01*
X-8902Y120142D01*
X-1372D01*
Y127671D01*
D02*
G37*
G36*
X1168D02*
Y120142D01*
X8698D01*
X8559Y121193D01*
X7663Y123355D01*
X6238Y125212D01*
X4381Y126637D01*
X2219Y127533D01*
X1168Y127671D01*
D02*
G37*
G36*
X-60681Y111780D02*
X-61732Y111641D01*
X-63894Y110746D01*
X-65751Y109321D01*
X-67176Y107464D01*
X-68072Y105301D01*
X-68211Y104250D01*
X-60681D01*
Y111780D01*
D02*
G37*
G36*
X-58141D02*
Y104250D01*
X-50612D01*
X-50750Y105301D01*
X-51646Y107464D01*
X-53071Y109321D01*
X-54928Y110746D01*
X-57090Y111641D01*
X-58141Y111780D01*
D02*
G37*
G36*
X-195259Y110710D02*
X-202788D01*
X-202650Y109659D01*
X-201754Y107497D01*
X-200329Y105639D01*
X-198472Y104215D01*
X-196310Y103319D01*
X-195259Y103181D01*
Y110710D01*
D02*
G37*
G36*
X-185189D02*
X-192719D01*
Y103181D01*
X-191668Y103319D01*
X-189506Y104215D01*
X-187649Y105639D01*
X-186224Y107497D01*
X-185328Y109659D01*
X-185189Y110710D01*
D02*
G37*
G36*
X57937Y111780D02*
X56886Y111641D01*
X54724Y110746D01*
X52867Y109321D01*
X51442Y107464D01*
X50546Y105301D01*
X50408Y104250D01*
X57937D01*
Y111780D01*
D02*
G37*
G36*
X252265Y120807D02*
X250899Y119317D01*
X249375Y116388D01*
X248660Y113164D01*
X248804Y109866D01*
X249797Y106717D01*
X250883Y105012D01*
X259471Y112219D01*
X252265Y120807D01*
D02*
G37*
G36*
X-1372Y117602D02*
X-8902D01*
X-8763Y116551D01*
X-7867Y114389D01*
X-6442Y112532D01*
X-4585Y111107D01*
X-2423Y110211D01*
X-1372Y110072D01*
Y117602D01*
D02*
G37*
G36*
X60477Y111780D02*
Y104250D01*
X68007D01*
X67868Y105301D01*
X66972Y107464D01*
X65547Y109321D01*
X63690Y110746D01*
X61528Y111641D01*
X60477Y111780D01*
D02*
G37*
G36*
X-260631Y117058D02*
X-261608Y105889D01*
X-250440Y104912D01*
X-250528Y106931D01*
X-251521Y110080D01*
X-253295Y112865D01*
X-255729Y115096D01*
X-258658Y116620D01*
X-260631Y117058D01*
D02*
G37*
G36*
X113402Y202432D02*
Y194903D01*
X120932D01*
X120793Y195954D01*
X119897Y198116D01*
X118472Y199973D01*
X116615Y201398D01*
X114453Y202294D01*
X113402Y202432D01*
D02*
G37*
G36*
X-113166Y202686D02*
X-114217Y202548D01*
X-116379Y201652D01*
X-118237Y200227D01*
X-119661Y198370D01*
X-120557Y196208D01*
X-120695Y195157D01*
X-113166D01*
Y202686D01*
D02*
G37*
G36*
X-103097Y192617D02*
X-110626D01*
Y185087D01*
X-109575Y185226D01*
X-107413Y186122D01*
X-105556Y187547D01*
X-104131Y189404D01*
X-103235Y191566D01*
X-103097Y192617D01*
D02*
G37*
G36*
X110862Y202432D02*
X109811Y202294D01*
X107649Y201398D01*
X105792Y199973D01*
X104367Y198116D01*
X103471Y195954D01*
X103333Y194903D01*
X110862D01*
Y202432D01*
D02*
G37*
G36*
X-110626Y202686D02*
Y195157D01*
X-103097D01*
X-103235Y196208D01*
X-104131Y198370D01*
X-105556Y200227D01*
X-107413Y201652D01*
X-109575Y202548D01*
X-110626Y202686D01*
D02*
G37*
G36*
X93022Y263286D02*
X93110Y261267D01*
X94103Y258118D01*
X95877Y255333D01*
X98312Y253103D01*
X101241Y251578D01*
X103214Y251141D01*
X104191Y262309D01*
X93022Y263286D01*
D02*
G37*
G36*
X-101205Y267478D02*
X-109793Y260272D01*
X-102587Y251684D01*
X-101222Y253174D01*
X-99697Y256103D01*
X-98983Y259326D01*
X-99127Y262625D01*
X-100119Y265774D01*
X-101205Y267478D01*
D02*
G37*
G36*
X-111739Y258639D02*
X-120327Y251433D01*
X-118837Y250068D01*
X-115909Y248543D01*
X-112685Y247828D01*
X-109386Y247972D01*
X-106237Y248965D01*
X-104533Y250051D01*
X-111739Y258639D01*
D02*
G37*
G36*
X106721Y262088D02*
X105744Y250919D01*
X107763Y251007D01*
X110912Y252000D01*
X113697Y253774D01*
X115927Y256209D01*
X117452Y259137D01*
X117889Y261110D01*
X106721Y262088D01*
D02*
G37*
G36*
X-96300Y172458D02*
X-97351Y172319D01*
X-99513Y171423D01*
X-101370Y169998D01*
X-102795Y168141D01*
X-103691Y165979D01*
X-103829Y164928D01*
X-96300D01*
Y172458D01*
D02*
G37*
G36*
X-93760D02*
Y164928D01*
X-86230D01*
X-86369Y165979D01*
X-87265Y168141D01*
X-88689Y169998D01*
X-90547Y171423D01*
X-92709Y172319D01*
X-93760Y172458D01*
D02*
G37*
G36*
X92676Y162896D02*
X85147D01*
X85285Y161845D01*
X86181Y159683D01*
X87606Y157826D01*
X89463Y156401D01*
X91625Y155505D01*
X92676Y155366D01*
Y162896D01*
D02*
G37*
G36*
X102746D02*
X95216D01*
Y155366D01*
X96267Y155505D01*
X98429Y156401D01*
X100287Y157826D01*
X101711Y159683D01*
X102607Y161845D01*
X102746Y162896D01*
D02*
G37*
G36*
X92676Y172966D02*
X91625Y172827D01*
X89463Y171931D01*
X87606Y170506D01*
X86181Y168649D01*
X85285Y166487D01*
X85147Y165436D01*
X92676D01*
Y172966D01*
D02*
G37*
G36*
X120932Y192363D02*
X113402D01*
Y184833D01*
X114453Y184972D01*
X116615Y185868D01*
X118472Y187292D01*
X119897Y189150D01*
X120793Y191312D01*
X120932Y192363D01*
D02*
G37*
G36*
X-113166Y192617D02*
X-120695D01*
X-120557Y191566D01*
X-119661Y189404D01*
X-118237Y187547D01*
X-116379Y186122D01*
X-114217Y185226D01*
X-113166Y185087D01*
Y192617D01*
D02*
G37*
G36*
X95216Y172966D02*
Y165436D01*
X102746D01*
X102607Y166487D01*
X101711Y168649D01*
X100287Y170506D01*
X98429Y171931D01*
X96267Y172827D01*
X95216Y172966D01*
D02*
G37*
G36*
X110862Y192363D02*
X103333D01*
X103471Y191312D01*
X104367Y189150D01*
X105792Y187292D01*
X107649Y185868D01*
X109811Y184972D01*
X110862Y184833D01*
Y192363D01*
D02*
G37*
G36*
X202838Y110270D02*
X195309D01*
Y102740D01*
X196360Y102879D01*
X198522Y103775D01*
X200379Y105200D01*
X201804Y107057D01*
X202700Y109219D01*
X202838Y110270D01*
D02*
G37*
G36*
X190144Y9561D02*
Y2032D01*
X197673D01*
X197535Y3083D01*
X196639Y5245D01*
X195214Y7102D01*
X193357Y8527D01*
X191195Y9423D01*
X190144Y9561D01*
D02*
G37*
G36*
X-104098Y58293D02*
X-111628D01*
X-111489Y57242D01*
X-110594Y55080D01*
X-109169Y53223D01*
X-107312Y51798D01*
X-105149Y50902D01*
X-104098Y50764D01*
Y58293D01*
D02*
G37*
G36*
X119786Y9054D02*
Y1524D01*
X127316D01*
X127177Y2575D01*
X126281Y4737D01*
X124856Y6594D01*
X122999Y8019D01*
X120837Y8915D01*
X119786Y9054D01*
D02*
G37*
G36*
X187604Y9561D02*
X186553Y9423D01*
X184391Y8527D01*
X182534Y7102D01*
X181109Y5245D01*
X180213Y3083D01*
X180075Y2032D01*
X187604D01*
Y9561D01*
D02*
G37*
G36*
X-94029Y58293D02*
X-101558D01*
Y50764D01*
X-100507Y50902D01*
X-98345Y51798D01*
X-96488Y53223D01*
X-95063Y55080D01*
X-94167Y57242D01*
X-94029Y58293D01*
D02*
G37*
G36*
X-104098Y68362D02*
X-105149Y68224D01*
X-107312Y67328D01*
X-109169Y65903D01*
X-110594Y64046D01*
X-111489Y61884D01*
X-111628Y60833D01*
X-104098D01*
Y68362D01*
D02*
G37*
G36*
X-101558D02*
Y60833D01*
X-94029D01*
X-94167Y61884D01*
X-95063Y64046D01*
X-96488Y65903D01*
X-98345Y67328D01*
X-100507Y68224D01*
X-101558Y68362D01*
D02*
G37*
G36*
X101354Y58293D02*
X93825D01*
X93963Y57242D01*
X94859Y55080D01*
X96284Y53223D01*
X98141Y51798D01*
X100303Y50902D01*
X101354Y50764D01*
Y58293D01*
D02*
G37*
G36*
X111424D02*
X103894D01*
Y50764D01*
X104945Y50902D01*
X107108Y51798D01*
X108965Y53223D01*
X110390Y55080D01*
X111285Y57242D01*
X111424Y58293D01*
D02*
G37*
G36*
X187604Y-508D02*
X180075D01*
X180213Y-1559D01*
X181109Y-3721D01*
X182534Y-5578D01*
X184391Y-7003D01*
X186553Y-7899D01*
X187604Y-8037D01*
Y-508D01*
D02*
G37*
G36*
X197673D02*
X190144D01*
Y-8037D01*
X191195Y-7899D01*
X193357Y-7003D01*
X195214Y-5578D01*
X196639Y-3721D01*
X197535Y-1559D01*
X197673Y-508D01*
D02*
G37*
G36*
X117246Y-1016D02*
X109717D01*
X109855Y-2067D01*
X110751Y-4229D01*
X112176Y-6086D01*
X114033Y-7511D01*
X116195Y-8407D01*
X117246Y-8546D01*
Y-1016D01*
D02*
G37*
G36*
X127316D02*
X119786D01*
Y-8546D01*
X120837Y-8407D01*
X122999Y-7511D01*
X124856Y-6086D01*
X126281Y-4229D01*
X127177Y-2067D01*
X127316Y-1016D01*
D02*
G37*
G36*
X222656Y8292D02*
X221605Y8153D01*
X219443Y7257D01*
X217586Y5832D01*
X216161Y3975D01*
X215265Y1813D01*
X215126Y762D01*
X222656D01*
Y8292D01*
D02*
G37*
G36*
X-117450Y9054D02*
Y1524D01*
X-109921D01*
X-110059Y2575D01*
X-110955Y4737D01*
X-112380Y6594D01*
X-114237Y8019D01*
X-116399Y8915D01*
X-117450Y9054D01*
D02*
G37*
G36*
X117246D02*
X116195Y8915D01*
X114033Y8019D01*
X112176Y6594D01*
X110751Y4737D01*
X109855Y2575D01*
X109717Y1524D01*
X117246D01*
Y9054D01*
D02*
G37*
G36*
X225196Y8292D02*
Y762D01*
X232726D01*
X232587Y1813D01*
X231691Y3975D01*
X230266Y5832D01*
X228409Y7257D01*
X226247Y8153D01*
X225196Y8292D01*
D02*
G37*
G36*
X-119990Y9054D02*
X-121041Y8915D01*
X-123203Y8019D01*
X-125060Y6594D01*
X-126485Y4737D01*
X-127381Y2575D01*
X-127520Y1524D01*
X-119990D01*
Y9054D01*
D02*
G37*
G36*
X-165284Y103102D02*
X-166335Y102963D01*
X-168497Y102067D01*
X-170354Y100642D01*
X-171779Y98785D01*
X-172675Y96623D01*
X-172813Y95572D01*
X-165284D01*
Y103102D01*
D02*
G37*
G36*
X-162744D02*
Y95572D01*
X-155215D01*
X-155353Y96623D01*
X-156249Y98785D01*
X-157674Y100642D01*
X-159531Y102067D01*
X-161693Y102963D01*
X-162744Y103102D01*
D02*
G37*
G36*
X57937Y101710D02*
X50408D01*
X50546Y100660D01*
X51442Y98497D01*
X52867Y96640D01*
X54724Y95215D01*
X56886Y94319D01*
X57937Y94181D01*
Y101710D01*
D02*
G37*
G36*
X68007D02*
X60477D01*
Y94181D01*
X61528Y94319D01*
X63690Y95215D01*
X65547Y96640D01*
X66972Y98497D01*
X67868Y100660D01*
X68007Y101710D01*
D02*
G37*
G36*
X162032Y103982D02*
X160981Y103843D01*
X158819Y102947D01*
X156962Y101522D01*
X155537Y99665D01*
X154641Y97503D01*
X154502Y96452D01*
X162032D01*
Y103982D01*
D02*
G37*
G36*
X3629Y102884D02*
X-6666Y102751D01*
X-6831Y102716D01*
X-6999Y102730D01*
X-17225Y101539D01*
X-17386Y101488D01*
X-17554Y101484D01*
X-27604Y99248D01*
X-27758Y99180D01*
X-27925Y99159D01*
X-37692Y95902D01*
X-37839Y95819D01*
X-38003Y95781D01*
X-47383Y91537D01*
X-47520Y91439D01*
X-47679Y91384D01*
X-56573Y86198D01*
X-56700Y86086D01*
X-56852Y86015D01*
X-65166Y79942D01*
X-65280Y79818D01*
X-65425Y79732D01*
X-73070Y72836D01*
X-73171Y72701D01*
X-73306Y72600D01*
X-80202Y64955D01*
X-80288Y64810D01*
X-80412Y64696D01*
X-86485Y56383D01*
X-86556Y56230D01*
X-86667Y56104D01*
X-91853Y47210D01*
X-91908Y47050D01*
X-92006Y46913D01*
X-96250Y37533D01*
X-96288Y37369D01*
X-96372Y37223D01*
X-99629Y27456D01*
X-99650Y27288D01*
X-99718Y27134D01*
X-101954Y17084D01*
X-101957Y16916D01*
X-102009Y16756D01*
X-103200Y6529D01*
X-103186Y6361D01*
X-103221Y6196D01*
X-103354Y-4099D01*
X-103323Y-4264D01*
X-103341Y-4432D01*
X-102414Y-14685D01*
X-102366Y-14847D01*
X-102367Y-15015D01*
X-100391Y-25120D01*
X-100327Y-25276D01*
X-100310Y-25443D01*
X-97306Y-35291D01*
X-97226Y-35439D01*
X-97192Y-35604D01*
X-93191Y-45091D01*
X-93096Y-45230D01*
X-93046Y-45391D01*
X-88090Y-54415D01*
X-87982Y-54544D01*
X-87915Y-54699D01*
X-82058Y-63166D01*
X-81937Y-63284D01*
X-81855Y-63430D01*
X-75158Y-71251D01*
X-75026Y-71355D01*
X-74928Y-71492D01*
X-67463Y-78583D01*
X-67321Y-78673D01*
X-67210Y-78800D01*
X-59055Y-85085D01*
X-58904Y-85160D01*
X-58781Y-85274D01*
X-50023Y-90688D01*
X-49866Y-90747D01*
X-49731Y-90848D01*
X-40463Y-95332D01*
X-40300Y-95375D01*
X-40156Y-95462D01*
X-30477Y-98969D01*
X-30310Y-98995D01*
X-30158Y-99067D01*
X-20168Y-101560D01*
X-20000Y-101568D01*
X-19841Y-101624D01*
X-9649Y-103077D01*
X-9481Y-103068D01*
X-9317Y-103108D01*
X971Y-103505D01*
X1138Y-103479D01*
X1305Y-103501D01*
X11579Y-102838D01*
X11742Y-102795D01*
X11910Y-102800D01*
X22062Y-101085D01*
X22219Y-101025D01*
X22387Y-101012D01*
X32309Y-98262D01*
X32459Y-98187D01*
X32625Y-98157D01*
X42211Y-94401D01*
X42353Y-94310D01*
X42515Y-94264D01*
X51665Y-89543D01*
X51796Y-89438D01*
X51953Y-89375D01*
X60568Y-83738D01*
X60688Y-83620D01*
X60837Y-83541D01*
X68827Y-77048D01*
X68935Y-76918D01*
X69075Y-76825D01*
X76355Y-69545D01*
X76448Y-69404D01*
X76578Y-69297D01*
X83071Y-61307D01*
X83150Y-61158D01*
X83268Y-61038D01*
X88905Y-52422D01*
X88968Y-52266D01*
X89073Y-52134D01*
X93794Y-42985D01*
X93841Y-42823D01*
X93932Y-42681D01*
X97687Y-33095D01*
X97717Y-32929D01*
X97793Y-32779D01*
X100543Y-22857D01*
X100555Y-22689D01*
X100615Y-22532D01*
X102330Y-12380D01*
X102325Y-12211D01*
X102369Y-12049D01*
X103031Y-1774D01*
X103009Y-1607D01*
X103035Y-1441D01*
X102638Y8847D01*
X102599Y9011D01*
X102608Y9179D01*
X101154Y19372D01*
X101099Y19531D01*
X101090Y19699D01*
X98597Y29688D01*
X98525Y29840D01*
X98500Y30007D01*
X94992Y39687D01*
X94905Y39831D01*
X94863Y39994D01*
X90378Y49262D01*
X90277Y49396D01*
X90218Y49554D01*
X84805Y58312D01*
X84690Y58435D01*
X84615Y58586D01*
X78330Y66740D01*
X78203Y66851D01*
X78113Y66993D01*
X71023Y74459D01*
X70885Y74556D01*
X70781Y74688D01*
X62961Y81385D01*
X62814Y81467D01*
X62697Y81588D01*
X54229Y87445D01*
X54075Y87512D01*
X53946Y87621D01*
X44921Y92576D01*
X44760Y92627D01*
X44621Y92721D01*
X35134Y96722D01*
X34969Y96756D01*
X34821Y96836D01*
X24973Y99840D01*
X24806Y99857D01*
X24650Y99921D01*
X14546Y101897D01*
X14377Y101897D01*
X14216Y101944D01*
X3962Y102871D01*
X3794Y102853D01*
X3629Y102884D01*
D02*
G37*
G36*
X192769Y110270D02*
X185239D01*
X185378Y109219D01*
X186273Y107057D01*
X187698Y105200D01*
X189556Y103775D01*
X191718Y102879D01*
X192769Y102740D01*
Y110270D01*
D02*
G37*
G36*
X164572Y103982D02*
Y96452D01*
X172101D01*
X171963Y97503D01*
X171067Y99665D01*
X169642Y101522D01*
X167785Y102947D01*
X165623Y103843D01*
X164572Y103982D01*
D02*
G37*
G36*
X261104Y110273D02*
X252515Y103067D01*
X254005Y101701D01*
X256934Y100176D01*
X260158Y99462D01*
X263456Y99606D01*
X266605Y100599D01*
X268310Y101685D01*
X261104Y110273D01*
D02*
G37*
G36*
X-165284Y93032D02*
X-172813D01*
X-172675Y91981D01*
X-171779Y89819D01*
X-170354Y87962D01*
X-168497Y86537D01*
X-166335Y85641D01*
X-165284Y85503D01*
Y93032D01*
D02*
G37*
G36*
X-155215D02*
X-162744D01*
Y85503D01*
X-161693Y85641D01*
X-159531Y86537D01*
X-157674Y87962D01*
X-156249Y89819D01*
X-155353Y91981D01*
X-155215Y93032D01*
D02*
G37*
G36*
X101354Y68362D02*
X100303Y68224D01*
X98141Y67328D01*
X96284Y65903D01*
X94859Y64046D01*
X93963Y61884D01*
X93825Y60833D01*
X101354D01*
Y68362D01*
D02*
G37*
G36*
X103894D02*
Y60833D01*
X111424D01*
X111285Y61884D01*
X110390Y64046D01*
X108965Y65903D01*
X107108Y67328D01*
X104945Y68224D01*
X103894Y68362D01*
D02*
G37*
G36*
X162032Y93912D02*
X154502D01*
X154641Y92861D01*
X155537Y90699D01*
X156962Y88841D01*
X158819Y87417D01*
X160981Y86521D01*
X162032Y86383D01*
Y93912D01*
D02*
G37*
G36*
X-60681Y101710D02*
X-68211D01*
X-68072Y100660D01*
X-67176Y98497D01*
X-65751Y96640D01*
X-63894Y95215D01*
X-61732Y94319D01*
X-60681Y94181D01*
Y101710D01*
D02*
G37*
G36*
X-50612D02*
X-58141D01*
Y94181D01*
X-57090Y94319D01*
X-54928Y95215D01*
X-53071Y96640D01*
X-51646Y98497D01*
X-50750Y100660D01*
X-50612Y101710D01*
D02*
G37*
G36*
X172101Y93912D02*
X164572D01*
Y86383D01*
X165623Y86521D01*
X167785Y87417D01*
X169642Y88841D01*
X171067Y90699D01*
X171963Y92861D01*
X172101Y93912D01*
D02*
G37*
G36*
X-261830Y103359D02*
X-262807Y92191D01*
X-260788Y92279D01*
X-257639Y93272D01*
X-254854Y95046D01*
X-252623Y97480D01*
X-251099Y100409D01*
X-250661Y102382D01*
X-261830Y103359D01*
D02*
G37*
%LPD*%
D10*
X-83871Y54473D02*
X-77798Y62787D01*
X-89057Y45579D02*
X-83871Y54473D01*
X-93301Y36198D02*
X-89057Y45579D01*
X-96558Y26432D02*
X-93301Y36198D01*
X-98794Y16381D02*
X-96558Y26432D01*
X-99984Y6155D02*
X-98794Y16381D01*
X-100117Y-4140D02*
X-99984Y6155D01*
X-100117Y-4140D02*
X-99190Y-14394D01*
X-97214Y-24499D01*
X-94209Y-34346D01*
X-90208Y-43833D01*
X-85253Y-52857D01*
X-79396Y-61325D01*
X-72699Y-69145D01*
X-65234Y-76235D01*
X-57079Y-82521D01*
X-48321Y-87934D01*
X-39053Y-92418D01*
X-29374Y-95926D01*
X-19384Y-98419D01*
X-9192Y-99873D01*
X1096Y-100270D01*
X11371Y-99608D01*
X21523Y-97893D01*
X31444Y-95143D01*
X41031Y-91387D01*
X50180Y-86666D01*
X58795Y-81029D01*
X66786Y-74536D01*
X74066Y-67255D01*
X80559Y-59265D01*
X86196Y-50650D01*
X90917Y-41500D01*
X94673Y-31914D01*
X97423Y-21992D01*
X99138Y-11840D01*
X99801Y-1566D01*
X99403Y8722D02*
X99801Y-1566D01*
X97950Y18915D02*
X99403Y8722D01*
X95456Y28904D02*
X97950Y18915D01*
X91949Y38584D02*
X95456Y28904D01*
X87464Y47852D02*
X91949Y38584D01*
X82051Y56609D02*
X87464Y47852D01*
X75766Y64764D02*
X82051Y56609D01*
X68675Y72229D02*
X75766Y64764D01*
X60855Y78926D02*
X68675Y72229D01*
X52388Y84783D02*
X60855Y78926D01*
X43363Y89738D02*
X52388Y84783D01*
X33876Y93740D02*
X43363Y89738D01*
X24029Y96744D02*
X33876Y93740D01*
X13924Y98720D02*
X24029Y96744D01*
X3670Y99647D02*
X13924Y98720D01*
X-6624Y99514D02*
X3670Y99647D01*
X-16851Y98324D02*
X-6624Y99514D01*
X-26901Y96088D02*
X-16851Y98324D01*
X-36668Y92831D02*
X-26901Y96088D01*
X-46048Y88587D02*
X-36668Y92831D01*
X-54943Y83401D02*
X-46048Y88587D01*
X-63257Y77328D02*
X-54943Y83401D01*
X-70902Y70432D02*
X-63257Y77328D01*
X-77798Y62787D02*
X-70902Y70432D01*
X207206Y-78526D02*
X209149Y-74491D01*
X206209Y-82892D02*
X207206Y-78526D01*
X206209Y-87371D02*
Y-82892D01*
Y-87371D02*
X207206Y-91737D01*
X209149Y-95772D01*
X211941Y-99274D01*
X215443Y-102066D01*
X219478Y-104009D01*
X223844Y-105006D01*
X228322Y-105006D01*
X232689Y-104009D01*
X236724Y-102066D01*
X240225Y-99274D01*
X243018Y-95772D01*
X244961Y-91737D01*
X245957Y-87371D01*
X245957Y-82892D01*
X244961Y-78526D02*
X245957Y-82892D01*
X243018Y-74491D02*
X244961Y-78526D01*
X240225Y-70989D02*
X243018Y-74491D01*
X236724Y-68197D02*
X240225Y-70989D01*
X232689Y-66254D02*
X236724Y-68197D01*
X228322Y-65257D02*
X232689Y-66254D01*
X223844Y-65257D02*
X228322D01*
X219478Y-66254D02*
X223844Y-65257D01*
X215443Y-68197D02*
X219478Y-66254D01*
X211941Y-70989D02*
X215443Y-68197D01*
X-172734Y245137D02*
X-158335Y254654D01*
X-143413Y263326D01*
X-128017Y271127D01*
X-112197Y278028D01*
X-96007Y284009D01*
X-79500Y289049D01*
X-62730Y293131D01*
X-38896Y201758D01*
X-36877Y195912D01*
X-33981Y190446D01*
X-30277Y185493D01*
X-25853Y181170D01*
X-20816Y177581D01*
X-15286Y174811D01*
X-9395Y172927D01*
X-3284Y171973D01*
X2901D01*
X9013Y172927D01*
X14904Y174811D01*
X20434Y177581D01*
X25471Y181170D01*
X29894Y185493D01*
X33598Y190446D01*
X36495Y195912D01*
X38514Y201758D01*
X62347Y293131D01*
X79117Y289049D01*
X95625Y284009D01*
X111815Y278028D01*
X127634Y271127D01*
X143031Y263326D01*
X157953Y254654D01*
X172352Y245137D01*
X186180Y234809D01*
X199391Y223702D01*
X211941Y211854D01*
X223789Y199303D01*
X234896Y186092D01*
X245225Y172265D01*
X254741Y157866D01*
X263414Y142943D01*
X271214Y127547D01*
X278116Y111728D01*
X284096Y95537D01*
X289136Y79030D01*
X293218Y62260D01*
X285661Y59606D02*
X293218Y62260D01*
X278487Y56043D02*
X285661Y59606D01*
X271806Y51624D02*
X278487Y56043D01*
X265720Y46417D02*
X271806Y51624D01*
X260320Y40501D02*
X265720Y46417D01*
X255688Y33966D02*
X260320Y40501D01*
X251896Y26911D02*
X255688Y33966D01*
X249000Y19443D02*
X251896Y26911D01*
X247045Y11675D02*
X249000Y19443D01*
X246059Y3726D02*
X247045Y11675D01*
X246059Y-4284D02*
Y3726D01*
Y-4284D02*
X247045Y-12233D01*
X249000Y-20000D01*
X251896Y-27468D01*
X255688Y-34523D01*
X260320Y-41058D01*
X265720Y-46974D01*
X271806Y-52181D01*
X278487Y-56600D01*
X285661Y-60163D01*
X293218Y-62817D01*
X289136Y-79587D02*
X293218Y-62817D01*
X284096Y-96094D02*
X289136Y-79587D01*
X278116Y-112285D02*
X284096Y-96094D01*
X271214Y-128104D02*
X278116Y-112285D01*
X263414Y-143500D02*
X271214Y-128104D01*
X254741Y-158423D02*
X263414Y-143500D01*
X245225Y-172822D02*
X254741Y-158423D01*
X234896Y-186649D02*
X245225Y-172822D01*
X223789Y-199860D02*
X234896Y-186649D01*
X211941Y-212411D02*
X223789Y-199860D01*
X199391Y-224259D02*
X211941Y-212411D01*
X186180Y-235366D02*
X199391Y-224259D01*
X172352Y-245695D02*
X186180Y-235366D01*
X157953Y-255211D02*
X172352Y-245695D01*
X143031Y-263883D02*
X157953Y-255211D01*
X127634Y-271684D02*
X143031Y-263883D01*
X111815Y-278585D02*
X127634Y-271684D01*
X95625Y-284566D02*
X111815Y-278585D01*
X79117Y-289606D02*
X95625Y-284566D01*
X62347Y-293688D02*
X79117Y-289606D01*
X59693Y-286130D02*
X62347Y-293688D01*
X56130Y-278957D02*
X59693Y-286130D01*
X51711Y-272276D02*
X56130Y-278957D01*
X46505Y-266189D02*
X51711Y-272276D01*
X40589Y-260789D02*
X46505Y-266189D01*
X34054Y-256158D02*
X40589Y-260789D01*
X26998Y-252366D02*
X34054Y-256158D01*
X19530Y-249470D02*
X26998Y-252366D01*
X11763Y-247514D02*
X19530Y-249470D01*
X3814Y-246529D02*
X11763Y-247514D01*
X-4196Y-246529D02*
X3814D01*
X-12145Y-247514D02*
X-4196Y-246529D01*
X-19913Y-249470D02*
X-12145Y-247514D01*
X-27381Y-252366D02*
X-19913Y-249470D01*
X-34436Y-256158D02*
X-27381Y-252366D01*
X-40971Y-260789D02*
X-34436Y-256158D01*
X-46887Y-266189D02*
X-40971Y-260789D01*
X-52094Y-272276D02*
X-46887Y-266189D01*
X-56512Y-278957D02*
X-52094Y-272276D01*
X-60076Y-286130D02*
X-56512Y-278957D01*
X-62730Y-293688D02*
X-60076Y-286130D01*
X-79500Y-289606D02*
X-62730Y-293688D01*
X-96007Y-284566D02*
X-79500Y-289606D01*
X-112197Y-278585D02*
X-96007Y-284566D01*
X-128017Y-271684D02*
X-112197Y-278585D01*
X-143413Y-263883D02*
X-128017Y-271684D01*
X-158335Y-255211D02*
X-143413Y-263883D01*
X-172734Y-245695D02*
X-158335Y-255211D01*
X-186562Y-235366D02*
X-172734Y-245695D01*
X-199773Y-224259D02*
X-186562Y-235366D01*
X-212323Y-212411D02*
X-199773Y-224259D01*
X-224172Y-199860D02*
X-212323Y-212411D01*
X-235278Y-186649D02*
X-224172Y-199860D01*
X-245607Y-172822D02*
X-235278Y-186649D01*
X-255124Y-158423D02*
X-245607Y-172822D01*
X-263796Y-143500D02*
X-255124Y-158423D01*
X-271596Y-128104D02*
X-263796Y-143500D01*
X-278498Y-112285D02*
X-271596Y-128104D01*
X-284479Y-96094D02*
X-278498Y-112285D01*
X-289518Y-79587D02*
X-284479Y-96094D01*
X-293601Y-62817D02*
X-289518Y-79587D01*
X-293601Y-62817D02*
X-202227Y-38984D01*
X-196381Y-36964D01*
X-190916Y-34068D01*
X-185963Y-30364D01*
X-181640Y-25940D01*
X-178051Y-20903D01*
X-175281Y-15373D01*
X-173396Y-9482D01*
X-172443Y-3371D01*
Y2814D01*
X-173396Y8925D02*
X-172443Y2814D01*
X-175281Y14816D02*
X-173396Y8925D01*
X-178051Y20346D02*
X-175281Y14816D01*
X-181640Y25384D02*
X-178051Y20346D01*
X-185963Y29807D02*
X-181640Y25384D01*
X-190916Y33511D02*
X-185963Y29807D01*
X-196381Y36407D02*
X-190916Y33511D01*
X-202227Y38426D02*
X-196381Y36407D01*
X-293601Y62260D02*
X-202227Y38426D01*
X-293601Y62260D02*
X-289518Y79030D01*
X-284479Y95537D01*
X-278498Y111728D01*
X-271596Y127547D01*
X-263796Y142943D01*
X-255124Y157866D01*
X-245607Y172265D01*
X-235278Y186092D01*
X-224172Y199303D01*
X-212323Y211854D01*
X-199773Y223702D01*
X-186562Y234809D01*
X-172734Y245137D01*
X209149Y-74491D02*
X211941Y-70989D01*
D11*
X-111583Y260428D02*
D03*
X105566Y263463D02*
D03*
X261260Y112062D02*
D03*
X264295Y-105087D02*
D03*
X112894Y-260781D02*
D03*
X-104255Y-263816D02*
D03*
X-259949Y-112414D02*
D03*
X-262984Y104735D02*
D03*
D12*
X-102828Y59563D02*
D03*
X-59411Y102980D02*
D03*
X-102Y118872D02*
D03*
X59207Y102980D02*
D03*
X102624Y59563D02*
D03*
X118516Y254D02*
D03*
X102624Y-59055D02*
D03*
X59207Y-102472D02*
D03*
X-102Y-118364D02*
D03*
X-59411Y-102472D02*
D03*
X-102828Y-59055D02*
D03*
X-118720Y254D02*
D03*
X-193989Y111980D02*
D03*
X-111896Y193887D02*
D03*
X112132Y193633D02*
D03*
X194039Y111540D02*
D03*
X193785Y-112488D02*
D03*
X111692Y-194395D02*
D03*
X-356Y-224282D02*
D03*
X-112336Y-194141D02*
D03*
X-194243Y-112048D02*
D03*
X-164014Y94302D02*
D03*
X-95030Y163658D02*
D03*
X93946Y164166D02*
D03*
X163302Y95182D02*
D03*
X163810Y-93794D02*
D03*
X94826Y-163150D02*
D03*
X406Y-188722D02*
D03*
X-94150Y-163658D02*
D03*
X-163506Y-94674D02*
D03*
X223926Y-508D02*
D03*
X188874Y762D02*
D03*
M02*
