%FSLAX44Y44*%
%MOMM*%
G71*
G01*
G75*
G04 Layer_Color=2752767*
%ADD10C,0.2540*%
%ADD11R,1.1000X1.7000*%
%ADD12R,1.7000X1.1000*%
%ADD13R,2.0000X0.9000*%
%ADD14R,0.9000X2.0000*%
%ADD15R,1.3300X1.3300*%
%ADD16R,0.4000X1.0500*%
%ADD17R,0.8000X1.9000*%
%ADD18R,1.0000X1.7000*%
%ADD19R,1.9000X0.8000*%
%ADD20R,1.7000X1.0000*%
%ADD21R,2.6000X1.1000*%
%ADD22R,1.1000X2.6000*%
%ADD23R,1.1500X0.6000*%
%ADD24R,0.6000X1.1500*%
G04:AMPARAMS|DCode=25|XSize=1.97mm|YSize=0.89mm|CornerRadius=0.1113mm|HoleSize=0mm|Usage=FLASHONLY|Rotation=270.000|XOffset=0mm|YOffset=0mm|HoleType=Round|Shape=RoundedRectangle|*
%AMROUNDEDRECTD25*
21,1,1.9700,0.6675,0,0,270.0*
21,1,1.7475,0.8900,0,0,270.0*
1,1,0.2225,-0.3337,-0.8738*
1,1,0.2225,-0.3337,0.8738*
1,1,0.2225,0.3337,0.8738*
1,1,0.2225,0.3337,-0.8738*
%
%ADD25ROUNDEDRECTD25*%
G04:AMPARAMS|DCode=26|XSize=1.97mm|YSize=3.19mm|CornerRadius=0.2463mm|HoleSize=0mm|Usage=FLASHONLY|Rotation=270.000|XOffset=0mm|YOffset=0mm|HoleType=Round|Shape=RoundedRectangle|*
%AMROUNDEDRECTD26*
21,1,1.9700,2.6975,0,0,270.0*
21,1,1.4775,3.1900,0,0,270.0*
1,1,0.4925,-1.3487,-0.7388*
1,1,0.4925,-1.3487,0.7388*
1,1,0.4925,1.3487,0.7388*
1,1,0.4925,1.3487,-0.7388*
%
%ADD26ROUNDEDRECTD26*%
%ADD27R,0.6000X1.1500*%
%ADD28R,2.0000X4.2000*%
%ADD29R,1.2700X0.5080*%
%ADD30R,0.3810X0.3810*%
%ADD31O,0.6000X2.2000*%
%ADD32R,0.9144X0.9144*%
%ADD33R,0.9144X1.2700*%
%ADD34C,0.5080*%
%ADD35C,0.7620*%
%ADD36C,0.3810*%
%ADD37C,0.3048*%
%ADD38R,2.0320X8.2804*%
%ADD39R,3.9833X12.6746*%
%ADD40P,1.6496X8X112.5*%
%ADD41C,1.5000*%
%ADD42R,1.5000X1.5000*%
%ADD43C,1.2700*%
%ADD44O,1.7000X1.1000*%
%ADD45O,2.0000X4.0000*%
%ADD46R,1.5000X1.5000*%
%ADD47P,2.1648X8X112.5*%
%ADD48C,4.0000*%
%ADD49R,1.7780X1.0160*%
%ADD50R,1.2016X1.8016*%
%ADD51R,1.8016X1.2016*%
%ADD52R,2.1016X1.0016*%
%ADD53R,1.0016X2.1016*%
%ADD54R,1.4316X1.4316*%
%ADD55R,0.9016X2.0016*%
%ADD56R,1.1016X1.8016*%
%ADD57R,2.0016X0.9016*%
%ADD58R,1.8016X1.1016*%
%ADD59R,2.7016X1.2016*%
%ADD60R,1.2016X2.7016*%
%ADD61R,1.2516X0.7016*%
%ADD62R,0.7016X1.2516*%
G04:AMPARAMS|DCode=63|XSize=2.0716mm|YSize=0.9916mm|CornerRadius=0.1621mm|HoleSize=0mm|Usage=FLASHONLY|Rotation=270.000|XOffset=0mm|YOffset=0mm|HoleType=Round|Shape=RoundedRectangle|*
%AMROUNDEDRECTD63*
21,1,2.0716,0.6675,0,0,270.0*
21,1,1.7475,0.9916,0,0,270.0*
1,1,0.3241,-0.3337,-0.8738*
1,1,0.3241,-0.3337,0.8738*
1,1,0.3241,0.3337,0.8738*
1,1,0.3241,0.3337,-0.8738*
%
%ADD63ROUNDEDRECTD63*%
G04:AMPARAMS|DCode=64|XSize=2.0716mm|YSize=3.2916mm|CornerRadius=0.297mm|HoleSize=0mm|Usage=FLASHONLY|Rotation=270.000|XOffset=0mm|YOffset=0mm|HoleType=Round|Shape=RoundedRectangle|*
%AMROUNDEDRECTD64*
21,1,2.0716,2.6975,0,0,270.0*
21,1,1.4775,3.2916,0,0,270.0*
1,1,0.5941,-1.3487,-0.7388*
1,1,0.5941,-1.3487,0.7388*
1,1,0.5941,1.3487,0.7388*
1,1,0.5941,1.3487,-0.7388*
%
%ADD64ROUNDEDRECTD64*%
%ADD65R,0.7016X1.2516*%
%ADD66R,2.1016X4.3016*%
%ADD67R,1.3716X0.6096*%
%ADD68O,0.7016X2.3016*%
%ADD69R,1.0160X1.0160*%
%ADD70R,1.0160X1.3716*%
%ADD71P,1.7595X8X112.5*%
%ADD72C,1.6016*%
%ADD73R,1.6016X1.6016*%
%ADD74C,1.3716*%
%ADD75O,1.8016X1.2016*%
%ADD76O,2.1016X4.1016*%
%ADD77R,1.6016X1.6016*%
%ADD78P,2.2748X8X112.5*%
%ADD79C,4.1016*%
%ADD80C,0.1016*%
%ADD81C,0.1270*%
%ADD82C,0.1693*%
D81*
X375412Y149860D02*
Y160020D01*
X385572D01*
Y149860D01*
X375412D01*
X294800Y318680D02*
X289720Y328840D01*
X299880D01*
X294800Y318680D01*
X326710Y286770D02*
X321630Y296930D01*
X331790D01*
X326710Y286770D01*
X294800Y254860D02*
X289720Y265020D01*
X299880D01*
X294800Y254860D01*
X262890Y286770D02*
X257810Y296930D01*
X267970D01*
X262890Y286770D01*
X96360Y362490D02*
X98900Y365030D01*
X101440D01*
X98900Y367570D01*
X101440Y370110D01*
X98900D01*
X96360Y372650D01*
X93820Y370110D01*
X91280D01*
X93820Y367570D01*
X91280Y365030D01*
X93820D01*
X96360Y362490D01*
X76360D02*
X78900Y365030D01*
X81440D01*
X78900Y367570D01*
X81440Y370110D01*
X78900D01*
X76360Y372650D01*
X73820Y370110D01*
X71280D01*
X73820Y367570D01*
X71280Y365030D01*
X73820D01*
X76360Y362490D01*
X113280Y341390D02*
X115820Y346470D01*
X113280Y351550D01*
X118360Y349010D01*
X123440Y351550D01*
X120900Y346470D01*
X123440Y341390D01*
X118360Y343930D01*
X113280Y341390D01*
X49280D02*
X51820Y346470D01*
X49280Y351550D01*
X54360Y349010D01*
X59440Y351550D01*
X56900Y346470D01*
X59440Y341390D01*
X54360Y343930D01*
X49280Y341390D01*
X292260Y289310D02*
Y286770D01*
X297340D01*
Y289310D01*
X299880D01*
Y294390D01*
X297340D01*
Y296930D01*
X292260D01*
Y294390D01*
X289720D01*
Y289310D01*
X292260D01*
X387350Y-30480D02*
X382270Y-20320D01*
X392430D01*
X387350Y-30480D01*
X361950D02*
X356870Y-20320D01*
X367030D01*
X361950Y-30480D01*
X336550D02*
X331470Y-20320D01*
X341630D01*
X336550Y-30480D01*
X311150D02*
X306070Y-20320D01*
X316230D01*
X311150Y-30480D01*
X285750D02*
X280670Y-20320D01*
X290830D01*
X285750Y-30480D01*
X260350D02*
X255270Y-20320D01*
X265430D01*
X260350Y-30480D01*
X234950D02*
X229870Y-20320D01*
X240030D01*
X234950Y-30480D01*
X209550D02*
X204470Y-20320D01*
X214630D01*
X209550Y-30480D01*
X412750D02*
X407670Y-20320D01*
X417830D01*
X412750Y-30480D01*
X294640Y119126D02*
X289560Y129286D01*
X299720D01*
X294640Y119126D01*
X338328Y139700D02*
X333248Y149860D01*
X343408D01*
X338328Y139700D01*
X272796Y243586D02*
X267716Y253746D01*
X277876D01*
X272796Y243586D01*
X244856Y227330D02*
X239776Y237490D01*
X249936D01*
X244856Y227330D01*
X26000Y188920D02*
X20920Y199080D01*
X31080D01*
X26000Y188920D01*
Y166920D02*
X20920Y177080D01*
X31080D01*
X26000Y166920D01*
X242570Y335040D02*
X237490Y345200D01*
X247650D01*
X242570Y335040D01*
X108204Y132842D02*
X103124Y143002D01*
X113284D01*
X108204Y132842D01*
X257000Y40920D02*
X251920Y51080D01*
X262080D01*
X257000Y40920D01*
X335500Y56920D02*
X330420Y67080D01*
X340580D01*
X335500Y56920D01*
X232750Y182420D02*
X227670Y192580D01*
X237830D01*
X232750Y182420D01*
X359000Y56920D02*
X353920Y67080D01*
X364080D01*
X359000Y56920D01*
X138430Y177800D02*
X133350Y187960D01*
X143510D01*
X138430Y177800D01*
X102190Y89890D02*
X97110Y100050D01*
X107270D01*
X102190Y89890D01*
X243840Y260096D02*
X238760Y270256D01*
X248920D01*
X243840Y260096D01*
X145580Y275590D02*
X140500Y285750D01*
X150660D01*
X145580Y275590D01*
X163000Y213920D02*
X157920Y224080D01*
X168080D01*
X163000Y213920D01*
X147574Y365252D02*
X142494Y375412D01*
X152654D01*
X147574Y365252D01*
X116000Y178920D02*
X110920Y189080D01*
X121080D01*
X116000Y178920D01*
Y195920D02*
X110920Y206080D01*
X121080D01*
X116000Y195920D01*
X240030Y294894D02*
X234950Y305054D01*
X245110D01*
X240030Y294894D01*
X256000Y322920D02*
X250920Y333080D01*
X261080D01*
X256000Y322920D01*
X242570Y361710D02*
X237490Y371870D01*
X247650D01*
X242570Y361710D01*
X256000Y347920D02*
X250920Y358080D01*
X261080D01*
X256000Y347920D01*
X242570Y310910D02*
X237490Y321070D01*
X247650D01*
X242570Y310910D01*
X368000Y361920D02*
X362920Y372080D01*
X373080D01*
X368000Y361920D01*
X369000Y334920D02*
X363920Y345080D01*
X374080D01*
X369000Y334920D01*
X354000Y323920D02*
X348920Y334080D01*
X359080D01*
X354000Y323920D01*
X524764Y134874D02*
X519684Y145034D01*
X529844D01*
X524764Y134874D01*
X343408Y218440D02*
X338328Y228600D01*
X348488D01*
X343408Y218440D01*
X438912Y234442D02*
X433832Y244602D01*
X443992D01*
X438912Y234442D01*
X454660Y189230D02*
X449580Y199390D01*
X459740D01*
X454660Y189230D01*
X551180Y151638D02*
X546100Y161798D01*
X556260D01*
X551180Y151638D01*
X580644Y152654D02*
X575564Y162814D01*
X585724D01*
X580644Y152654D01*
X528828Y75184D02*
X523748Y85344D01*
X533908D01*
X528828Y75184D01*
X499364Y74168D02*
X494284Y84328D01*
X504444D01*
X499364Y74168D01*
X264000Y6920D02*
X258920Y17080D01*
X269080D01*
X264000Y6920D01*
X311000Y55920D02*
X305920Y66080D01*
X316080D01*
X311000Y55920D01*
X293000Y54920D02*
X287920Y65080D01*
X298080D01*
X293000Y54920D01*
X121158Y89916D02*
X116078Y100076D01*
X126238D01*
X121158Y89916D01*
X117602Y49276D02*
X112522Y59436D01*
X122682D01*
X117602Y49276D01*
X59182Y24638D02*
X54102Y34798D01*
X64262D01*
X59182Y24638D01*
X58928Y48260D02*
X53848Y58420D01*
X64008D01*
X58928Y48260D01*
X357378Y281940D02*
X352298Y292100D01*
X362458D01*
X357378Y281940D01*
X350774Y298704D02*
X345694Y308864D01*
X355854D01*
X350774Y298704D01*
X369062Y311150D02*
X363982Y321310D01*
X374142D01*
X369062Y311150D01*
X338582Y310896D02*
X333502Y321056D01*
X343662D01*
X338582Y310896D01*
X367538Y266954D02*
X362458Y277114D01*
X372618D01*
X367538Y266954D01*
X355854Y228346D02*
X350774Y238506D01*
X360934D01*
X355854Y228346D01*
X360934Y206248D02*
X355854Y216408D01*
X366014D01*
X360934Y206248D01*
X184150Y-30480D02*
X179070Y-20320D01*
X189230D01*
X184150Y-30480D01*
D82*
X455930Y337312D02*
G03*
X455930Y337312I-5080J0D01*
G01*
X481330D02*
G03*
X481330Y337312I-5080J0D01*
G01*
X506730D02*
G03*
X506730Y337312I-5080J0D01*
G01*
X532130D02*
G03*
X532130Y337312I-5080J0D01*
G01*
X557530D02*
G03*
X557530Y337312I-5080J0D01*
G01*
X184120Y21580D02*
G03*
X184120Y21580I-5080J0D01*
G01*
Y46980D02*
G03*
X184120Y46980I-5080J0D01*
G01*
X455930Y362712D02*
G03*
X455930Y362712I-5080J0D01*
G01*
X481330D02*
G03*
X481330Y362712I-5080J0D01*
G01*
X506730D02*
G03*
X506730Y362712I-5080J0D01*
G01*
X532130D02*
G03*
X532130Y362712I-5080J0D01*
G01*
X557530D02*
G03*
X557530Y362712I-5080J0D01*
G01*
X57144Y301142D02*
G03*
X57144Y301142I-5080J0D01*
G01*
Y275742D02*
G03*
X57144Y275742I-5080J0D01*
G01*
X467360Y293624D02*
G03*
X467360Y293624I-5080J0D01*
G01*
X492760D02*
G03*
X492760Y293624I-5080J0D01*
G01*
X518160D02*
G03*
X518160Y293624I-5080J0D01*
G01*
X543560D02*
G03*
X543560Y293624I-5080J0D01*
G01*
X536956Y19812D02*
G03*
X536956Y19812I-5080J0D01*
G01*
X582930Y362712D02*
G03*
X582930Y362712I-5080J0D01*
G01*
Y337312D02*
G03*
X582930Y337312I-5080J0D01*
G01*
M02*
