%FSLAX44Y44*%
%MOMM*%
G71*
G01*
G75*
G04 Layer_Physical_Order=3*
G04 Layer_Color=16711680*
%ADD10C,0.2540*%
%ADD11R,1.1000X1.7000*%
%ADD12R,1.7000X1.1000*%
%ADD13R,2.0000X0.9000*%
%ADD14R,0.9000X2.0000*%
%ADD15R,1.3300X1.3300*%
%ADD16R,0.4000X1.0500*%
%ADD17R,0.8000X1.9000*%
%ADD18R,1.0000X1.7000*%
%ADD19R,1.9000X0.8000*%
%ADD20R,1.7000X1.0000*%
%ADD21R,2.6000X1.1000*%
%ADD22R,1.1000X2.6000*%
%ADD23R,1.1500X0.6000*%
%ADD24R,0.6000X1.1500*%
G04:AMPARAMS|DCode=25|XSize=1.97mm|YSize=0.89mm|CornerRadius=0.1113mm|HoleSize=0mm|Usage=FLASHONLY|Rotation=270.000|XOffset=0mm|YOffset=0mm|HoleType=Round|Shape=RoundedRectangle|*
%AMROUNDEDRECTD25*
21,1,1.9700,0.6675,0,0,270.0*
21,1,1.7475,0.8900,0,0,270.0*
1,1,0.2225,-0.3337,-0.8738*
1,1,0.2225,-0.3337,0.8738*
1,1,0.2225,0.3337,0.8738*
1,1,0.2225,0.3337,-0.8738*
%
%ADD25ROUNDEDRECTD25*%
G04:AMPARAMS|DCode=26|XSize=1.97mm|YSize=3.19mm|CornerRadius=0.2463mm|HoleSize=0mm|Usage=FLASHONLY|Rotation=270.000|XOffset=0mm|YOffset=0mm|HoleType=Round|Shape=RoundedRectangle|*
%AMROUNDEDRECTD26*
21,1,1.9700,2.6975,0,0,270.0*
21,1,1.4775,3.1900,0,0,270.0*
1,1,0.4925,-1.3487,-0.7388*
1,1,0.4925,-1.3487,0.7388*
1,1,0.4925,1.3487,0.7388*
1,1,0.4925,1.3487,-0.7388*
%
%ADD26ROUNDEDRECTD26*%
%ADD27R,0.6000X1.1500*%
%ADD28R,2.0000X4.2000*%
%ADD29R,1.2700X0.5080*%
%ADD30R,0.3810X0.3810*%
%ADD31O,0.6000X2.2000*%
%ADD32R,0.9144X0.9144*%
%ADD33R,0.9144X1.2700*%
%ADD34C,0.5080*%
%ADD35C,0.7620*%
%ADD36C,0.3810*%
%ADD37C,0.3048*%
%ADD38R,2.0320X8.2804*%
%ADD39R,3.9833X12.6746*%
%ADD40P,1.6496X8X112.5*%
%ADD41C,1.5000*%
%ADD42R,1.5000X1.5000*%
%ADD43C,1.2700*%
%ADD44O,1.7000X1.1000*%
%ADD45O,2.0000X4.0000*%
%ADD46R,1.5000X1.5000*%
%ADD47P,2.1648X8X112.5*%
%ADD48C,4.0000*%
G36*
X593657Y133559D02*
X556611D01*
X554667Y132754D01*
X553862Y130810D01*
Y4064D01*
X553819Y4000D01*
X390652D01*
Y8569D01*
X509965Y8950D01*
Y59950D01*
X390652Y60587D01*
Y137160D01*
X370332D01*
Y64851D01*
X367551Y64578D01*
X367374Y65469D01*
X365409Y68409D01*
X362469Y70374D01*
X360905Y70685D01*
Y61997D01*
Y53315D01*
X362469Y53626D01*
X365409Y55591D01*
X367374Y58531D01*
X367551Y59422D01*
X370332Y59149D01*
Y4000D01*
X272310D01*
X270993Y6464D01*
X272374Y8531D01*
X272685Y10095D01*
X255315D01*
X255626Y8531D01*
X257007Y6464D01*
X255690Y4000D01*
X46181D01*
X46139Y4064D01*
Y130810D01*
X45333Y132754D01*
X43389Y133559D01*
X3657D01*
Y347765D01*
Y376701D01*
X67741D01*
X68552Y374027D01*
X67564Y373367D01*
X65786Y370707D01*
X65541Y369475D01*
X76363D01*
Y367573D01*
X78265D01*
Y359372D01*
X79360D01*
X82497Y359996D01*
X85156Y361773D01*
X87563D01*
X90223Y359996D01*
X93360Y359372D01*
X94455D01*
Y367573D01*
X96357D01*
Y369475D01*
X107179D01*
X106933Y370707D01*
X105156Y373367D01*
X104168Y374027D01*
X104979Y376701D01*
X138174D01*
X139491Y374237D01*
X139200Y373801D01*
X138510Y370332D01*
X139200Y366863D01*
X141165Y363923D01*
X144105Y361958D01*
X147574Y361268D01*
X151043Y361958D01*
X153983Y363923D01*
X155948Y366863D01*
X156638Y370332D01*
X155948Y373801D01*
X155657Y374237D01*
X156974Y376701D01*
X213110D01*
X214800Y376001D01*
X235541D01*
X236352Y373327D01*
X236161Y373199D01*
X234196Y370259D01*
X233885Y368695D01*
X251255D01*
X250944Y370259D01*
X248979Y373199D01*
X248788Y373327D01*
X249599Y376001D01*
X359859D01*
X361591Y373409D01*
X359626Y370469D01*
X359315Y368905D01*
X376685D01*
X376374Y370469D01*
X374409Y373409D01*
X371745Y375190D01*
Y375190D01*
X371745D01*
X371469Y375374D01*
Y375374D01*
X371530Y376001D01*
X394800D01*
X396490Y376701D01*
X593657D01*
Y133559D01*
D02*
G37*
%LPC*%
G36*
X24095Y180685D02*
X22531Y180374D01*
X19591Y178409D01*
X17626Y175469D01*
X17315Y173905D01*
X24095D01*
Y180685D01*
D02*
G37*
G36*
X360934Y220392D02*
X357465Y219702D01*
X354525Y217737D01*
X352560Y214797D01*
X351870Y211328D01*
X352560Y207859D01*
X354525Y204919D01*
X357465Y202954D01*
X360934Y202264D01*
X364403Y202954D01*
X367343Y204919D01*
X367658Y205390D01*
X370332Y204579D01*
Y172212D01*
X390652D01*
Y220218D01*
X370332D01*
Y218077D01*
X367658Y217266D01*
X367343Y217737D01*
X364403Y219702D01*
X360934Y220392D01*
D02*
G37*
G36*
X34685Y170095D02*
X27905D01*
Y163315D01*
X29469Y163626D01*
X32409Y165591D01*
X34374Y168531D01*
X34685Y170095D01*
D02*
G37*
G36*
X27905Y180685D02*
Y173905D01*
X34685D01*
X34374Y175469D01*
X32409Y178409D01*
X29469Y180374D01*
X27905Y180685D01*
D02*
G37*
G36*
X230845Y185595D02*
X224065D01*
X224376Y184031D01*
X226341Y181091D01*
X229281Y179126D01*
X230845Y178815D01*
Y185595D01*
D02*
G37*
G36*
X147115Y180975D02*
X140335D01*
Y174195D01*
X141899Y174506D01*
X144839Y176471D01*
X146804Y179411D01*
X147115Y180975D01*
D02*
G37*
G36*
X136525D02*
X129745D01*
X130056Y179411D01*
X132021Y176471D01*
X134961Y174506D01*
X136525Y174195D01*
Y180975D01*
D02*
G37*
G36*
X559865Y154813D02*
X553085D01*
Y148033D01*
X554649Y148344D01*
X557589Y150309D01*
X559554Y153249D01*
X559865Y154813D01*
D02*
G37*
G36*
X549275D02*
X542495D01*
X542806Y153249D01*
X544771Y150309D01*
X547711Y148344D01*
X549275Y148033D01*
Y154813D01*
D02*
G37*
G36*
X385572Y165100D02*
X375412D01*
X370332Y160020D01*
Y149860D01*
X375412Y144780D01*
X385572D01*
X390652Y149860D01*
Y160020D01*
X385572Y165100D01*
D02*
G37*
G36*
X580644Y166798D02*
X577175Y166108D01*
X574235Y164143D01*
X572270Y161203D01*
X571580Y157734D01*
X572270Y154265D01*
X574235Y151325D01*
X577175Y149360D01*
X580644Y148670D01*
X584113Y149360D01*
X587053Y151325D01*
X589018Y154265D01*
X589708Y157734D01*
X589018Y161203D01*
X587053Y164143D01*
X584113Y166108D01*
X580644Y166798D01*
D02*
G37*
G36*
X24095Y170095D02*
X17315D01*
X17626Y168531D01*
X19591Y165591D01*
X22531Y163626D01*
X24095Y163315D01*
Y170095D01*
D02*
G37*
G36*
X553085Y165403D02*
Y158623D01*
X559865D01*
X559554Y160187D01*
X557589Y163127D01*
X554649Y165092D01*
X553085Y165403D01*
D02*
G37*
G36*
X549275D02*
X547711Y165092D01*
X544771Y163127D01*
X542806Y160187D01*
X542495Y158623D01*
X549275D01*
Y165403D01*
D02*
G37*
G36*
X241435Y185595D02*
X234655D01*
Y178815D01*
X236219Y179126D01*
X239159Y181091D01*
X241124Y184031D01*
X241435Y185595D01*
D02*
G37*
G36*
X438912Y248586D02*
X435443Y247896D01*
X432503Y245931D01*
X430538Y242991D01*
X429848Y239522D01*
X430538Y236053D01*
X432503Y233113D01*
X435443Y231148D01*
X438912Y230458D01*
X442381Y231148D01*
X445321Y233113D01*
X447286Y236053D01*
X447976Y239522D01*
X447286Y242991D01*
X445321Y245931D01*
X442381Y247896D01*
X438912Y248586D01*
D02*
G37*
G36*
X244856Y241992D02*
X241189Y241263D01*
X238080Y239186D01*
X236003Y236077D01*
X235274Y232410D01*
X236003Y228743D01*
X238080Y225634D01*
X241189Y223557D01*
X244856Y222828D01*
X248523Y223557D01*
X251632Y225634D01*
X253709Y228743D01*
X254438Y232410D01*
X253709Y236077D01*
X251632Y239186D01*
X248523Y241263D01*
X244856Y241992D01*
D02*
G37*
G36*
X163000Y228064D02*
X159531Y227374D01*
X156591Y225409D01*
X154626Y222469D01*
X153936Y219000D01*
X154626Y215531D01*
X156591Y212591D01*
X159531Y210626D01*
X163000Y209936D01*
X166469Y210626D01*
X169409Y212591D01*
X171374Y215531D01*
X172064Y219000D01*
X171374Y222469D01*
X169409Y225409D01*
X166469Y227374D01*
X163000Y228064D01*
D02*
G37*
G36*
X355854Y243008D02*
X352187Y242279D01*
X349078Y240202D01*
X347001Y237093D01*
X346387Y234006D01*
X344064Y232454D01*
X343408Y232584D01*
X339939Y231894D01*
X336999Y229929D01*
X335034Y226989D01*
X334344Y223520D01*
X335034Y220051D01*
X336999Y217111D01*
X339939Y215146D01*
X343408Y214456D01*
X346877Y215146D01*
X349817Y217111D01*
X351782Y220051D01*
X352472Y223520D01*
X353303Y224351D01*
X355854Y223844D01*
X359521Y224573D01*
X362630Y226650D01*
X364707Y229759D01*
X365436Y233426D01*
X364707Y237093D01*
X362630Y240202D01*
X359521Y242279D01*
X355854Y243008D01*
D02*
G37*
G36*
X303485Y258035D02*
X296705D01*
Y251255D01*
X298269Y251566D01*
X301209Y253531D01*
X303174Y256471D01*
X303485Y258035D01*
D02*
G37*
G36*
X292895D02*
X286115D01*
X286426Y256471D01*
X288391Y253531D01*
X291331Y251566D01*
X292895Y251255D01*
Y258035D01*
D02*
G37*
G36*
X272796Y257730D02*
X269327Y257040D01*
X266387Y255075D01*
X264422Y252135D01*
X263732Y248666D01*
X264422Y245197D01*
X266387Y242257D01*
X269327Y240292D01*
X272796Y239602D01*
X276265Y240292D01*
X279205Y242257D01*
X281170Y245197D01*
X281860Y248666D01*
X281170Y252135D01*
X279205Y255075D01*
X276265Y257040D01*
X272796Y257730D01*
D02*
G37*
G36*
X26000Y203064D02*
X22531Y202374D01*
X19591Y200409D01*
X17626Y197469D01*
X16936Y194000D01*
X17626Y190531D01*
X19591Y187591D01*
X22531Y185626D01*
X26000Y184936D01*
X29469Y185626D01*
X32409Y187591D01*
X34374Y190531D01*
X35064Y194000D01*
X34374Y197469D01*
X32409Y200409D01*
X29469Y202374D01*
X26000Y203064D01*
D02*
G37*
G36*
X140335Y191565D02*
Y184785D01*
X147115D01*
X146804Y186349D01*
X144839Y189289D01*
X141899Y191254D01*
X140335Y191565D01*
D02*
G37*
G36*
X136525D02*
X134961Y191254D01*
X132021Y189289D01*
X130056Y186349D01*
X129745Y184785D01*
X136525D01*
Y191565D01*
D02*
G37*
G36*
X454660Y203374D02*
X451191Y202684D01*
X448251Y200719D01*
X446286Y197779D01*
X445596Y194310D01*
X446286Y190841D01*
X448251Y187901D01*
X451191Y185936D01*
X454660Y185246D01*
X458129Y185936D01*
X461069Y187901D01*
X463034Y190841D01*
X463724Y194310D01*
X463034Y197779D01*
X461069Y200719D01*
X458129Y202684D01*
X454660Y203374D01*
D02*
G37*
G36*
X116000Y210064D02*
X112531Y209374D01*
X109591Y207409D01*
X107626Y204469D01*
X106936Y201000D01*
X107626Y197531D01*
X109591Y194591D01*
X110629Y193897D01*
Y191103D01*
X109591Y190409D01*
X107626Y187469D01*
X106936Y184000D01*
X107626Y180531D01*
X109591Y177591D01*
X112531Y175626D01*
X116000Y174936D01*
X119469Y175626D01*
X122409Y177591D01*
X124374Y180531D01*
X125064Y184000D01*
X124374Y187469D01*
X122409Y190409D01*
X119469Y192374D01*
X122409Y194591D01*
X122409Y194591D01*
Y194591D01*
X122409Y194591D01*
X122409Y194591D01*
X122409Y194591D01*
X122409Y194591D01*
D01*
X124374Y197531D01*
X125064Y201000D01*
X124374Y204469D01*
X122409Y207409D01*
X119469Y209374D01*
X116000Y210064D01*
D02*
G37*
G36*
X234655Y196185D02*
Y189405D01*
X241435D01*
X241124Y190969D01*
X239159Y193909D01*
X236219Y195874D01*
X234655Y196185D01*
D02*
G37*
G36*
X230845D02*
X229281Y195874D01*
X226341Y193909D01*
X224376Y190969D01*
X224065Y189405D01*
X230845D01*
Y196185D01*
D02*
G37*
G36*
X57277Y38403D02*
X55713Y38092D01*
X52773Y36127D01*
X50808Y33187D01*
X50497Y31623D01*
X57277D01*
Y38403D01*
D02*
G37*
G36*
X538146Y32352D02*
X533781D01*
Y21717D01*
X544416D01*
Y26082D01*
X538146Y32352D01*
D02*
G37*
G36*
X529971D02*
X525606D01*
X519336Y26082D01*
Y21717D01*
X529971D01*
Y32352D01*
D02*
G37*
G36*
X61087Y38403D02*
Y31623D01*
X67867D01*
X67556Y33187D01*
X65591Y36127D01*
X62651Y38092D01*
X61087Y38403D01*
D02*
G37*
G36*
X58928Y62922D02*
X55261Y62193D01*
X52152Y60116D01*
X50075Y57007D01*
X49346Y53340D01*
X50075Y49673D01*
X52152Y46564D01*
X55261Y44487D01*
X58928Y43758D01*
X62595Y44487D01*
X65704Y46564D01*
X67781Y49673D01*
X68510Y53340D01*
X67781Y57007D01*
X65704Y60116D01*
X62595Y62193D01*
X58928Y62922D01*
D02*
G37*
G36*
X179040Y57217D02*
X175123Y56437D01*
X171802Y54218D01*
X169583Y50897D01*
X168803Y46980D01*
X169583Y43063D01*
X171802Y39742D01*
X175123Y37522D01*
X179040Y36743D01*
X182957Y37522D01*
X186278Y39742D01*
X188498Y43063D01*
X189277Y46980D01*
X188498Y50897D01*
X186278Y54218D01*
X182957Y56437D01*
X179040Y57217D01*
D02*
G37*
G36*
X257000Y55582D02*
X253333Y54853D01*
X250224Y52776D01*
X248147Y49667D01*
X247418Y46000D01*
X248147Y42333D01*
X250224Y39224D01*
X253333Y37147D01*
X257000Y36418D01*
X260667Y37147D01*
X263776Y39224D01*
X265853Y42333D01*
X266582Y46000D01*
X265853Y49667D01*
X263776Y52776D01*
X260667Y54853D01*
X257000Y55582D01*
D02*
G37*
G36*
X189080Y31620D02*
X169000D01*
Y11540D01*
X189080D01*
Y31620D01*
D02*
G37*
G36*
X544416Y17907D02*
X533781D01*
Y7272D01*
X538146D01*
X544416Y13542D01*
Y17907D01*
D02*
G37*
G36*
X529971D02*
X519336D01*
Y13542D01*
X525606Y7272D01*
X529971D01*
Y17907D01*
D02*
G37*
G36*
X262095Y20685D02*
X260531Y20374D01*
X257591Y18409D01*
X255626Y15469D01*
X255315Y13905D01*
X262095D01*
Y20685D01*
D02*
G37*
G36*
X67867Y27813D02*
X61087D01*
Y21033D01*
X62651Y21344D01*
X65591Y23309D01*
X67556Y26249D01*
X67867Y27813D01*
D02*
G37*
G36*
X57277D02*
X50497D01*
X50808Y26249D01*
X52773Y23309D01*
X55713Y21344D01*
X57277Y21033D01*
Y27813D01*
D02*
G37*
G36*
X265905Y20685D02*
Y13905D01*
X272685D01*
X272374Y15469D01*
X270409Y18409D01*
X267469Y20374D01*
X265905Y20685D01*
D02*
G37*
G36*
X117602Y63420D02*
X114133Y62730D01*
X111193Y60765D01*
X109228Y57825D01*
X108538Y54356D01*
X109228Y50887D01*
X111193Y47947D01*
X114133Y45982D01*
X117602Y45292D01*
X121071Y45982D01*
X124011Y47947D01*
X125976Y50887D01*
X126666Y54356D01*
X125976Y57825D01*
X124011Y60765D01*
X121071Y62730D01*
X117602Y63420D01*
D02*
G37*
G36*
X102190Y104552D02*
X98523Y103823D01*
X95414Y101746D01*
X93337Y98637D01*
X92608Y94970D01*
X93337Y91303D01*
X95414Y88194D01*
X98523Y86117D01*
X102190Y85388D01*
X105857Y86117D01*
X108966Y88194D01*
X110591Y90627D01*
X113385Y90627D01*
X114749Y88587D01*
X117689Y86622D01*
X121158Y85932D01*
X124627Y86622D01*
X127567Y88587D01*
X129532Y91527D01*
X130222Y94996D01*
X129532Y98465D01*
X127567Y101405D01*
X124627Y103370D01*
X121158Y104060D01*
X117689Y103370D01*
X114749Y101405D01*
X113368Y99339D01*
X110574Y99339D01*
X108966Y101746D01*
X105857Y103823D01*
X102190Y104552D01*
D02*
G37*
G36*
X501269Y87933D02*
Y81153D01*
X508049D01*
X507738Y82717D01*
X505773Y85657D01*
X502833Y87622D01*
X501269Y87933D01*
D02*
G37*
G36*
X497459D02*
X495895Y87622D01*
X492955Y85657D01*
X490990Y82717D01*
X490679Y81153D01*
X497459D01*
Y87933D01*
D02*
G37*
G36*
X294640Y133270D02*
X291171Y132580D01*
X288231Y130615D01*
X286266Y127675D01*
X285576Y124206D01*
X286266Y120737D01*
X288231Y117797D01*
X291171Y115832D01*
X294640Y115142D01*
X298109Y115832D01*
X301049Y117797D01*
X303014Y120737D01*
X303704Y124206D01*
X303014Y127675D01*
X301049Y130615D01*
X298109Y132580D01*
X294640Y133270D01*
D02*
G37*
G36*
X338328Y153844D02*
X334859Y153154D01*
X331919Y151189D01*
X329954Y148249D01*
X329264Y144780D01*
X329954Y141311D01*
X331919Y138371D01*
X334859Y136406D01*
X338328Y135716D01*
X341797Y136406D01*
X344737Y138371D01*
X346702Y141311D01*
X347392Y144780D01*
X346702Y148249D01*
X344737Y151189D01*
X341797Y153154D01*
X338328Y153844D01*
D02*
G37*
G36*
X524764Y149018D02*
X521295Y148328D01*
X518355Y146363D01*
X516390Y143423D01*
X515700Y139954D01*
X516390Y136485D01*
X518355Y133545D01*
X521295Y131580D01*
X524764Y130890D01*
X528233Y131580D01*
X531173Y133545D01*
X533138Y136485D01*
X533828Y139954D01*
X533138Y143423D01*
X531173Y146363D01*
X528233Y148328D01*
X524764Y149018D01*
D02*
G37*
G36*
X108204Y146986D02*
X104735Y146296D01*
X101795Y144331D01*
X99830Y141391D01*
X99140Y137922D01*
X99830Y134453D01*
X101795Y131513D01*
X104735Y129548D01*
X108204Y128858D01*
X111673Y129548D01*
X114613Y131513D01*
X116578Y134453D01*
X117268Y137922D01*
X116578Y141391D01*
X114613Y144331D01*
X111673Y146296D01*
X108204Y146986D01*
D02*
G37*
G36*
X357095Y70685D02*
X355531Y70374D01*
X352591Y68409D01*
X350626Y65469D01*
X350315Y63905D01*
X357095D01*
Y70685D01*
D02*
G37*
G36*
Y60095D02*
X350315D01*
X350626Y58531D01*
X352591Y55591D01*
X355531Y53626D01*
X357095Y53315D01*
Y60095D01*
D02*
G37*
G36*
X335500Y71064D02*
X332031Y70374D01*
X329091Y68409D01*
X327126Y65469D01*
X326436Y62000D01*
X327126Y58531D01*
X329091Y55591D01*
X332031Y53626D01*
X335500Y52936D01*
X338969Y53626D01*
X341909Y55591D01*
X343874Y58531D01*
X344564Y62000D01*
X343874Y65469D01*
X341909Y68409D01*
X338969Y70374D01*
X335500Y71064D01*
D02*
G37*
G36*
X311000Y70064D02*
X307531Y69374D01*
X304591Y67409D01*
X303063Y65123D01*
X300269D01*
X299409Y66409D01*
X296469Y68374D01*
X293000Y69064D01*
X289531Y68374D01*
X286591Y66409D01*
X284626Y63469D01*
X283936Y60000D01*
X284626Y56531D01*
X286591Y53591D01*
X289531Y51626D01*
X293000Y50936D01*
X296469Y51626D01*
X299409Y53591D01*
X300937Y55877D01*
X303731D01*
X304591Y54591D01*
X307531Y52626D01*
X311000Y51936D01*
X314469Y52626D01*
X317409Y54591D01*
X319374Y57531D01*
X320064Y61000D01*
X319374Y64469D01*
X317409Y67409D01*
X314469Y69374D01*
X311000Y70064D01*
D02*
G37*
G36*
X528828Y89328D02*
X525359Y88638D01*
X522419Y86673D01*
X520454Y83733D01*
X519764Y80264D01*
X520454Y76795D01*
X522419Y73855D01*
X525359Y71890D01*
X528828Y71200D01*
X532297Y71890D01*
X535237Y73855D01*
X537202Y76795D01*
X537892Y80264D01*
X537202Y83733D01*
X535237Y86673D01*
X532297Y88638D01*
X528828Y89328D01*
D02*
G37*
G36*
X508049Y77343D02*
X501269D01*
Y70563D01*
X502833Y70874D01*
X505773Y72839D01*
X507738Y75779D01*
X508049Y77343D01*
D02*
G37*
G36*
X497459D02*
X490679D01*
X490990Y75779D01*
X492955Y72839D01*
X495895Y70874D01*
X497459Y70563D01*
Y77343D01*
D02*
G37*
G36*
X52455Y368877D02*
X49467Y368282D01*
X45319Y365511D01*
X42548Y361363D01*
X41574Y356470D01*
Y348375D01*
X52455D01*
Y368877D01*
D02*
G37*
G36*
X562490Y347352D02*
X554355D01*
Y339217D01*
X562490D01*
Y347352D01*
D02*
G37*
G36*
X550545D02*
X542410D01*
Y339217D01*
X550545D01*
Y347352D01*
D02*
G37*
G36*
X120265Y368877D02*
Y348375D01*
X131146D01*
Y356470D01*
X130172Y361363D01*
X127401Y365511D01*
X123253Y368282D01*
X120265Y368877D01*
D02*
G37*
G36*
X476250Y372949D02*
X472333Y372169D01*
X469012Y369950D01*
X466792Y366629D01*
X466013Y362712D01*
X466792Y358795D01*
X469012Y355474D01*
X472333Y353255D01*
X476250Y352475D01*
X480167Y353255D01*
X483488Y355474D01*
X485708Y358795D01*
X486487Y362712D01*
X485708Y366629D01*
X483488Y369950D01*
X480167Y372169D01*
X476250Y372949D01*
D02*
G37*
G36*
X450850D02*
X446933Y372169D01*
X443612Y369950D01*
X441393Y366629D01*
X440613Y362712D01*
X441393Y358795D01*
X443612Y355474D01*
X446933Y353255D01*
X450850Y352475D01*
X454767Y353255D01*
X458088Y355474D01*
X460308Y358795D01*
X461087Y362712D01*
X460308Y366629D01*
X458088Y369950D01*
X454767Y372169D01*
X450850Y372949D01*
D02*
G37*
G36*
X251255Y364885D02*
X244475D01*
Y358105D01*
X245628Y358334D01*
X247604Y356358D01*
X246936Y353000D01*
X247415Y350589D01*
X245440Y348613D01*
X242570Y349184D01*
X239101Y348494D01*
X236161Y346529D01*
X234196Y343589D01*
X233506Y340120D01*
X234196Y336651D01*
X236161Y333711D01*
X239101Y331746D01*
X242570Y331056D01*
X245282Y331595D01*
X247258Y329620D01*
X246936Y328000D01*
X247235Y326495D01*
X245260Y324519D01*
X242570Y325054D01*
X239101Y324364D01*
X236161Y322399D01*
X234196Y319459D01*
X233506Y315990D01*
X234196Y312521D01*
X236161Y309581D01*
X234350Y306870D01*
X233621Y306383D01*
X231656Y303443D01*
X230966Y299974D01*
X231656Y296505D01*
X233621Y293565D01*
X236561Y291600D01*
X240030Y290910D01*
X243499Y291600D01*
X246439Y293565D01*
X248404Y296505D01*
X249094Y299974D01*
X248404Y303443D01*
X246439Y306383D01*
X245869Y306764D01*
X246039Y307616D01*
X248979Y309581D01*
X250944Y312521D01*
X251634Y315990D01*
X251335Y317495D01*
X253310Y319471D01*
X256000Y318936D01*
X259469Y319626D01*
X262409Y321591D01*
X264374Y324531D01*
X265064Y328000D01*
X264374Y331469D01*
X262409Y334409D01*
X259469Y336374D01*
X256000Y337064D01*
X253288Y336525D01*
X251312Y338500D01*
X251634Y340120D01*
X251155Y342531D01*
X253130Y344507D01*
X256000Y343936D01*
X259469Y344626D01*
X262409Y346591D01*
X264374Y349531D01*
X265064Y353000D01*
X264374Y356469D01*
X262409Y359409D01*
X259469Y361374D01*
X256000Y362064D01*
X252942Y361456D01*
X250966Y363432D01*
X251255Y364885D01*
D02*
G37*
G36*
X527050Y347549D02*
X523133Y346769D01*
X519812Y344550D01*
X517593Y341229D01*
X516813Y337312D01*
X517593Y333395D01*
X519812Y330074D01*
X523133Y327854D01*
X527050Y327075D01*
X530967Y327854D01*
X534288Y330074D01*
X536507Y333395D01*
X537287Y337312D01*
X536507Y341229D01*
X534288Y344550D01*
X530967Y346769D01*
X527050Y347549D01*
D02*
G37*
G36*
X501650D02*
X497733Y346769D01*
X494412Y344550D01*
X492192Y341229D01*
X491413Y337312D01*
X492192Y333395D01*
X494412Y330074D01*
X497733Y327854D01*
X501650Y327075D01*
X505567Y327854D01*
X508888Y330074D01*
X511107Y333395D01*
X511887Y337312D01*
X511107Y341229D01*
X508888Y344550D01*
X505567Y346769D01*
X501650Y347549D01*
D02*
G37*
G36*
X476250D02*
X472333Y346769D01*
X469012Y344550D01*
X466792Y341229D01*
X466013Y337312D01*
X466792Y333395D01*
X469012Y330074D01*
X472333Y327854D01*
X476250Y327075D01*
X480167Y327854D01*
X483488Y330074D01*
X485708Y333395D01*
X486487Y337312D01*
X485708Y341229D01*
X483488Y344550D01*
X480167Y346769D01*
X476250Y347549D01*
D02*
G37*
G36*
X577850D02*
X573933Y346769D01*
X570612Y344550D01*
X568392Y341229D01*
X567613Y337312D01*
X568392Y333395D01*
X570612Y330074D01*
X573933Y327854D01*
X577850Y327075D01*
X581767Y327854D01*
X585088Y330074D01*
X587308Y333395D01*
X588087Y337312D01*
X587308Y341229D01*
X585088Y344550D01*
X581767Y346769D01*
X577850Y347549D01*
D02*
G37*
G36*
X369000Y349064D02*
X365531Y348374D01*
X362591Y346409D01*
X360626Y343469D01*
X359936Y340000D01*
X360204Y338651D01*
X357881Y337099D01*
X357469Y337374D01*
X354000Y338064D01*
X350531Y337374D01*
X347591Y335409D01*
X345626Y332469D01*
X344936Y329000D01*
X345626Y325531D01*
X345957Y325036D01*
X343981Y323060D01*
X342051Y324350D01*
X338582Y325040D01*
X335113Y324350D01*
X332173Y322385D01*
X330208Y319445D01*
X329518Y315976D01*
X330208Y312507D01*
X332173Y309567D01*
X335113Y307602D01*
X338582Y306912D01*
X340020Y307198D01*
X341996Y305222D01*
X341710Y303784D01*
X342400Y300315D01*
X344365Y297375D01*
X347305Y295410D01*
X349241Y295025D01*
X350310Y292444D01*
X349004Y290489D01*
X348314Y287020D01*
X349004Y283551D01*
X350969Y280611D01*
X353909Y278646D01*
X357378Y277956D01*
X357747Y278029D01*
X359300Y275706D01*
X359164Y275503D01*
X358474Y272034D01*
X359164Y268565D01*
X361129Y265625D01*
X364069Y263660D01*
X367538Y262970D01*
X371007Y263660D01*
X373947Y265625D01*
X375912Y268565D01*
X376602Y272034D01*
X375912Y275503D01*
X373947Y278443D01*
X371007Y280408D01*
X367538Y281098D01*
X367169Y281025D01*
X365616Y283348D01*
X365752Y283551D01*
X366442Y287020D01*
X365752Y290489D01*
X363787Y293429D01*
X360847Y295394D01*
X357378Y296084D01*
X356917Y297197D01*
X357183Y297375D01*
X359148Y300315D01*
X359838Y303784D01*
X359148Y307253D01*
X357183Y310193D01*
X354243Y312158D01*
X350774Y312848D01*
X349336Y312562D01*
X347360Y314538D01*
X347646Y315976D01*
X346956Y319445D01*
X346625Y319940D01*
X348601Y321916D01*
X350531Y320626D01*
X354000Y319936D01*
X357469Y320626D01*
X358359Y321220D01*
X360682Y319668D01*
X359998Y316230D01*
X360688Y312761D01*
X362653Y309821D01*
X365593Y307856D01*
X369062Y307166D01*
X372531Y307856D01*
X375471Y309821D01*
X377436Y312761D01*
X378126Y316230D01*
X377436Y319699D01*
X375471Y322639D01*
X372531Y324604D01*
X369062Y325294D01*
X365593Y324604D01*
X364703Y324010D01*
X362380Y325562D01*
X363064Y329000D01*
X362796Y330349D01*
X365119Y331901D01*
X365531Y331626D01*
X369000Y330936D01*
X372469Y331626D01*
X375409Y333591D01*
X377374Y336531D01*
X378064Y340000D01*
X377374Y343469D01*
X375409Y346409D01*
X372469Y348374D01*
X369000Y349064D01*
D02*
G37*
G36*
X562490Y335407D02*
X554355D01*
Y327272D01*
X562490D01*
Y335407D01*
D02*
G37*
G36*
X550545D02*
X542410D01*
Y327272D01*
X550545D01*
Y335407D01*
D02*
G37*
G36*
X501650Y372949D02*
X497733Y372169D01*
X494412Y369950D01*
X492192Y366629D01*
X491413Y362712D01*
X492192Y358795D01*
X494412Y355474D01*
X497733Y353255D01*
X501650Y352475D01*
X505567Y353255D01*
X508888Y355474D01*
X511107Y358795D01*
X511887Y362712D01*
X511107Y366629D01*
X508888Y369950D01*
X505567Y372169D01*
X501650Y372949D01*
D02*
G37*
G36*
X550545Y372752D02*
X542410D01*
Y364617D01*
X550545D01*
Y372752D01*
D02*
G37*
G36*
X56265Y368877D02*
Y348375D01*
X67146D01*
Y356470D01*
X66577Y359328D01*
X68900Y360880D01*
X70223Y359996D01*
X73360Y359372D01*
X74455D01*
Y365665D01*
X65541D01*
X65192Y367418D01*
X62870Y365866D01*
X59253Y368282D01*
X56265Y368877D01*
D02*
G37*
G36*
X376685Y365095D02*
X369905D01*
Y358315D01*
X371469Y358626D01*
X374409Y360591D01*
X376374Y363531D01*
X376685Y365095D01*
D02*
G37*
G36*
X562490Y372752D02*
X554355D01*
Y364617D01*
X562490D01*
Y372752D01*
D02*
G37*
G36*
X116455Y368877D02*
X113467Y368282D01*
X109850Y365866D01*
X107528Y367418D01*
X107179Y365665D01*
X98265D01*
Y359372D01*
X99360D01*
X102497Y359996D01*
X103820Y360880D01*
X106143Y359328D01*
X105574Y356470D01*
Y348375D01*
X116455D01*
Y368877D01*
D02*
G37*
G36*
X587890Y372752D02*
X579755D01*
Y364617D01*
X587890D01*
Y372752D01*
D02*
G37*
G36*
X575945D02*
X567810D01*
Y364617D01*
X575945D01*
Y372752D01*
D02*
G37*
G36*
X562490Y360807D02*
X554355D01*
Y352672D01*
X562490D01*
Y360807D01*
D02*
G37*
G36*
X550545D02*
X542410D01*
Y352672D01*
X550545D01*
Y360807D01*
D02*
G37*
G36*
X527050Y372949D02*
X523133Y372169D01*
X519812Y369950D01*
X517593Y366629D01*
X516813Y362712D01*
X517593Y358795D01*
X519812Y355474D01*
X523133Y353255D01*
X527050Y352475D01*
X530967Y353255D01*
X534288Y355474D01*
X536507Y358795D01*
X537287Y362712D01*
X536507Y366629D01*
X534288Y369950D01*
X530967Y372169D01*
X527050Y372949D01*
D02*
G37*
G36*
X575945Y360807D02*
X567810D01*
Y352672D01*
X575945D01*
Y360807D01*
D02*
G37*
G36*
X366095Y365095D02*
X359315D01*
X359626Y363531D01*
X361591Y360591D01*
X364531Y358626D01*
X366095Y358315D01*
Y365095D01*
D02*
G37*
G36*
X240665Y364885D02*
X233885D01*
X234196Y363321D01*
X236161Y360381D01*
X239101Y358416D01*
X240665Y358105D01*
Y364885D01*
D02*
G37*
G36*
X587890Y360807D02*
X579755D01*
Y352672D01*
X587890D01*
Y360807D01*
D02*
G37*
G36*
X487680Y303861D02*
X483763Y303081D01*
X480442Y300862D01*
X478223Y297541D01*
X477443Y293624D01*
X478223Y289707D01*
X480442Y286386D01*
X483763Y284167D01*
X487680Y283387D01*
X491597Y284167D01*
X494918Y286386D01*
X497137Y289707D01*
X497917Y293624D01*
X497137Y297541D01*
X494918Y300862D01*
X491597Y303081D01*
X487680Y303861D01*
D02*
G37*
G36*
X462280D02*
X458363Y303081D01*
X455042Y300862D01*
X452822Y297541D01*
X452043Y293624D01*
X452822Y289707D01*
X455042Y286386D01*
X458363Y284167D01*
X462280Y283387D01*
X466197Y284167D01*
X469518Y286386D01*
X471738Y289707D01*
X472517Y293624D01*
X471738Y297541D01*
X469518Y300862D01*
X466197Y303081D01*
X462280Y303861D01*
D02*
G37*
G36*
X335395Y289945D02*
X328615D01*
Y283165D01*
X330179Y283476D01*
X333119Y285441D01*
X335084Y288381D01*
X335395Y289945D01*
D02*
G37*
G36*
X548520Y303664D02*
X528440D01*
Y283584D01*
X548520D01*
Y303664D01*
D02*
G37*
G36*
X50159Y299237D02*
X42024D01*
Y291102D01*
X50159D01*
Y299237D01*
D02*
G37*
G36*
X522938Y291719D02*
X514985D01*
Y283766D01*
X516997Y284167D01*
X520318Y286386D01*
X522537Y289707D01*
X522938Y291719D01*
D02*
G37*
G36*
X511175D02*
X503222D01*
X503623Y289707D01*
X505842Y286386D01*
X509163Y284167D01*
X511175Y283766D01*
Y291719D01*
D02*
G37*
G36*
X143675Y278765D02*
X136895D01*
X137206Y277201D01*
X139171Y274261D01*
X142111Y272296D01*
X143675Y271985D01*
Y278765D01*
D02*
G37*
G36*
X52064Y285978D02*
X48146Y285199D01*
X44825Y282980D01*
X42606Y279659D01*
X41827Y275742D01*
X42606Y271824D01*
X44825Y268503D01*
X48146Y266284D01*
X52064Y265505D01*
X55981Y266284D01*
X59302Y268503D01*
X61521Y271824D01*
X62300Y275742D01*
X61521Y279659D01*
X59302Y282980D01*
X55981Y285199D01*
X52064Y285978D01*
D02*
G37*
G36*
X243840Y274240D02*
X240371Y273550D01*
X237431Y271585D01*
X235466Y268645D01*
X234776Y265176D01*
X235466Y261707D01*
X237431Y258767D01*
X240371Y256802D01*
X243840Y256112D01*
X247309Y256802D01*
X250249Y258767D01*
X252214Y261707D01*
X252904Y265176D01*
X252214Y268645D01*
X250249Y271585D01*
X247309Y273550D01*
X243840Y274240D01*
D02*
G37*
G36*
X154265Y278765D02*
X147485D01*
Y271985D01*
X149049Y272296D01*
X151989Y274261D01*
X153954Y277201D01*
X154265Y278765D01*
D02*
G37*
G36*
X260985Y289945D02*
X254205D01*
X254516Y288381D01*
X256481Y285441D01*
X259421Y283476D01*
X260985Y283165D01*
Y289945D01*
D02*
G37*
G36*
X147485Y289355D02*
Y282575D01*
X154265D01*
X153954Y284139D01*
X151989Y287079D01*
X149049Y289044D01*
X147485Y289355D01*
D02*
G37*
G36*
X143675D02*
X142111Y289044D01*
X139171Y287079D01*
X137206Y284139D01*
X136895Y282575D01*
X143675D01*
Y289355D01*
D02*
G37*
G36*
X62104Y299237D02*
X53969D01*
Y291102D01*
X62104D01*
Y299237D01*
D02*
G37*
G36*
X116455Y344565D02*
X105574D01*
Y336470D01*
X106548Y331577D01*
X109319Y327429D01*
X113467Y324658D01*
X116455Y324063D01*
Y344565D01*
D02*
G37*
G36*
X67146D02*
X56265D01*
Y324063D01*
X59253Y324658D01*
X63401Y327429D01*
X66172Y331577D01*
X67146Y336470D01*
Y344565D01*
D02*
G37*
G36*
X52455D02*
X41574D01*
Y336470D01*
X42548Y331577D01*
X45319Y327429D01*
X49467Y324658D01*
X52455Y324063D01*
Y344565D01*
D02*
G37*
G36*
X131146D02*
X120265D01*
Y324063D01*
X123253Y324658D01*
X127401Y327429D01*
X130172Y331577D01*
X131146Y336470D01*
Y344565D01*
D02*
G37*
G36*
X450850Y347549D02*
X446933Y346769D01*
X443612Y344550D01*
X441393Y341229D01*
X440613Y337312D01*
X441393Y333395D01*
X443612Y330074D01*
X446933Y327854D01*
X450850Y327075D01*
X454767Y327854D01*
X458088Y330074D01*
X460308Y333395D01*
X461087Y337312D01*
X460308Y341229D01*
X458088Y344550D01*
X454767Y346769D01*
X450850Y347549D01*
D02*
G37*
G36*
X296705Y332445D02*
Y325665D01*
X303485D01*
X303174Y327229D01*
X301209Y330169D01*
X298269Y332134D01*
X296705Y332445D01*
D02*
G37*
G36*
X292895D02*
X291331Y332134D01*
X288391Y330169D01*
X286426Y327229D01*
X286115Y325665D01*
X292895D01*
Y332445D01*
D02*
G37*
G36*
X511175Y303482D02*
X509163Y303081D01*
X505842Y300862D01*
X503623Y297541D01*
X503222Y295529D01*
X511175D01*
Y303482D01*
D02*
G37*
G36*
X328615Y300535D02*
Y293755D01*
X335395D01*
X335084Y295319D01*
X333119Y298259D01*
X330179Y300224D01*
X328615Y300535D01*
D02*
G37*
G36*
X260985D02*
X259421Y300224D01*
X256481Y298259D01*
X254516Y295319D01*
X254205Y293755D01*
X260985D01*
Y300535D01*
D02*
G37*
G36*
X514985Y303482D02*
Y295529D01*
X522938D01*
X522537Y297541D01*
X520318Y300862D01*
X516997Y303081D01*
X514985Y303482D01*
D02*
G37*
G36*
X62104Y311182D02*
X53969D01*
Y303047D01*
X62104D01*
Y311182D01*
D02*
G37*
G36*
X50159D02*
X42024D01*
Y303047D01*
X50159D01*
Y311182D01*
D02*
G37*
G36*
X303485Y321855D02*
X286115D01*
X286426Y320291D01*
X288391Y317351D01*
X289607Y316538D01*
X288972Y313817D01*
X288916Y313810D01*
X283433Y311539D01*
X278724Y307926D01*
X275111Y303217D01*
X272840Y297734D01*
X272833Y297678D01*
X270112Y297043D01*
X269299Y298259D01*
X266359Y300224D01*
X264795Y300535D01*
Y291847D01*
Y283165D01*
X266359Y283476D01*
X269299Y285441D01*
X270112Y286656D01*
X272833Y286022D01*
X272840Y285966D01*
X275111Y280483D01*
X278724Y275774D01*
X283433Y272161D01*
X288916Y269890D01*
X288972Y269883D01*
X289607Y267162D01*
X288391Y266349D01*
X286426Y263409D01*
X286115Y261845D01*
X303485D01*
X303174Y263409D01*
X301209Y266349D01*
X299993Y267162D01*
X300628Y269883D01*
X300684Y269890D01*
X306167Y272161D01*
X310876Y275774D01*
X314489Y280483D01*
X316760Y285966D01*
X316767Y286022D01*
X319488Y286656D01*
X320301Y285441D01*
X323241Y283476D01*
X324805Y283165D01*
Y291847D01*
Y300535D01*
X323241Y300224D01*
X320301Y298259D01*
X319488Y297043D01*
X316767Y297678D01*
X316760Y297734D01*
X314489Y303217D01*
X310876Y307926D01*
X306167Y311539D01*
X300684Y313810D01*
X300628Y313817D01*
X299993Y316538D01*
X301209Y317351D01*
X303174Y320291D01*
X303485Y321855D01*
D02*
G37*
%LPD*%
D38*
X184150Y-44196D02*
D03*
X209550D02*
D03*
X234950D02*
D03*
X260350D02*
D03*
X285750D02*
D03*
X311150D02*
D03*
X336550D02*
D03*
X361950D02*
D03*
X387350D02*
D03*
X412750D02*
D03*
D39*
X23473Y67437D02*
D03*
X576527D02*
D03*
D40*
X380492Y154940D02*
D03*
D41*
X450850Y337312D02*
D03*
X476250D02*
D03*
X501650D02*
D03*
X527050D02*
D03*
X179040Y46980D02*
D03*
X450850Y362712D02*
D03*
X476250D02*
D03*
X501650D02*
D03*
X527050D02*
D03*
X52064Y275742D02*
D03*
X462280Y293624D02*
D03*
X487680D02*
D03*
X513080D02*
D03*
X577850Y337312D02*
D03*
D42*
X552450D02*
D03*
Y362712D02*
D03*
X538480Y293624D02*
D03*
D43*
X294800Y323760D02*
D03*
X326710Y291850D02*
D03*
X294800Y259940D02*
D03*
X262890Y291850D02*
D03*
X387350Y-25400D02*
D03*
X361950D02*
D03*
X336550D02*
D03*
X311150D02*
D03*
X285750D02*
D03*
X260350D02*
D03*
X234950D02*
D03*
X209550D02*
D03*
X412750D02*
D03*
X294640Y124206D02*
D03*
X338328Y144780D02*
D03*
X272796Y248666D02*
D03*
X244856Y232410D02*
D03*
X26000Y194000D02*
D03*
Y172000D02*
D03*
X242570Y340120D02*
D03*
X108204Y137922D02*
D03*
X257000Y46000D02*
D03*
X335500Y62000D02*
D03*
X232750Y187500D02*
D03*
X359000Y62000D02*
D03*
X138430Y182880D02*
D03*
X102190Y94970D02*
D03*
X243840Y265176D02*
D03*
X145580Y280670D02*
D03*
X163000Y219000D02*
D03*
X147574Y370332D02*
D03*
X116000Y184000D02*
D03*
Y201000D02*
D03*
X240030Y299974D02*
D03*
X256000Y328000D02*
D03*
X242570Y366790D02*
D03*
X256000Y353000D02*
D03*
X242570Y315990D02*
D03*
X368000Y367000D02*
D03*
X369000Y340000D02*
D03*
X354000Y329000D02*
D03*
X524764Y139954D02*
D03*
X343408Y223520D02*
D03*
X438912Y239522D02*
D03*
X454660Y194310D02*
D03*
X551180Y156718D02*
D03*
X580644Y157734D02*
D03*
X528828Y80264D02*
D03*
X499364Y79248D02*
D03*
X264000Y12000D02*
D03*
X311000Y61000D02*
D03*
X293000Y60000D02*
D03*
X121158Y94996D02*
D03*
X117602Y54356D02*
D03*
X59182Y29718D02*
D03*
X58928Y53340D02*
D03*
X357378Y287020D02*
D03*
X350774Y303784D02*
D03*
X369062Y316230D02*
D03*
X338582Y315976D02*
D03*
X367538Y272034D02*
D03*
X355854Y233426D02*
D03*
X360934Y211328D02*
D03*
X184150Y-25400D02*
D03*
D44*
X96360Y367570D02*
D03*
X76360D02*
D03*
D45*
X118360Y346470D02*
D03*
X54360D02*
D03*
D46*
X179040Y21580D02*
D03*
X52064Y301142D02*
D03*
X577850Y362712D02*
D03*
D47*
X531876Y19812D02*
D03*
D48*
X294800Y291850D02*
D03*
M02*
