%FSLAX44Y44*%
%MOMM*%
G71*
G01*
G75*
G04 Layer_Color=8388736*
%ADD10C,0.2540*%
%ADD11R,1.1000X1.7000*%
%ADD12R,1.7000X1.1000*%
%ADD13R,2.0000X0.9000*%
%ADD14R,0.9000X2.0000*%
%ADD15R,1.3300X1.3300*%
%ADD16R,0.4000X1.0500*%
%ADD17R,0.8000X1.9000*%
%ADD18R,1.0000X1.7000*%
%ADD19R,1.9000X0.8000*%
%ADD20R,1.7000X1.0000*%
%ADD21R,2.6000X1.1000*%
%ADD22R,1.1000X2.6000*%
%ADD23R,1.1500X0.6000*%
%ADD24R,0.6000X1.1500*%
G04:AMPARAMS|DCode=25|XSize=1.97mm|YSize=0.89mm|CornerRadius=0.1113mm|HoleSize=0mm|Usage=FLASHONLY|Rotation=270.000|XOffset=0mm|YOffset=0mm|HoleType=Round|Shape=RoundedRectangle|*
%AMROUNDEDRECTD25*
21,1,1.9700,0.6675,0,0,270.0*
21,1,1.7475,0.8900,0,0,270.0*
1,1,0.2225,-0.3337,-0.8738*
1,1,0.2225,-0.3337,0.8738*
1,1,0.2225,0.3337,0.8738*
1,1,0.2225,0.3337,-0.8738*
%
%ADD25ROUNDEDRECTD25*%
G04:AMPARAMS|DCode=26|XSize=1.97mm|YSize=3.19mm|CornerRadius=0.2463mm|HoleSize=0mm|Usage=FLASHONLY|Rotation=270.000|XOffset=0mm|YOffset=0mm|HoleType=Round|Shape=RoundedRectangle|*
%AMROUNDEDRECTD26*
21,1,1.9700,2.6975,0,0,270.0*
21,1,1.4775,3.1900,0,0,270.0*
1,1,0.4925,-1.3487,-0.7388*
1,1,0.4925,-1.3487,0.7388*
1,1,0.4925,1.3487,0.7388*
1,1,0.4925,1.3487,-0.7388*
%
%ADD26ROUNDEDRECTD26*%
%ADD27R,0.6000X1.1500*%
%ADD28R,2.0000X4.2000*%
%ADD29R,1.2700X0.5080*%
%ADD30R,0.3810X0.3810*%
%ADD31O,0.6000X2.2000*%
%ADD32R,0.9144X0.9144*%
%ADD33R,0.9144X1.2700*%
%ADD34C,0.5080*%
%ADD35C,0.7620*%
%ADD36C,0.3810*%
%ADD37C,0.3048*%
%ADD38R,2.0320X8.2804*%
%ADD39R,3.9833X12.6746*%
%ADD40P,1.6496X8X112.5*%
%ADD41C,1.5000*%
%ADD42R,1.5000X1.5000*%
%ADD43C,1.2700*%
%ADD44O,1.7000X1.1000*%
%ADD45O,2.0000X4.0000*%
%ADD46R,1.5000X1.5000*%
%ADD47P,2.1648X8X112.5*%
%ADD48C,4.0000*%
%ADD49R,1.7780X1.0160*%
%ADD50R,1.2016X1.8016*%
%ADD51R,1.8016X1.2016*%
%ADD52R,2.1016X1.0016*%
%ADD53R,1.0016X2.1016*%
%ADD54R,1.4316X1.4316*%
%ADD55R,0.9016X2.0016*%
%ADD56R,1.1016X1.8016*%
%ADD57R,2.0016X0.9016*%
%ADD58R,1.8016X1.1016*%
%ADD59R,2.7016X1.2016*%
%ADD60R,1.2016X2.7016*%
%ADD61R,1.2516X0.7016*%
%ADD62R,0.7016X1.2516*%
G04:AMPARAMS|DCode=63|XSize=2.0716mm|YSize=0.9916mm|CornerRadius=0.1621mm|HoleSize=0mm|Usage=FLASHONLY|Rotation=270.000|XOffset=0mm|YOffset=0mm|HoleType=Round|Shape=RoundedRectangle|*
%AMROUNDEDRECTD63*
21,1,2.0716,0.6675,0,0,270.0*
21,1,1.7475,0.9916,0,0,270.0*
1,1,0.3241,-0.3337,-0.8738*
1,1,0.3241,-0.3337,0.8738*
1,1,0.3241,0.3337,0.8738*
1,1,0.3241,0.3337,-0.8738*
%
%ADD63ROUNDEDRECTD63*%
G04:AMPARAMS|DCode=64|XSize=2.0716mm|YSize=3.2916mm|CornerRadius=0.297mm|HoleSize=0mm|Usage=FLASHONLY|Rotation=270.000|XOffset=0mm|YOffset=0mm|HoleType=Round|Shape=RoundedRectangle|*
%AMROUNDEDRECTD64*
21,1,2.0716,2.6975,0,0,270.0*
21,1,1.4775,3.2916,0,0,270.0*
1,1,0.5941,-1.3487,-0.7388*
1,1,0.5941,-1.3487,0.7388*
1,1,0.5941,1.3487,0.7388*
1,1,0.5941,1.3487,-0.7388*
%
%ADD64ROUNDEDRECTD64*%
%ADD65R,0.7016X1.2516*%
%ADD66R,2.1016X4.3016*%
%ADD67R,1.3716X0.6096*%
%ADD68O,0.7016X2.3016*%
%ADD69R,1.0160X1.0160*%
%ADD70R,1.0160X1.3716*%
%ADD71P,1.7595X8X112.5*%
%ADD72C,1.6016*%
%ADD73R,1.6016X1.6016*%
%ADD74C,1.3716*%
%ADD75O,1.8016X1.2016*%
%ADD76O,2.1016X4.1016*%
%ADD77R,1.6016X1.6016*%
%ADD78P,2.2748X8X112.5*%
%ADD79C,4.1016*%
G36*
X81860Y324970D02*
X77860D01*
Y335470D01*
X81860D01*
Y324970D01*
D02*
G37*
G36*
X75360D02*
X71360D01*
Y335470D01*
X75360D01*
Y324970D01*
D02*
G37*
G36*
X88360D02*
X84360D01*
Y335470D01*
X88360D01*
Y324970D01*
D02*
G37*
G36*
X101360D02*
X97360D01*
Y335470D01*
X101360D01*
Y324970D01*
D02*
G37*
G36*
X94860D02*
X90860D01*
Y335470D01*
X94860D01*
Y324970D01*
D02*
G37*
D16*
X73360Y330220D02*
D03*
X79860D02*
D03*
X86360D02*
D03*
X92860D02*
D03*
X99360D02*
D03*
D49*
X179270Y33523D02*
D03*
D50*
X585000Y244348D02*
D03*
X558000D02*
D03*
X196500Y361000D02*
D03*
X169500D02*
D03*
X579666Y176784D02*
D03*
X552666D02*
D03*
X527342Y99314D02*
D03*
X500342D02*
D03*
X188760Y262650D02*
D03*
X161760D02*
D03*
X118580D02*
D03*
X145580D02*
D03*
X527342Y120650D02*
D03*
X500342D02*
D03*
X283500Y152000D02*
D03*
X256500D02*
D03*
X218500Y140000D02*
D03*
X191500D02*
D03*
X341500Y124000D02*
D03*
X314500D02*
D03*
X454876Y162814D02*
D03*
X481876D02*
D03*
X196500Y336000D02*
D03*
X169500D02*
D03*
X70500Y241000D02*
D03*
X43500D02*
D03*
X213500Y162000D02*
D03*
X240500D02*
D03*
X59652Y115570D02*
D03*
X86652D02*
D03*
X59652Y136144D02*
D03*
X86652D02*
D03*
D51*
X360000Y79500D02*
D03*
Y106500D02*
D03*
X375500Y43500D02*
D03*
Y16500D02*
D03*
X184150Y283440D02*
D03*
Y310440D02*
D03*
X45720Y194860D02*
D03*
Y221860D02*
D03*
X185420Y243130D02*
D03*
Y216130D02*
D03*
Y201220D02*
D03*
Y174220D02*
D03*
X164000Y201500D02*
D03*
Y174500D02*
D03*
X289000Y43500D02*
D03*
Y16500D02*
D03*
X311000Y43500D02*
D03*
Y16500D02*
D03*
X354000D02*
D03*
Y43500D02*
D03*
X333000Y16500D02*
D03*
Y43500D02*
D03*
X143510Y88176D02*
D03*
Y61176D02*
D03*
X59182Y95542D02*
D03*
Y68542D02*
D03*
X81026Y95288D02*
D03*
Y68288D02*
D03*
X339000Y106500D02*
D03*
Y79500D02*
D03*
X318000D02*
D03*
Y106500D02*
D03*
X67310Y194860D02*
D03*
Y221860D02*
D03*
X147320Y327368D02*
D03*
Y354368D02*
D03*
X111760Y283440D02*
D03*
Y310440D02*
D03*
X184912Y90894D02*
D03*
Y117894D02*
D03*
X297000Y79500D02*
D03*
Y106500D02*
D03*
X164084Y90640D02*
D03*
Y117640D02*
D03*
X479806Y117564D02*
D03*
Y144564D02*
D03*
X239000Y11500D02*
D03*
Y38500D02*
D03*
D52*
X219800Y366850D02*
D03*
Y354150D02*
D03*
Y341450D02*
D03*
Y328750D02*
D03*
Y316050D02*
D03*
Y303350D02*
D03*
Y290650D02*
D03*
Y277950D02*
D03*
Y265250D02*
D03*
Y252550D02*
D03*
Y239850D02*
D03*
Y227150D02*
D03*
Y214450D02*
D03*
Y201750D02*
D03*
X389800D02*
D03*
Y214450D02*
D03*
Y227150D02*
D03*
Y239850D02*
D03*
Y252550D02*
D03*
Y265250D02*
D03*
Y277950D02*
D03*
Y290650D02*
D03*
Y303350D02*
D03*
Y316050D02*
D03*
Y328750D02*
D03*
Y341450D02*
D03*
Y354150D02*
D03*
Y366850D02*
D03*
D53*
X247650Y191750D02*
D03*
X260350D02*
D03*
X273050D02*
D03*
X285750D02*
D03*
X298450D02*
D03*
X311150D02*
D03*
X323850D02*
D03*
X336550D02*
D03*
X349250D02*
D03*
X361950D02*
D03*
D54*
X276450Y310440D02*
D03*
X294800Y310200D02*
D03*
X313150D02*
D03*
X276450Y291850D02*
D03*
X294800D02*
D03*
X313150D02*
D03*
X276450Y273500D02*
D03*
X294800D02*
D03*
X313150D02*
D03*
D55*
X89000Y263000D02*
D03*
X543814Y266700D02*
D03*
X454660Y263652D02*
D03*
X112200Y73390D02*
D03*
D56*
X102500Y263000D02*
D03*
X75500D02*
D03*
X530314Y266700D02*
D03*
X557314D02*
D03*
X468160Y263652D02*
D03*
X441160D02*
D03*
X98700Y73390D02*
D03*
X125700D02*
D03*
D57*
X426466Y298958D02*
D03*
X79248Y38354D02*
D03*
D58*
X426466Y285458D02*
D03*
Y312458D02*
D03*
X79248Y24854D02*
D03*
Y51854D02*
D03*
D59*
X209000Y38500D02*
D03*
Y11500D02*
D03*
X149250Y38750D02*
D03*
Y11750D02*
D03*
X569468Y286220D02*
D03*
Y313220D02*
D03*
X82550Y283440D02*
D03*
Y310440D02*
D03*
D60*
X69500Y172000D02*
D03*
X42500D02*
D03*
X486118Y263652D02*
D03*
X513118D02*
D03*
X486372Y231902D02*
D03*
X513372D02*
D03*
D61*
X454988Y123850D02*
D03*
Y142850D02*
D03*
X432488Y133350D02*
D03*
D62*
X517754Y165682D02*
D03*
X498754D02*
D03*
X508254Y143182D02*
D03*
X173500Y158250D02*
D03*
X154500D02*
D03*
X164000Y135750D02*
D03*
D63*
X139000Y224360D02*
D03*
X116000D02*
D03*
X93000D02*
D03*
D64*
X116000Y163860D02*
D03*
D65*
X102768Y38662D02*
D03*
X112268D02*
D03*
X121768D02*
D03*
Y13662D02*
D03*
X112268D02*
D03*
X102768D02*
D03*
D66*
X398750Y34500D02*
D03*
X495750D02*
D03*
D67*
X132334Y291352D02*
D03*
X157734Y300750D02*
D03*
X157734Y310402D02*
D03*
Y291352D02*
D03*
X132334Y310402D02*
D03*
D68*
X278100Y116500D02*
D03*
X265400D02*
D03*
X252700D02*
D03*
X240000D02*
D03*
X227300D02*
D03*
X214600D02*
D03*
X201900D02*
D03*
X278100Y68500D02*
D03*
X265400D02*
D03*
X252700D02*
D03*
X240000D02*
D03*
X227300D02*
D03*
X214600D02*
D03*
X201900D02*
D03*
D69*
X121666Y110490D02*
D03*
X140716D02*
D03*
D70*
X131318Y130810D02*
D03*
D71*
X380492Y154940D02*
D03*
D72*
X450850Y337312D02*
D03*
X476250D02*
D03*
X501650D02*
D03*
X527050D02*
D03*
X179040Y46980D02*
D03*
X450850Y362712D02*
D03*
X476250D02*
D03*
X501650D02*
D03*
X527050D02*
D03*
X52064Y275742D02*
D03*
X462280Y293624D02*
D03*
X487680D02*
D03*
X513080D02*
D03*
X577850Y337312D02*
D03*
D73*
X552450D02*
D03*
Y362712D02*
D03*
X538480Y293624D02*
D03*
D74*
X294800Y323760D02*
D03*
X326710Y291850D02*
D03*
X294800Y259940D02*
D03*
X262890Y291850D02*
D03*
X387350Y-25400D02*
D03*
X361950D02*
D03*
X336550D02*
D03*
X311150D02*
D03*
X285750D02*
D03*
X260350D02*
D03*
X234950D02*
D03*
X209550D02*
D03*
X412750D02*
D03*
X294640Y124206D02*
D03*
X338328Y144780D02*
D03*
X272796Y248666D02*
D03*
X244856Y232410D02*
D03*
X26000Y194000D02*
D03*
Y172000D02*
D03*
X242570Y340120D02*
D03*
X108204Y137922D02*
D03*
X257000Y46000D02*
D03*
X335500Y62000D02*
D03*
X232750Y187500D02*
D03*
X359000Y62000D02*
D03*
X138430Y182880D02*
D03*
X102190Y94970D02*
D03*
X243840Y265176D02*
D03*
X145580Y280670D02*
D03*
X163000Y219000D02*
D03*
X147574Y370332D02*
D03*
X116000Y184000D02*
D03*
Y201000D02*
D03*
X240030Y299974D02*
D03*
X256000Y328000D02*
D03*
X242570Y366790D02*
D03*
X256000Y353000D02*
D03*
X242570Y315990D02*
D03*
X368000Y367000D02*
D03*
X369000Y340000D02*
D03*
X354000Y329000D02*
D03*
X524764Y139954D02*
D03*
X343408Y223520D02*
D03*
X438912Y239522D02*
D03*
X454660Y194310D02*
D03*
X551180Y156718D02*
D03*
X580644Y157734D02*
D03*
X528828Y80264D02*
D03*
X499364Y79248D02*
D03*
X264000Y12000D02*
D03*
X311000Y61000D02*
D03*
X293000Y60000D02*
D03*
X121158Y94996D02*
D03*
X117602Y54356D02*
D03*
X59182Y29718D02*
D03*
X58928Y53340D02*
D03*
X357378Y287020D02*
D03*
X350774Y303784D02*
D03*
X369062Y316230D02*
D03*
X338582Y315976D02*
D03*
X367538Y272034D02*
D03*
X355854Y233426D02*
D03*
X360934Y211328D02*
D03*
X184150Y-25400D02*
D03*
D75*
X96360Y367570D02*
D03*
X76360D02*
D03*
D76*
X118360Y346470D02*
D03*
X54360D02*
D03*
D77*
X179040Y21580D02*
D03*
X52064Y301142D02*
D03*
X577850Y362712D02*
D03*
D78*
X531876Y19812D02*
D03*
D79*
X294800Y291850D02*
D03*
M02*
