M48
;Layer_Color=9474304
;FILE_FORMAT=4:4
METRIC,LZ
;TYPE=PLATED
T1F00S00C0.7000
T3F00S00C0.9000
T4F00S00C1.0160
T5F00S00C1.3000
T6F00S00C1.6000
%
T01
X0041275Y-000254
X00499364Y00079248
X00528828Y00080264
X00524764Y00139954
X0055118Y00156718
X00580644Y00157734
X00338328Y0014478
X0029464Y00124206
X00293Y0006
X00311Y00061
X003355Y00062
X00359
X0036195Y-000254
X0038735
X0033655
X0031115
X0028575
X0026035
X0023495
X0020955
X0018415
X00264Y00012
X00257Y00046
X00117602Y00054356
X00121158Y00094996
X0010219Y0009497
X00108204Y00137922
X00026Y00172
X00058928Y0005334
X00059182Y00029718
X00026Y00194
X00116Y00201
Y00184
X0013843Y0018288
X00163Y00219
X0014558Y0028067
X00147574Y00370332
X0024257Y0036679
Y0034012
Y0031599
X0024003Y00299974
X0026289Y0029185
X00256Y00328
Y00353
X002948Y0032376
X00338582Y00315976
X00350774Y00303784
X00357378Y0028702
X00367538Y00272034
X00369062Y0031623
X00369Y0034
X00354Y00329
X00368Y00367
X0032671Y0029185
X002948Y0025994
X00272796Y00248666
X00244856Y0023241
X0024384Y00265176
X0023275Y001875
X00343408Y0022352
X00355854Y00233426
X00360934Y00211328
X00438912Y00239522
X0045466Y0019431
T03
X00531876Y00019812
X0017904Y0002158
Y0004698
X00052064Y00275742
Y00301142
X0046228Y00293624
X0048768
X0051308
X0053848
X0052705Y00337312
X0050165
X0047625
X0045085
Y00362712
X0047625
X0050165
X0052705
X0055245
Y00337312
X0057785
Y00362712
T04
X00380492Y0015494
T05
X0005436Y0034647
X0011836
T06
X002948Y0029185
M30
